<?xml version="1.0" encoding="utf-8"?>
<!-- Generator: Adobe Illustrator 17.1.0, SVG Export Plug-In . SVG Version: 6.00 Build 0)  -->
<!DOCTYPE svg PUBLIC "-//W3C//DTD SVG 1.1//EN" "http://www.w3.org/Graphics/SVG/1.1/DTD/svg11.dtd">
<svg version="1.1" id="bubble" xmlns="http://www.w3.org/2000/svg" xmlns:xlink="http://www.w3.org/1999/xlink" x="0px" y="0px"
	 viewBox="0 0 640 480" enable-background="new 0 0 640 480" xml:space="preserve">
<g opacity="0.8">
	<path fill="#C36D22" d="M9.7,149.9C24.2,209.8,39.6,270.5,55,331.4c33.3,17.4,66.3,34.4,99.1,50.4
		C106.8,305.9,56.9,225.7,9.7,149.9z"/>
</g>
<g opacity="0.8">
	<path fill="#F6A055" d="M154.1,383.4c29.9-112.7,60.7-225.2,88.6-335.9C165.5,79.4,87.1,114.9,8.6,149.9
		C56.8,226.6,106.3,305.6,154.1,383.4z"/>
</g>
<g opacity="0.8">
	<path fill="#DC863B" d="M111.2,37.8c-34,37.6-69.2,75.3-101.5,112.1C86,116.5,166.5,81,243.2,47.5C199,44.1,155,40.9,111.2,37.8z"
		/>
</g>
<g opacity="0.8">
	<path fill="#FFB96E" d="M242.7,45.9c51.9,43.4,104.8,88.3,157.4,132c-82.1,67.4-165.5,138.1-246.1,203.8
		C182,271.1,212.8,158.6,242.7,45.9z"/>
</g>
<g opacity="0.8">
	<path fill="#FAB96E" d="M154.1,381.8c102.2-49.3,208.5-102,312.1-152.1c-22.5-17.5-44.9-34.9-67.1-52.5
		C318.6,245,233.7,314.9,154.1,381.8z"/>
</g>
<g opacity="0.8">
	<path fill="#A95308" d="M154.6,381.8c-32.9,30.5-66.3,62.3-98.7,92.1c-0.8-47.7-1.2-95.3-0.8-143
		C87.9,346.8,121.1,364.5,154.6,381.8z"/>
</g>
<g opacity="0.8">
	<path fill="#B66015" d="M154.1,381.6c5.7,8.7,11.5,17.5,17.2,26.1c-38.5,21.7-77.7,44.6-115.4,66.1
		C87.9,443.6,121.9,412,154.1,381.6z"/>
</g>
<g opacity="0.8">
	<path fill="none" d="M170.8,407.6c104-3.5,209.9-7.2,315.9-11c-57.3,2-114.4,3.9-171.3,6c-54.1-7-109.2-14.1-161.3-21.1
		C157.5,390.3,163.3,399,170.8,407.6z"/>
</g>
<g opacity="0.8">
	<path fill="#FCC17A" d="M315.4,403.5c50.1-58.3,102-116.7,149.8-173.8c-101.9,49.5-209,102.2-311.7,152
		C207.7,389.1,261.6,396.5,315.4,403.5z"/>
</g>
<g opacity="0.8">
	<path fill="#FFC67B" d="M315.4,402.6c54-6.3,108.4-14.1,162.9-22.4c-3.6-50.2-8.1-100.4-13.1-150.9
		C416.2,286.5,364.2,346.1,315.4,402.6z"/>
</g>
<g opacity="0.8">
	<path fill="none" stroke="#E51010" stroke-width="0.25" stroke-miterlimit="10" d="M277.4,402.7"/>
</g>
<g opacity="0.8">
	<path fill="#B66015" d="M477.9,380.4c3.2,5.4,5.8,11,7.8,16.4c-57.2,2-114.1,4-170.4,5.9C368.3,395.3,424.8,387.6,477.9,380.4z"/>
</g>
<g opacity="0.8">
	<path fill="#C56F24" d="M485.2,396.8c31.5-44.1,64.7-89.8,96.8-134.7c14.3-6,28.4-11.8,42.6-17.7
		C579,294.2,530.7,347.1,485.2,396.8z"/>
</g>
<g opacity="0.8">
	<path fill="#FFAC61" d="M465.1,229.7c38.7,10,77.9,21.3,117.1,32.8c-34.5,38.8-70.2,79.3-104.3,118.1
		C473.1,330.1,468.6,279.9,465.1,229.7z"/>
</g>
<g opacity="0.8">
	<path fill="#DC863B" d="M464.6,229.7c46.2-44.3,93.9-91.1,139.6-134.8c-6.5,55.7-14.4,111.8-22.5,168.1
		C543.1,252.6,504,241.3,464.6,229.7z"/>
</g>
<g opacity="0.8">
	<path fill="#CD772C" d="M624.6,244c-6.5-48.3-13.6-97.7-20.2-146.9c-7.5,55.1-15.3,110.6-22.5,164.6
		C596,256.8,610.3,250.7,624.6,244z"/>
</g>
<g opacity="0.8">
	<path fill="#FCA660" d="M501.2,106.3c-12.5,41.5-24.9,82.7-36,123.5C510.7,185.7,559,139.1,604.3,95
		C570,98.2,535.6,102,501.2,106.3z"/>
</g>
<g opacity="0.8">
	<path fill="#F6A055" d="M502.5,106.7c-87-19.8-174.4-40.3-259.7-59.2c50.4,43,104.6,87.2,156.4,131.1
		C433.4,154.5,468.2,130.3,502.5,106.7z"/>
</g>
<g opacity="0.8">
	<path fill="#FFC67B" d="M501.3,106.7c-33.6,22.9-68.3,47.7-102.6,71.2c22.2,17.4,44.6,35.1,66.4,52.4
		C477.3,188.8,490,147.4,501.3,106.7z"/>
</g>
<g opacity="0.8">
	<path fill="#C36D22" d="M242.7,47.6c16.4-14.5,32.7-29,47.4-43.1C231.4,15.5,170,27.2,110.3,38.3C154.9,41.5,199,44.6,242.7,47.6z"
		/>
</g>
<g opacity="0.8">
	<path fill="#CD772C" d="M241.6,47.4C257.7,33,274,18.5,290.2,4c69.2,34,142.4,69.1,211.1,102.6C416.2,87.6,328.5,67.1,241.6,47.4z"
		/>
</g>
<g opacity="0.8">
	<path fill="#B66015" d="M290.2,4.5c54.5,4.5,109.3,9.6,164.5,14.9c16.3,29.3,32,58.6,46.5,87.4C432.3,73.3,359.2,37.8,290.2,4.5z"
		/>
</g>
<g opacity="0.8">
	<path fill="#C36D22" d="M454.4,19.5C503.4,44,555,70.2,604.7,94.9c-34.6,4.2-69.1,8.3-103.4,12C485.3,77.6,469,48.3,454.4,19.5z"/>
</g>
<g opacity="0.8">
	<path fill="#CD772C" d="M477.7,380.4c2.6,5.4,4.9,11.1,7.5,16.5c31.7-44.2,65.1-90.4,96.7-134.4C547.7,300.9,512,341.7,477.7,380.4
		z"/>
</g>
<g opacity="0.8">
	<path fill="#A95308" d="M154.1,381.8c52.9,6.8,108.2,14.1,161.7,21c-48.7,1.8-97.1,3.5-145,5.1C164.4,399,158.5,390.3,154.1,381.8z
		"/>
</g>
</svg>
