<?xml version="1.0" encoding="utf-8"?>
<!-- Generator: Adobe Illustrator 17.1.0, SVG Export Plug-In . SVG Version: 6.00 Build 0)  -->
<!DOCTYPE svg PUBLIC "-//W3C//DTD SVG 1.1//EN" "http://www.w3.org/Graphics/SVG/1.1/DTD/svg11.dtd">
<svg version="1.1" id="bubble" xmlns="http://www.w3.org/2000/svg" xmlns:xlink="http://www.w3.org/1999/xlink" x="0px" y="0px"
	 viewBox="0 0 640 480" enable-background="new 0 0 640 480" xml:space="preserve">
<g opacity="0.8">
	<path fill="#C36D22" d="M57.5,145.9c12.4,56.2,25.6,113.2,38.8,170.4c28.5,16.3,56.7,32.3,84.7,47.3
		C140.6,292.4,97.9,217,57.5,145.9z"/>
</g>
<g opacity="0.8">
	<path fill="#F6A055" d="M181,365.1c25.6-105.8,51.9-211.5,75.8-315.4c-66,30-133.1,63.3-200.2,96.2
		C97.8,217.9,140.1,292.1,181,365.1z"/>
</g>
<g opacity="0.8">
	<path fill="#DC863B" d="M144.3,40.6c-29.1,35.3-59.2,70.7-86.8,105.3c65.3-31.4,134.1-64.7,199.7-96.2
		C219.4,46.5,181.8,43.5,144.3,40.6z"/>
</g>
<g opacity="0.8">
	<path fill="#FFB96E" d="M256.8,48.2c44.4,40.8,89.6,82.9,134.6,124C321.2,235.5,249.9,301.9,181,363.6
		C204.9,259.7,231.2,154,256.8,48.2z"/>
</g>
<g opacity="0.8">
	<path fill="#FAB96E" d="M181,363.6c87.4-46.3,178.3-95.8,266.9-142.8c-19.2-16.4-38.4-32.8-57.4-49.3
		C321.7,235.2,249.1,300.8,181,363.6z"/>
</g>
<g opacity="0.8">
	<path fill="#A95308" d="M181.4,363.6c-28.1,28.6-56.7,58.5-84.4,86.5c-0.7-44.8-1-89.5-0.7-134.3
		C124.4,330.8,152.8,347.4,181.4,363.6z"/>
</g>
<g opacity="0.8">
	<path fill="#B66015" d="M181,363.4c4.9,8.2,9.8,16.4,14.7,24.5c-32.9,20.4-66.4,41.9-98.7,62.1C124.4,421.7,153.5,392,181,363.4z"
		/>
</g>
<g opacity="0.8">
	<path fill="none" d="M195.3,387.9c88.9-3.3,179.5-6.8,270.1-10.3c-49,1.9-97.8,3.7-146.5,5.6c-46.3-6.6-93.4-13.2-137.9-19.8
		C183.9,371.6,188.9,379.8,195.3,387.9z"/>
</g>
<g opacity="0.8">
	<path fill="#FCC17A" d="M318.9,384c42.8-54.7,87.2-109.6,128.1-163.2c-87.1,46.5-178.7,96-266.5,142.7
		C226.8,370.5,272.9,377.4,318.9,384z"/>
</g>
<g opacity="0.8">
	<path fill="#FFC67B" d="M318.9,383.2c46.2-5.9,92.7-13.2,139.3-21c-3.1-47.1-6.9-94.3-11.2-141.7
		C405.1,274.1,360.7,330.1,318.9,383.2z"/>
</g>
<g opacity="0.8">
	<path fill="none" stroke="#E51010" stroke-width="0.25" stroke-miterlimit="10" d="M286.4,383.3"/>
</g>
<g opacity="0.8">
	<path fill="#B66015" d="M457.9,362.3c2.7,5.1,5,10.3,6.7,15.4c-48.9,1.9-97.6,3.8-145.7,5.5C364.2,376.3,412.5,369.1,457.9,362.3z"
		/>
</g>
<g opacity="0.8">
	<path fill="#C56F24" d="M464.1,377.7c26.9-41.4,55.3-84.3,82.8-126.5c12.2-5.6,24.3-11.1,36.4-16.6
		C544.3,281.4,503,331,464.1,377.7z"/>
</g>
<g opacity="0.8">
	<path fill="#FFAC61" d="M446.9,220.8c33.1,9.4,66.6,20,100.1,30.8c-29.5,36.4-60,74.5-89.2,110.9
		C453.8,315.1,449.9,267.9,446.9,220.8z"/>
</g>
<g opacity="0.8">
	<path fill="#DC863B" d="M446.5,220.8c39.5-41.6,80.3-85.5,119.4-126.6c-5.6,52.3-12.3,105-19.2,157.9
		C513.6,242.3,480.2,231.7,446.5,220.8z"/>
</g>
<g opacity="0.8">
	<path fill="#CD772C" d="M583.3,234.7c-5.6-46.4-11.6-93.9-17.3-141.2c-6.4,53-13.1,106.3-19.2,158.2
		C558.9,247,571.1,241.1,583.3,234.7z"/>
</g>
<g opacity="0.8">
	<path fill="#FCA660" d="M477.8,104.9c-10.7,39-21.3,77.7-30.8,116c38.9-41.4,80.2-85.2,119-126.6
		C536.6,97.3,507.2,100.9,477.8,104.9z"/>
</g>
<g opacity="0.8">
	<path fill="#F6A055" d="M478.9,105.3c-74.4-18.6-149.1-37.8-222.1-55.6c43.1,40.4,89.4,81.9,133.7,123.1
		C419.8,150.2,449.6,127.5,478.9,105.3z"/>
</g>
<g opacity="0.8">
	<path fill="#FFC67B" d="M477.9,105.3c-28.7,21.5-58.4,44.8-87.7,66.9c19,16.3,38.1,33,56.8,49.2
		C457.4,182.4,468.2,143.5,477.9,105.3z"/>
</g>
<g opacity="0.8">
	<path fill="#C36D22" d="M256.8,49.8c14-13.6,28-27.2,40.5-40.5c-50.2,10.4-102.7,21.3-153.7,31.8C181.7,44.1,219.4,47,256.8,49.8z"
		/>
</g>
<g opacity="0.8">
	<path fill="#CD772C" d="M255.8,49.6c13.8-13.5,27.7-27.1,41.6-40.7c59.2,31.9,121.8,64.9,180.5,96.3
		C405.1,87.4,330.1,68.1,255.8,49.6z"/>
</g>
<g opacity="0.8">
	<path fill="#B66015" d="M297.4,9.3c46.6,4.2,93.5,9,140.7,14c13.9,27.5,27.4,55,39.8,82.1C418.9,73.9,356.4,40.6,297.4,9.3z"/>
</g>
<g opacity="0.8">
	<path fill="#C36D22" d="M437.8,23.4c41.9,23,86,47.6,128.5,70.8c-29.6,3.9-59.1,7.8-88.4,11.3C464.2,78,450.3,50.5,437.8,23.4z"/>
</g>
<g opacity="0.8">
	<path fill="#CD772C" d="M457.7,362.3c2.2,5.1,4.2,10.4,6.4,15.5c27.1-41.5,55.7-84.9,82.7-126.2C517.6,287.7,487,326,457.7,362.3z"
		/>
</g>
<g opacity="0.8">
	<path fill="#A95308" d="M181,363.6c45.2,6.4,92.5,13.2,138.3,19.7c-41.6,1.7-83,3.3-124,4.8C189.8,379.8,184.8,371.6,181,363.6z"/>
</g>
</svg>
