<?xml version="1.0" encoding="utf-8"?>
<!-- Generator: Adobe Illustrator 17.1.0, SVG Export Plug-In . SVG Version: 6.00 Build 0)  -->
<!DOCTYPE svg PUBLIC "-//W3C//DTD SVG 1.1//EN" "http://www.w3.org/Graphics/SVG/1.1/DTD/svg11.dtd">
<svg version="1.1" id="Layer_1" xmlns="http://www.w3.org/2000/svg" xmlns:xlink="http://www.w3.org/1999/xlink" x="0px" y="0px"
	 viewBox="0 0 200 200" enable-background="new 0 0 200 200" xml:space="preserve">
<g>
	<g>
		<path fill="#2B2B2B" d="M110.7,75.2c2.3-1.4,3.7-3.5,4.6-5.9c1-2.3,1.4-4.8,1.2-7.3c-0.4-3.6-2.8-6.1-6.4-6.5
			c-2.5-0.3-4.8,0.3-7,1.6c-1.9,1.2-3.6,2.7-5,4.5c-2.7,3.2-4.8,6.8-6.6,10.5c-3,6.2-5.1,12.8-6.7,19.5c-1.2,5-2,10-2.5,15.1
			c-0.4,4.2-0.6,8.4-0.3,12.6c0.2,2.8,0.6,5.6,1.7,8.2c1.8,4.5,5.1,7.1,9.9,7.9c6.2,0.9,12-0.2,17.5-3c4.4-2.2,8.1-5.3,11.1-9.2
			c0.1-0.1,0.2-0.2,0.2-0.3c0,0,0,0,0.1-0.1c1,0.4,1.9,0.8,2.9,1.3c-0.1,0.3-0.2,0.5-0.3,0.7c-3.1,7.2-8.1,12.8-14.8,16.9
			c-5.3,3.3-11.1,5.3-17.3,6.1c-5.2,0.6-10.3,0.3-15.4-1c-7.4-1.9-12.3-6.6-14.9-13.8c-1-3-1.6-6-1.9-9.1c-0.5-4.4-0.5-8.9-0.1-13.3
			c0.9-12.3,3.7-24,9-35.2c2.5-5.3,5.7-10.2,9.7-14.5c4.5-4.7,9.7-8.2,16-10.1c4.3-1.3,8.6-1.6,13.1-1.3c2.9,0.2,5.8,0.7,8.5,1.8
			c3.2,1.3,5.9,3.2,7.7,6.2c1.2,2,1.9,4.2,2.2,6.6c0.3,2.7,0.2,5.3-0.5,7.9c-0.1,0.5-0.3,0.9-0.5,1.3c-1.3,3.1-3.5,4.8-6.9,5.1
			c-3.2,0.3-6-0.7-8.2-3.1C110.8,75.3,110.7,75.2,110.7,75.2z"/>
	</g>
</g>
<g>
	<path fill="none" stroke="#2B2B2B" stroke-width="6" stroke-miterlimit="10" d="M14,58.9c0-4.4,3.3-9.8,7.1-12L92.5,6
		c3.8-2.2,10.1-2.2,13.9,0l71.5,40.9c3.8,2.2,7.1,7.6,7.1,12v81.7c0,4.4-3.2,9.8-7,12l-71.4,40.9c-3.8,2.2-10.1,2.2-13.9,0
		l-71.5-40.9c-3.8-2.2-7.1-7.6-7.1-12V58.9z"/>
</g>
</svg>
