<?xml version="1.0" encoding="utf-8"?>
<!-- Generator: Adobe Illustrator 17.1.0, SVG Export Plug-In . SVG Version: 6.00 Build 0)  -->
<!DOCTYPE svg PUBLIC "-//W3C//DTD SVG 1.1//EN" "http://www.w3.org/Graphics/SVG/1.1/DTD/svg11.dtd">
<svg version="1.1" id="Layer_1" xmlns="http://www.w3.org/2000/svg" xmlns:xlink="http://www.w3.org/1999/xlink" x="0px" y="0px"
	 viewBox="0 0 100 100" enable-background="new 0 0 100 100" xml:space="preserve">
<g>
	<path fill="#FFFFFF" d="M37.6,96c-2.2,0-5.4-1.4-7.1-2.8l-19.2-16c-1.7-1.4-3.4-4.4-3.8-6.6L3.1,46c-0.4-2.2,0.2-5.5,1.3-7.4
		L17,16.8c1.1-1.9,3.7-4.1,5.8-4.8l23.6-8.6c2.1-0.8,5.5-0.7,7.5,0L77.5,12c2.1,0.8,4.7,2.9,5.8,4.8l12.6,21.8
		c1.1,1.9,1.7,5.2,1.3,7.4l-4.4,24.5c-0.4,2.2-2.1,5.1-3.8,6.5L69.8,93.2c-1.7,1.4-4.9,2.8-7.1,2.8H37.6z"/>
	<path fill="none" stroke="#2B2B2B" stroke-width="4" stroke-miterlimit="10" d="M37.6,96c-2.2,0-5.4-1.4-7.1-2.8l-19.2-16
		c-1.7-1.4-3.4-4.4-3.8-6.6L3.1,46c-0.4-2.2,0.2-5.5,1.3-7.4L17,16.8c1.1-1.9,3.7-4.1,5.8-4.8l23.6-8.6c2.1-0.8,5.5-0.7,7.5,0
		L77.5,12c2.1,0.8,4.7,2.9,5.8,4.8l12.6,21.8c1.1,1.9,1.7,5.2,1.3,7.4l-4.4,24.5c-0.4,2.2-2.1,5.1-3.8,6.5L69.8,93.2
		c-1.7,1.4-4.9,2.8-7.1,2.8H37.6z"/>
</g>
<g>
	<g>
		<path fill="#2B2B2B" d="M57.9,34.7c1.4-0.8,2.2-2.1,2.8-3.5c0.6-1.4,0.9-2.8,0.7-4.3c-0.2-2.2-1.6-3.6-3.8-3.9
			c-1.5-0.2-2.9,0.2-4.1,1c-1.2,0.7-2.1,1.6-3,2.7c-1.6,1.9-2.8,4-3.9,6.3c-1.8,3.7-3,7.6-4,11.6c-0.7,3-1.2,6-1.5,9
			c-0.2,2.5-0.3,5-0.2,7.5c0.1,1.7,0.4,3.3,1,4.9c1.1,2.7,3.1,4.2,5.9,4.7c3.7,0.6,7.1-0.1,10.4-1.8c2.6-1.3,4.8-3.2,6.6-5.5
			c0-0.1,0.1-0.1,0.1-0.2c0,0,0,0,0.1,0c0.6,0.2,1.1,0.5,1.7,0.8c-0.1,0.2-0.1,0.3-0.2,0.4c-1.8,4.3-4.8,7.6-8.8,10.1
			c-3.2,1.9-6.6,3.2-10.3,3.6c-3.1,0.4-6.1,0.2-9.2-0.6c-4.4-1.2-7.4-3.9-8.8-8.2c-0.6-1.8-1-3.6-1.2-5.4c-0.3-2.6-0.3-5.3-0.1-7.9
			c0.6-7.3,2.2-14.3,5.4-20.9c1.5-3.2,3.4-6.1,5.8-8.6c2.7-2.8,5.8-4.9,9.5-6c2.5-0.8,5.1-1,7.8-0.8c1.7,0.1,3.4,0.4,5.1,1.1
			c1.9,0.8,3.5,1.9,4.6,3.7c0.7,1.2,1.1,2.5,1.3,3.9c0.2,1.6,0.1,3.2-0.3,4.7c-0.1,0.3-0.2,0.5-0.3,0.8c-0.7,1.8-2.1,2.9-4.1,3
			c-1.9,0.2-3.6-0.4-4.9-1.8C58,34.8,57.9,34.8,57.9,34.7z"/>
	</g>
</g>
</svg>
