<?xml version="1.0" encoding="utf-8"?>
<!-- Generator: Adobe Illustrator 17.1.0, SVG Export Plug-In . SVG Version: 6.00 Build 0)  -->
<!DOCTYPE svg PUBLIC "-//W3C//DTD SVG 1.1//EN" "http://www.w3.org/Graphics/SVG/1.1/DTD/svg11.dtd">
<svg version="1.1" id="Layer_1" xmlns="http://www.w3.org/2000/svg" xmlns:xlink="http://www.w3.org/1999/xlink" x="0px" y="0px"
	 viewBox="0 0 200 200" enable-background="new 0 0 200 200" xml:space="preserve">
<g>
	<path fill="#2B2B2B" d="M107.6,123.3c0,0.7-0.1,1.3-0.1,1.8c0,5.9,0,11.9,0,17.8c0,2.4,0.6,4.6,2.2,6.5c0.3,0.3,0.6,0.6,0.7,1
		c0.1,0.5,0.3,1.3,0.1,1.6c-0.3,0.4-1.1,0.6-1.6,0.5c-4.7-0.8-7.8-4.4-7.9-9.5c-0.2-6-0.1-12.1-0.1-18.2c0-0.7,0-1.4,0-2.2
		c-0.6,0-1-0.1-1.7-0.1c0,1,0,1.9,0,2.8c-0.2,6.8-0.3,13.6-0.7,20.3c-0.2,3.3-3.9,6.5-7.2,6.8c-0.6,0.1-1.3-0.4-2-0.6
		c0.2-0.6,0.5-1.2,0.7-1.8c0.6-1.5,1.8-2.9,1.9-4.4c0.3-7.2,0.2-14.4,0.3-21.6c0-0.2-0.1-0.3-0.1-0.5c-0.2-0.1-0.3-0.1-0.5-0.2
		c-0.4,1.2-1.2,2.4-1.2,3.6c-0.2,4.9-0.2,9.8-0.2,14.7c0,5.4-5.2,9.3-10.4,7.9c-1.1-0.3-1.2-0.9-0.5-1.6c0.6-0.7,1.4-1.2,2.1-1.7
		c1.7-1.3,2.6-2.8,2.6-5.1c-0.1-3.5,0-6.9,0-10.1c-2.6,0-5,0.1-7.4,0c-5.5-0.2-9.5-2.8-11.7-7.8c-1.7-3.9-3.9-7.2-7.5-9.5
		c-0.5-0.3-0.7-1-1-1.5c0.5-0.3,1-0.7,1.6-0.8c3-0.6,5.4,0.7,7.3,2.9c1.2,1.3,2.4,2.8,3.4,4.3c2.7,3.9,6.4,4.8,10.8,4.4
		c0.7-0.1,1.5-0.2,2.2-0.4c1.7-0.4,2.8-1,3.4-3c0.6-2.1,2.2-3.9,3.2-5.5c-3.8-1-8-1.8-12-3.1c-5.4-1.8-9.7-5.2-12.8-10
		c-0.3-0.5-1.2-0.9-1.8-0.8c-9,0.2-17.9,1.3-26.6,3.6c-0.8,0.2-1.6,0.3-2.5,0.2c4.6-2,9.5-2.9,14.4-3.5c5-0.6,10.1-1,15.2-1.5
		c-0.1-1.7-0.9-2.3-2.8-2.2c-8.6,0.8-17.3,1.4-25.9,2.1c-0.3,0-0.5,0-0.8,0c-0.1-0.2-0.1-0.3-0.2-0.5c0.5-0.2,1.1-0.6,1.6-0.6
		c6.8-0.6,13.5-1.2,20.3-1.7c2.2-0.2,4.3-0.2,6.2-0.3c-0.4-3.9-1-7.8-1.3-11.7c-0.6-6.5,1-12.3,5.4-17.3c0.8-0.9,0.9-1.7,0.7-2.9
		c-1-4.7-0.9-9.4,0.7-14c0.4-1.3,1.1-1.7,2.4-1.5c4.1,0.3,7.9,1.8,11.3,4.1c2.8,1.9,5.3,2.4,8.7,1.7c8.2-1.7,16.6-1.4,24.8,0.2
		c0.7,0.1,1.5-0.2,2.2-0.5c4-1.8,7.9-3.9,12-5.3c3.3-1.2,4.6-0.4,5.1,3c0.5,3.6,0.2,7.3,0.3,10.9c0,1,0.1,2.2,0.6,2.8
		c5.7,6.6,7.1,14.4,6.3,22.8c-0.2,2.5-0.7,5.1-1.1,7.8c9.8,0.3,19.6,0.4,29.3,2.4c0,0.2,0,0.5,0,0.7c-0.6,0-1.2,0-1.7-0.1
		c-8.6-1.6-17.3-1.9-26.1-2c-1.8,0-2.5,0.6-2.6,2.4c10.2,0.5,20.4,1.3,30.2,4.3c0,0.2-0.1,0.5-0.1,0.7c-0.3,0-0.7,0-1-0.1
		c-9.1-2.6-18.5-3.4-27.9-3.9c-1.2-0.1-1.9,0.3-2.5,1.4c-3.2,6.1-8.7,9-15.1,10.6c-3.2,0.8-6.5,1.3-9.9,1.9
		c5.3,3.6,5.1,9.1,5.3,14.3c0.1,4,0.1,8.1-0.1,12.2c-0.2,2.9,0.9,4.8,3.2,6.4c0.7,0.5,1.2,1.4,1.8,2c-1,0.2-2,0.8-2.9,0.6
		c-1.8-0.3-3.7-0.7-5.4-1.5c-2.1-1.1-3-3.1-3.1-5.6c-0.1-5.4-0.2-10.7-0.3-16.1C109.3,125.3,109.1,124,107.6,123.3z M100.5,111.5
		c0-0.1,0-0.3,0.1-0.4c4.4-0.2,8.9-0.3,13.3-0.7c9-0.9,14.4-5.9,15.6-14.1c1.5-10.6-5.2-18.2-15.5-17.3c-9.5,0.8-19,0.7-28.5,0
		c-10.2-0.8-17.1,6.5-15.9,16.6c0.9,7.6,5.6,12.1,12.7,13.7C88.2,110.7,94.4,110.9,100.5,111.5z"/>
	<path fill="#2B2B2B" d="M87.8,93.6c-0.7,1.7-1.1,3.4-2,4.7c-1.3,1.9-3.6,1.9-5.1,0.2c-2.2-2.4-2.2-7.5,0.1-9.8
		c1.5-1.5,3.7-1.6,4.9,0.1C86.7,90.2,87.1,91.9,87.8,93.6z"/>
	<path fill="#2B2B2B" d="M121.6,93.7c-0.7,1.6-1.1,3.3-2.1,4.7c-1.3,1.9-3.7,1.7-5.1,0c-2-2.4-2.1-6.9-0.1-9.4c1.6-1.9,4-2,5.3,0.1
		C120.6,90.4,121,92,121.6,93.7z"/>
</g>
<g>
	<path fill="none" stroke="#2B2B2B" stroke-width="4" stroke-miterlimit="10" d="M13,58.6c0-4.4,3.3-9.8,7.1-12L92.9,4.9
		c3.8-2.2,10.1-2.2,13.9,0l72.5,41.7c3.8,2.2,6.7,7.6,6.7,12v83.3c0,4.4-2.9,9.8-6.7,12l-72.6,41.7c-3.8,2.2-10,2.2-13.8,0
		l-72.8-41.7c-3.8-2.2-7.1-7.6-7.1-12V58.6z"/>
</g>
</svg>
