<?xml version="1.0" encoding="utf-8"?>
<!-- Generator: Adobe Illustrator 17.1.0, SVG Export Plug-In . SVG Version: 6.00 Build 0)  -->
<!DOCTYPE svg PUBLIC "-//W3C//DTD SVG 1.1//EN" "http://www.w3.org/Graphics/SVG/1.1/DTD/svg11.dtd">
<svg version="1.1" id="Layer_1" xmlns="http://www.w3.org/2000/svg" xmlns:xlink="http://www.w3.org/1999/xlink" x="0px" y="0px"
	 viewBox="0 0 100 100" enable-background="new 0 0 100 100" xml:space="preserve">
<g>
	<path fill="#FFFFFF" d="M37.6,96c-2.2,0-5.4-1.4-7.1-2.8L11.3,77.1c-1.7-1.4-3.4-4.4-3.8-6.6L3.1,45.9c-0.4-2.2,0.2-5.5,1.3-7.4
		L17,16.7c1.1-1.9,3.7-4.1,5.8-4.8l23.7-8.6c2.1-0.8,5.5-0.7,7.5,0l23.7,8.6c2.1,0.8,4.7,2.9,5.8,4.8L96,38.6
		c1.1,1.9,1.7,5.2,1.3,7.4l-4.4,24.5c-0.4,2.2-2.1,5.1-3.8,6.5L69.9,93.2C68.2,94.6,65,96,62.8,96H37.6z"/>
	<path fill="none" stroke="#2B2B2B" stroke-width="4" stroke-miterlimit="10" d="M37.6,96c-2.2,0-5.4-1.4-7.1-2.8L11.3,77.1
		c-1.7-1.4-3.4-4.4-3.8-6.6L3.1,45.9c-0.4-2.2,0.2-5.5,1.3-7.4L17,16.7c1.1-1.9,3.7-4.1,5.8-4.8l23.7-8.6c2.1-0.8,5.5-0.7,7.5,0
		l23.7,8.6c2.1,0.8,4.7,2.9,5.8,4.8L96,38.6c1.1,1.9,1.7,5.2,1.3,7.4l-4.4,24.5c-0.4,2.2-2.1,5.1-3.8,6.5L69.9,93.2
		C68.2,94.6,65,96,62.8,96H37.6z"/>
</g>
<g>
	<path fill="#2B2B2B" d="M55,64.8c0,0.4-0.1,0.8-0.1,1.1c0,3.7,0,7.4,0,11.2c0,1.5,0.4,2.9,1.4,4.1c0.2,0.2,0.4,0.4,0.4,0.6
		c0.1,0.3,0.2,0.8,0.1,1c-0.2,0.2-0.7,0.4-1,0.3c-2.9-0.5-4.9-2.7-5-6c-0.1-3.8,0-7.6-0.1-11.4c0-0.4,0-0.9,0-1.4
		c-0.4,0-0.6,0-1.1-0.1c0,0.6,0,1.2,0,1.8c-0.1,4.2-0.2,8.5-0.4,12.7c-0.1,2.1-2.4,4.1-4.5,4.2c-0.4,0-0.8-0.2-1.2-0.4
		c0.2-0.4,0.3-0.7,0.5-1.1c0.4-0.9,1.1-1.8,1.2-2.8c0.2-4.5,0.2-9,0.2-13.5c0-0.1-0.1-0.2-0.1-0.3c-0.1,0-0.2-0.1-0.3-0.1
		c-0.3,0.7-0.7,1.5-0.8,2.2C44,70.2,44,73.3,44,76.4c0,3.4-3.2,5.8-6.5,5c-0.7-0.2-0.7-0.6-0.3-1c0.4-0.4,0.9-0.7,1.3-1.1
		c1.1-0.8,1.7-1.8,1.6-3.2c-0.1-2.2,0-4.3,0-6.4c-1.7,0-3.2,0-4.6,0c-3.4-0.1-6-1.7-7.3-4.9c-1.1-2.4-2.4-4.5-4.7-5.9
		c-0.3-0.2-0.4-0.6-0.6-0.9c0.3-0.2,0.6-0.5,1-0.5c1.9-0.3,3.4,0.5,4.6,1.8c0.8,0.8,1.5,1.7,2.2,2.7c1.7,2.4,4,3,6.8,2.8
		c0.5,0,0.9-0.1,1.4-0.2c1-0.2,1.8-0.6,2.1-1.9c0.4-1.3,1.4-2.4,2-3.4c-2.4-0.6-5-1.1-7.5-2c-3.4-1.1-6.1-3.2-8-6.3
		c-0.2-0.3-0.7-0.5-1.1-0.5c-5.6,0.1-11.2,0.8-16.6,2.3c-0.5,0.1-1,0.2-1.6,0.1c2.9-1.2,5.9-1.8,9-2.2c3.2-0.4,6.3-0.6,9.5-1
		c-0.1-1.1-0.6-1.5-1.8-1.4c-5.4,0.5-10.8,0.9-16.2,1.3c-0.2,0-0.3,0-0.5,0c0-0.1-0.1-0.2-0.1-0.3c0.3-0.1,0.7-0.3,1-0.4
		c4.2-0.4,8.5-0.8,12.7-1.1c1.3-0.1,2.7-0.1,3.9-0.2c-0.3-2.5-0.6-4.9-0.8-7.3c-0.3-4.1,0.6-7.7,3.4-10.9c0.5-0.6,0.6-1.1,0.4-1.8
		c-0.6-3-0.6-5.9,0.5-8.8c0.3-0.8,0.7-1,1.5-1c2.6,0.2,5,1.1,7.1,2.6c1.8,1.2,3.3,1.5,5.5,1c5.1-1,10.4-0.9,15.6,0.1
		c0.4,0.1,0.9-0.1,1.4-0.3c2.5-1.1,4.9-2.4,7.5-3.3c2.1-0.8,2.9-0.3,3.2,1.9c0.3,2.2,0.1,4.5,0.2,6.8c0,0.6,0,1.4,0.4,1.8
		c3.6,4.1,4.4,9,3.9,14.3c-0.2,1.6-0.4,3.2-0.7,4.9c6.1,0.2,12.3,0.2,18.4,1.5c0,0.1,0,0.3,0,0.4c-0.4,0-0.7,0-1.1-0.1
		c-5.4-1-10.9-1.2-16.3-1.3c-1.1,0-1.6,0.4-1.6,1.5c6.4,0.3,12.8,0.8,18.9,2.7c0,0.1,0,0.3-0.1,0.4c-0.2,0-0.4,0-0.6,0
		c-5.7-1.6-11.6-2.2-17.5-2.5c-0.8,0-1.2,0.2-1.6,0.9c-2,3.8-5.4,5.6-9.4,6.6c-2,0.5-4,0.8-6.2,1.2c3.3,2.2,3.2,5.7,3.3,9
		c0.1,2.5,0.1,5.1-0.1,7.6c-0.1,1.8,0.6,3,2,4c0.5,0.3,0.8,0.8,1.1,1.3c-0.6,0.1-1.2,0.5-1.8,0.4c-1.1-0.2-2.3-0.4-3.4-0.9
		c-1.3-0.7-1.9-1.9-1.9-3.5c0-3.4-0.1-6.7-0.2-10.1C56.1,66.1,56,65.3,55,64.8z M50.6,57.5c0-0.1,0-0.2,0-0.2
		c2.8-0.1,5.6-0.2,8.3-0.4c5.6-0.5,9-3.7,9.8-8.8c0.9-6.6-3.3-11.4-9.7-10.8c-6,0.5-11.9,0.4-17.9,0c-6.4-0.5-10.7,4.1-9.9,10.4
		c0.6,4.8,3.5,7.6,7.9,8.6C42.9,56.9,46.8,57,50.6,57.5z"/>
	<path fill="#2B2B2B" d="M42.7,46.2c-0.4,1.1-0.7,2.1-1.2,2.9c-0.8,1.2-2.2,1.2-3.2,0.1c-1.4-1.5-1.4-4.7,0-6.1c0.9-1,2.3-1,3.1,0.1
		C41.9,44.1,42.2,45.2,42.7,46.2z"/>
	<path fill="#2B2B2B" d="M63.8,46.3c-0.4,1-0.7,2.1-1.3,2.9c-0.8,1.2-2.3,1.1-3.2,0c-1.3-1.5-1.3-4.4-0.1-5.9c1-1.2,2.5-1.2,3.3,0
		C63.2,44.2,63.4,45.3,63.8,46.3z"/>
</g>
</svg>
