<?xml version="1.0" encoding="utf-8"?>
<!-- Generator: Adobe Illustrator 17.1.0, SVG Export Plug-In . SVG Version: 6.00 Build 0)  -->
<!DOCTYPE svg PUBLIC "-//W3C//DTD SVG 1.1//EN" "http://www.w3.org/Graphics/SVG/1.1/DTD/svg11.dtd">
<svg version="1.1" id="Layer_1" xmlns="http://www.w3.org/2000/svg" xmlns:xlink="http://www.w3.org/1999/xlink" x="0px" y="0px"
	 viewBox="0 0 200 50" enable-background="new 0 0 200 50" xml:space="preserve">
<path fill="#383838" d="M8.9,12.9h1.9l3.4,10.2h0.1l3.4-10.2h1.9l-4.3,13V37h-1.9V25.9L8.9,12.9z"/>
<path fill="#383838" d="M34.3,37h-1.9l-1-6.2h-4.9L25.7,37h-1.9l3.7-24.1h3.1L34.3,37z M26.9,29h4.3l-2.1-14H29L26.9,29z"/>
<path fill="#383838" d="M40.8,12.9h2.2l5.7,18.3h0.1V12.9h1.9V37h-1.9l-6.1-19.3h-0.1V37h-1.9V12.9z"/>
<path fill="#383838" d="M59,12.9h2.2l5.7,18.3h0.1V12.9h1.9V37h-1.9l-6.1-19.3h-0.1V37H59V12.9z"/>
<path fill="#383838" d="M83.4,9.4v29.9l-1.6,0.2V9.4H83.4z"/>
<path fill="#383838" d="M105.4,37h-1.9v-8c0-1.7-1.4-3.1-3.1-3.1h-2.2V37h-1.9V12.9h4.1c2.7,0,5,2.2,5,5v3c0,1.7-0.9,3.2-2.1,4.1
	c1.2,0.9,2.1,2.4,2.1,4.1V37z M100.5,24c1.7,0,3.1-1.4,3.1-3.1v-3c0-1.7-1.4-3.1-3.1-3.1h-2.2V24H100.5z"/>
<path fill="#383838" d="M115.2,14.8V24h4.3v1.9h-4.3v9.2h6.1V37h-8V12.9h7.7v1.9H115.2z"/>
<path fill="#383838" d="M127.4,36.1l7.1-21.3h-6.7v-1.9h8.8v0.9l-7,21.3h7V37h-9.2V36.1z"/>
<path fill="#383838" d="M143.9,12.9h2.2l5.7,18.3h0.1V12.9h1.9V37h-1.9l-6.1-19.3h-0.1V37h-1.9V12.9z"/>
<path fill="#383838" d="M163.8,14.8V24h4.3v1.9h-4.3v9.2h6.1V37h-8V12.9h7.7v1.9H163.8z"/>
<path fill="#383838" d="M186.3,37h-1.9v-8c0-1.7-1.4-3.1-3.1-3.1h-2.2V37h-1.9V12.9h4.1c2.7,0,5,2.2,5,5v3c0,1.7-0.9,3.2-2.1,4.1
	c1.2,0.9,2.1,2.4,2.1,4.1V37z M181.3,24c1.7,0,3.1-1.4,3.1-3.1v-3c0-1.7-1.4-3.1-3.1-3.1h-2.2V24H181.3z"/>
<path fill="#383838" d="M190.9,34.5V37h-1.9v-2.5H190.9z"/>
</svg>
