<?xml version="1.0" encoding="utf-8"?>
<!-- Generator: Adobe Illustrator 17.1.0, SVG Export Plug-In . SVG Version: 6.00 Build 0)  -->
<!DOCTYPE svg PUBLIC "-//W3C//DTD SVG 1.1//EN" "http://www.w3.org/Graphics/SVG/1.1/DTD/svg11.dtd">
<svg version="1.1" id="Layer_1" xmlns="http://www.w3.org/2000/svg" xmlns:xlink="http://www.w3.org/1999/xlink" x="0px" y="0px"
	 viewBox="0 0 600 600" enable-background="new 0 0 600 600" xml:space="preserve">
<g>
	<path fill="none" d="M551.5,273.3c0-0.1,0-0.2,0-0.3c-0.1-0.5-0.1-1.1-0.2-1.7c-0.1-0.8-0.2-1.7-0.3-2.8l-0.4-3.4
		c-0.3-2-0.6-4.1-0.9-6.1l-0.1-0.6c-0.7-4.5-1.6-9-2.7-13.5l-0.1-0.6c-1.5-7-3.5-13.9-5.6-20.8l-2.6-7.9c-0.3-1.1-0.8-2.1-1.2-3.4
		c-0.3-0.8-0.6-1.6-1-2.6c0-0.1-0.1-0.2-0.1-0.3c-0.3-0.9-0.7-1.7-1-2.7c-0.1-0.3-0.2-0.5-0.3-0.8c-0.6-1.5-1.2-3.2-1.9-4.7l-1.3-3
		c-0.1-0.1-0.1-0.2-0.2-0.4l-0.1-0.2c-0.2-0.5-0.5-1.1-0.7-1.6l-1-2.4c-0.5-1.1-1-2.4-1.6-3.5c-0.1-0.2-0.2-0.4-0.3-0.6
		c-0.2-0.4-0.4-0.9-0.7-1.3l-2.9-5.7c-1.3-2.6-2.8-5.1-4.3-7.8c-0.1-0.1-0.2-0.3-0.2-0.4l-0.2-0.4c-1.5-2.7-3.2-5.4-4.9-8.2
		c-0.1-0.1-0.1-0.2-0.2-0.3l-3.2-4.9c-0.1-0.1-0.1-0.2-0.2-0.3c-0.5-0.8-1.1-1.6-1.6-2.5c-0.5-0.7-1-1.4-1.5-2.1
		c-0.4-0.5-0.7-1-1.1-1.5c-0.6-0.8-1.2-1.6-1.8-2.6c-0.6-0.8-1.2-1.6-1.8-2.6c-0.9-1.2-1.8-2.5-2.9-3.7l-1.4-1.8
		c-2.9-3.6-5.8-7.2-8.9-10.7c-2.5-2.9-5-5.6-7.7-8.4c-0.3-0.3-0.5-0.5-0.8-0.8c-2.4-2.4-4.7-4.7-7.1-7.1c-0.9-0.9-1.9-1.8-3-2.8
		c-0.8-0.8-1.7-1.6-2.6-2.4c-0.4-0.4-0.9-0.8-1.3-1.2c-9.9-8.6-18-14.8-26-20.2l-0.2-0.1c-3.2-2.3-6.5-4.3-10.1-6.4
		c-1.4-0.9-3-1.7-4.4-2.7c-1.5-0.9-3.1-1.7-4.7-2.6c-1-0.5-1.9-1-3-1.6l-3.8-2l-3.9-1.8c-7.3-3.6-14.7-6.9-22.3-9.7
		c-1-0.4-1.9-0.7-3-1.1c-0.7-0.3-1.4-0.5-2.1-0.7c-1.7-0.6-3.6-1.2-5.3-1.8h-0.1c-1.9-0.6-3.9-1.2-5.8-1.8c-0.3-0.1-0.5-0.2-0.8-0.2
		c-2-0.6-4-1.1-6-1.7c-15.3-4.2-31.1-6.9-47.1-8.2l-6.8-0.4c-0.5,0-1-0.1-1.5-0.1c-0.8,0-1.6-0.1-2.6-0.1h-2.1l-7.2-0.1
		c-1.2,0-2.5,0-3.7,0c-0.6,0-1.3,0-1.9,0.1c-1.1,0-2.4,0.1-3.5,0.1l-2,0.1c-11.6,0.5-23.2,1.8-34.9,4c-0.1,0-0.2,0-0.4,0.1
		c-1.7,0.3-3.6,0.7-5.3,1l-7.5,1.6c-0.6,0.1-1.1,0.3-1.7,0.4c-0.4,0.1-0.9,0.2-1.3,0.3c-0.4,0.1-0.7,0.2-1.1,0.3H235l-8.5,2.4
		c-1.2,0.4-2.5,0.7-3.8,1.1c-0.7,0.2-1.5,0.5-2.4,0.8c-1.1,0.4-2.3,0.7-3.4,1.1c-0.3,0.1-0.6,0.2-1,0.3c-7.2,2.5-14.3,5.3-21.4,8.5
		l-0.2,0.1c-0.1,0-0.1,0-0.2,0.1l-2.9,1.2c-0.5,0.2-1,0.4-1.4,0.7c-0.2,0.1-0.3,0.2-0.5,0.2c-0.7,0.3-1.4,0.7-2,1
		c-0.4,0.2-0.9,0.4-1.3,0.7c-0.3,0.1-0.5,0.3-0.8,0.4c-0.2,0.1-0.3,0.2-0.5,0.2c-0.4,0.2-0.8,0.4-1.2,0.6c-0.2,0.1-0.4,0.2-0.7,0.3
		l-2.7,1.3c-1.2,0.6-2.5,1.3-3.8,2c-0.7,0.4-1.5,0.9-2.3,1.3c-0.8,0.5-1.7,0.9-2.6,1.4c-1.3,0.7-2.7,1.5-4,2.3
		c-0.2,0.1-0.4,0.3-0.7,0.4l-0.1,0.1l-5.5,3.6c-2.4,1.5-4.8,3.2-7.4,4.9l-5.6,4c-2.1,1.5-4.3,3.2-6.3,4.9
		c-6.2,5-12.3,10.1-17.9,15.4l-4.9,4.8c-1,1-2.1,2.1-3.2,3.2c0,0,0,0-0.1,0.1l-6.4,6.9c-0.6,0.6-1.1,1.3-1.7,1.9
		c-0.1,0.1-0.2,0.2-0.3,0.4c-0.3,0.4-0.6,0.8-0.9,1.1l-4.6,5.4c-1.4,1.7-2.8,3.5-4.2,5.3l-0.1,0.1c-0.7,0.9-1.4,1.8-2.1,2.8
		c-0.3,0.4-0.5,0.7-0.8,1.1l-1,1.3c-0.5,0.6-0.9,1.3-1.4,1.9l-4,5.8c0,0.1-0.1,0.1-0.1,0.2l-1.5,2.3c-0.1,0.2-0.2,0.3-0.3,0.5
		c-0.6,1-1.3,2-1.9,3.1l0,0l-1.3,2.3c-0.2,0.3-0.3,0.5-0.5,0.8c-0.9,1.4-1.7,2.9-2.7,4.3c-0.2,0.3-0.4,0.6-0.6,1
		c-0.4,0.7-0.8,1.4-1.2,2.3c-0.3,0.5-0.6,1-0.8,1.5c-0.5,0.9-1.1,2-1.6,3.1c-0.1,0.2-0.3,0.5-0.4,0.7l-1.1,2
		c-0.4,0.8-0.8,1.5-1.2,2.4l-0.4,0.8c-0.5,1.1-1,2.3-1.6,3.4c-0.3,0.7-0.6,1.3-0.9,1.9l-0.4,0.9c-0.7,1.6-1.5,3.2-2.1,4.7
		c-0.1,0.2-0.2,0.5-0.3,0.7l-1.1,2.7v0.1l-0.1,0.2c-0.1,0.1-0.1,0.3-0.2,0.4l-1.6,3.9c-0.4,0.9-0.7,1.8-1.1,2.8
		c-0.2,0.4-0.3,0.9-0.5,1.3c-0.2,0.5-0.4,1.1-0.6,1.6c-0.4,1-0.8,2.1-1.2,3.3c-0.2,0.5-0.4,1-0.6,1.6c-1.7,5-3.4,10-4.8,14.8
		c-0.2,0.6-0.3,1.2-0.5,1.9l-0.3,1.2l-1.2,4.6c-0.1,0.5-0.2,0.9-0.4,1.4c-0.2,0.7-0.3,1.3-0.5,2l-0.9,4.1l-1.4,7.8l-1.1,8.1l-0.6,4
		c-0.1,0.5-0.2,1-0.3,1.5c-0.1,0.8-0.3,1.5-0.4,2.1l-1,8c-0.2,2-0.3,4.1-0.5,6.1l-0.1,1.7c0,0.2,0,0.3-0.1,0.5
		c-0.1,1.8-0.2,3.6-0.3,5.4l-0.2,9.1c0,10.2,0.6,20.3,1.7,30.2c0.1,0.5,0.1,1.1,0.2,1.6c0.1,0.9,0.2,1.9,0.4,2.9
		c0,0.3,0.1,0.6,0.1,1c0.3,1.9,0.6,3.8,0.9,5.7l1,5.8c0.1,0.3,0.1,0.6,0.2,0.9c0.3,1.5,0.6,3.2,0.9,4.7l1.4,6.1
		c0.5,2.1,1,4.4,1.6,6.5l0.9,3.4c0.1,0.3,0.2,0.7,0.3,1l0.8,3c0.3,1.1,0.7,2.4,1.1,3.6l0.6,1.7c0.1,0.4,0.3,0.8,0.4,1.2
		c0,0.1,0.1,0.3,0.1,0.4c0.1,0.4,0.3,0.8,0.4,1.2c0,0.1,0.1,0.2,0.1,0.4c0.5,1.7,1.1,3.4,1.7,5c0.6,1.6,1.2,3.2,1.8,4.8
		c0,0,0,0,0,0.1v0.1c0.3,0.8,0.7,1.7,1,2.7c0.1,0.2,0.1,0.4,0.2,0.6c0.6,1.4,1.1,3,1.7,4.3l1.4,3.2c0,0.1,0.1,0.2,0.1,0.2l0.1,0.2
		c0.1,0.2,0.2,0.3,0.2,0.5l1.6,3.8c0.5,1.1,1,2.3,1.6,3.4l3.7,7.3c2.5,4.6,5.2,9.6,8.6,15.1c0.8,1.2,1.5,2.4,2.4,3.6l1.3,2.1
		c1.7,2.8,3.6,5.4,5.5,8.1c0,0,0,0,0,0.1c0.7,0.9,1.3,1.8,1.9,2.7c0.3,0.5,0.7,1,1,1.4c1,1.4,2,2.8,3.1,4.1l4.1,5.1
		c0.3,0.4,0.6,0.8,0.9,1.2s0.7,0.9,1,1.3c0.5,0.6,0.9,1.1,1.4,1.6l6.5,7.5c0.3,0.4,0.6,0.7,1,1.1c1,1.1,2.1,2.1,3.2,3.3
		c0.7,0.7,1.4,1.5,2.3,2.3c0.4,0.4,0.8,0.8,1.2,1.3c0.2,0.2,0.4,0.4,0.6,0.7c1,1,2,2,3.2,3.1c0.1,0.1,0.3,0.3,0.4,0.4l0,0l0.1,0.1
		l4.9,4.6c12.1,10.9,25.2,20.7,39,29.1l0,0c3.3,1.9,6.5,3.8,9.8,5.6c0.6,0.3,1.1,0.6,1.7,0.9c0.8,0.4,1.6,0.8,2.4,1.2
		c1.5,0.8,3,1.5,4.5,2.3c0.3,0.2,0.6,0.3,0.9,0.5c1.9,0.9,4,1.9,5.9,2.9c0.1,0,0.1,0.1,0.2,0.1c10.8,5,22.1,9.2,33.5,12.6
		c0.9,0.3,1.9,0.5,3,0.8c1.1,0.3,2.3,0.6,3.4,0.9c0.7,0.2,1.5,0.4,2.3,0.6c1.5,0.4,3.1,0.8,4.5,1.1c0.2,0,0.3,0.1,0.5,0.1
		c12.8,3,26.1,5,39.6,6c6.3,0.5,12.8,0.7,19.1,0.7c2.4,0,4.8,0,7.2-0.1c0.3,0,0.6,0,0.8,0c1.8-0.1,3.8-0.1,5.6-0.2
		c1.1-0.1,2.1-0.1,3.3-0.2c1-0.1,2-0.1,3.2-0.2c1.4-0.1,2.9-0.2,4.3-0.4c0.7-0.1,1.3-0.1,2-0.2c1.8-0.2,3.6-0.4,5.4-0.6l0,0
		c6.3-0.8,12.7-1.8,19-3.1c1-0.2,2-0.4,3.1-0.6c7.9-1.7,16-3.9,24.9-6.8c0.5-0.2,0.9-0.3,1.4-0.5l1.6-0.5c1.6-0.5,3.3-1.1,4.8-1.6
		l11.2-4.3l7.1-3.1c2.4-1,4.7-2.1,7-3.3c0.7-0.4,1.5-0.8,2.3-1.1l4-2c1-0.5,2.1-1.1,3.2-1.7l8.6-4.9c0.6-0.4,1.2-0.7,1.8-1.1
		c0.7-0.4,1.4-0.9,2.1-1.3c0.6-0.4,1.1-0.7,1.7-1.1l4.3-2.8c2.9-1.9,5.7-3.9,8.6-5.9l2.5-1.7c0.5-0.3,0.9-0.7,1.4-1
		c0.4-0.3,0.8-0.6,1.1-0.9c0.3-0.2,0.6-0.5,0.9-0.7c0.5-0.4,1-0.8,1.5-1.2c0.8-0.6,1.2-1,1.6-1.3c0.3-0.2,0.5-0.5,0.9-0.8
		c1.1-0.8,1.8-1.5,2.6-1.9c0.9-0.7,2.4-2,3.8-3.3c0.5-0.5,1.2-1.1,2-1.7c0.9-0.8,1.9-1.6,2.9-2.5c0.3-0.2,0.7-0.6,1.1-0.9
		c0.6-0.5,1.2-1,1.6-1.5l3.2-3.1c12.4-11.8,23.1-24.3,32.8-38.5c0.8-1.1,1.6-2.4,2.5-3.6l2.4-3.4l4.7-7.7c1.2-1.9,2.4-4.1,3.6-6.3
		l0.8-1.5c0.4-0.7,0.8-1.5,1.3-2.4c1.1-2,2.1-4,3.1-5.9l0.1-0.2c6.1-12.1,11.4-25.3,15.7-39.4c4.7-15.4,7.9-31.3,9.6-47.4
		c1.4-14,1.8-28,1-41.6l-0.7-8.8C551.7,275.2,551.6,274.2,551.5,273.3z"/>

	<path fill="#020202" d="M565,288.9c0.5,12.9,0.1,26-1.2,39.1c-1.7,16.8-5.1,33.5-10,49.6c-4.5,14.7-10,28.6-16.4,41.3
		c-1.1,2.4-2.4,4.6-3.5,6.8c-0.4,0.7-0.8,1.5-1.2,2.3l-0.8,1.5c-1.2,2.4-2.6,4.7-4.1,7.1l-4.8,7.9l-2.5,3.6
		c-0.8,1.2-1.6,2.4-2.5,3.6c-10.2,14.9-21.6,28.1-34.5,40.4l-3.1,3c-0.7,0.7-1.5,1.4-2.3,2c-0.3,0.3-0.6,0.5-0.9,0.8
		c-1,0.9-2,1.7-3,2.6c-0.7,0.7-1.4,1.2-1.9,1.7c0,0,0,0-0.1,0.1l12.3,14.8c0.1-0.1,0.2-0.2,0.3-0.2c0.6-0.5,1.4-1.2,2.5-2.1
		c1.2-1,2.5-2.1,3.6-3.1c0.3-0.3,0.7-0.6,1-0.9c0.6-0.5,1.2-1,1.7-1.6l3.4-3.3c13.8-13.2,25.9-27.3,36.8-43.2l5.3-7.8l5.3-8.6
		c1.4-2.3,2.8-4.7,4.2-7.3l0.8-1.6c0.4-0.8,0.9-1.6,1.3-2.5c1.2-2.3,2.6-4.6,3.6-7l0.1-0.2c6.9-13.6,12.8-28.5,17.6-44.3
		c5.2-17.3,8.9-35.2,10.7-53.2c1.5-14.2,1.9-28.4,1.3-42.4L565,288.9z"/>
	<path d="M596.4,286.9h0.1l-0.4-4.7c-0.2-3.3-0.4-6.6-0.8-9.9l-0.1-1.5c-0.1-0.6-0.1-1.2-0.2-1.9c0-0.1,0-0.1,0-0.2
		c-0.3-3.3-0.8-6.6-1.2-9.9v-0.1c-0.2-1.5-0.4-3.5-0.8-5.3l-0.2-1.2c-0.3-1.9-0.7-3.9-1-5.8l-0.7-4.3l-1-4.5c-0.3-1.5-0.7-3.1-1-4.6
		l-0.9-4.2v-0.2c-0.8-3.2-1.7-6.3-2.7-9.7c-0.4-1.6-0.9-3.3-1.3-4.9l-1-3c-0.9-2.9-1.8-5.8-2.9-8.7c-0.1-0.4-0.2-0.7-0.4-1.1
		l-0.4-1.3l-0.2-0.4c-0.1-0.3-0.2-0.6-0.4-1l-0.3-0.9c-0.1-0.3-0.2-0.6-0.3-0.8c0-0.1,0-0.1-0.1-0.2c-0.3-0.8-0.6-1.6-0.9-2.5v-0.1
		c-0.1-0.2-0.1-0.4-0.2-0.5c-0.4-1.1-0.8-2.1-1.2-3.3c-0.6-1.4-1.1-3-1.7-4.5l-0.5-1.1c-0.6-1.4-1.2-2.9-1.9-4.3
		c-0.7-1.6-1.4-3.3-2.1-4.9l-0.9-1.9l-0.1-0.1c-0.3-0.6-0.6-1.2-0.9-1.7c-1.4-3-3-5.9-4.5-9l-0.7-1.4c-0.9-1.8-2-3.7-3-5.4
		c-0.2-0.4-0.4-0.7-0.6-1.1c-0.4-0.7-0.8-1.5-1.3-2.3l-3-5.2l-2.5-3.8c-0.1-0.1-0.1-0.2-0.2-0.3c-1.5-2.6-3.2-5.1-4.9-7.7
		c-0.4-0.6-0.8-1.2-1.1-1.7c-2.4-3.4-4.8-6.9-7.4-10.2c-0.4-0.6-0.8-1.1-1.2-1.7l-1.8-2.4c-1.3-1.7-2.8-3.5-4.2-5.2l-3-3.7
		c-0.7-0.8-1.4-1.6-2.1-2.5c-0.3-0.4-0.7-0.8-1.1-1.2l-1.8-2.1l-0.1-0.1l-0.1-0.1l-4.2-4.8c-1.4-1.6-3-3.2-4.5-4.7l-0.1-0.1
		c-0.5-0.5-1-1-1.5-1.5c-0.2-0.2-0.4-0.4-0.5-0.5c-2.3-2.5-4.7-4.8-7.2-7.1c-2.1-2-4.2-4-6.3-5.9c-0.2-0.2-0.4-0.4-0.7-0.6l-0.1-0.1
		c-0.3-0.3-0.6-0.5-0.9-0.7c-4.1-3.6-8.2-7.1-12.4-10.4c-10.9-9.2-22.8-17.3-35.1-24.5l0,0l-0.2-0.1l0,0c-4.3-2.6-8.8-4.8-13.2-7.2
		v0.1l0,0l-0.1-0.2c-7.6-3.9-15.2-7.5-23.1-10.6c-0.7-0.3-1.3-0.6-2-0.8c-1.6-0.6-3.3-1.3-4.9-1.9c-1.4-0.6-3-1.1-4.5-1.6
		c-0.7-0.2-1.3-0.5-2-0.7c-4.4-1.5-8.9-3.1-13.4-4.4c-0.3-0.1-0.6-0.2-0.8-0.3c-10.6-3.2-21.6-5.8-32.7-7.8l-6.2-1
		c-0.1,0-0.1,0-0.2,0l-4-0.6c-2.4-0.3-4.7-0.6-7-0.8c-1.1-0.1-2.4-0.3-3.6-0.4c-0.6-0.1-1.1-0.1-1.7-0.2c-1.1-0.1-2.4-0.3-3.5-0.4
		l-3.2-0.2c-3.2-0.3-6.4-0.5-9.6-0.6h-0.1c-1-0.1-2-0.1-3.1-0.1c-3.4-0.1-6.8-0.2-10.1-0.2c-0.1,0-0.2,0-0.3,0h-0.2h-0.8
		c-1.3,0-2.6,0-3.8,0.1c-2.5,0-5,0.1-7.5,0.2h-0.4c-1.2,0-2.4,0.1-3.6,0.1l-3.7,0.3c-0.5,0-1.1,0.1-1.6,0.1l-5.5,0.4
		c-1.7,0.1-3.6,0.3-5.5,0.5L256,5.7c-2.5,0.3-4.8,0.7-7.1,1.1c-1.1,0.2-2.4,0.4-3.6,0.6c-0.3,0-0.5-0.1-0.8-0.1V7.2l0,0
		c-0.3,1-0.6,0.3-0.9,0.4c-1.2,0.2-2.4,0.5-3.6,0.8l-1.8,0.5c-3.6,0.7-7.2,1.5-10.7,2.5c-0.8,0.2-1.6,0.4-2.6,0.6
		c-3.5,0.9-7.1,1.9-10.5,3l-0.6,0.2c-1,0.3-1.9,0.6-3,0.9c-0.1,0-0.1,0-0.2,0.1c-0.2,0.1-0.5,0.2-0.7,0.2c-2.6,0.8-5.1,1.6-7.7,2.6
		c-0.2,0.1-0.3,0.1-0.5,0.2c-1.1,0.4-2.4,0.7-3.5,1.2L194,22c-0.3,0.1-0.6,0.3-1,0.4l-4.8,1.8c-1.7,0.6-3.5,1.3-5.3,2.1l-5.1,2.3
		c-0.2,0.1-0.4,0.2-0.6,0.3c-1.2,0.5-2.5,1.1-3.7,1.6l-0.3,0.1c-0.5,0.2-1,0.5-1.5,0.7c-0.3,0.1-0.6,0.3-0.9,0.4
		c-0.8,0.4-1.6,0.8-2.4,1.2c-1.1,0.6-2.3,1.1-3.4,1.7c-0.3,0.1-0.5,0.3-0.8,0.4c-0.3,0.1-0.5,0.3-0.8,0.4l-1.5,0.8
		c-0.2,0.1-0.5,0.2-0.7,0.3c-0.1,0.1-0.2,0.1-0.3,0.2l-2.1,1.1l-0.4,0.2c-1,0.5-1.9,1.1-2.9,1.6c-0.8,0.4-1.5,0.9-2.5,1.4
		c-0.8,0.5-1.7,1-2.6,1.4c-0.9,0.5-1.8,1-2.8,1.5c-0.7,0.4-1.4,0.8-2.1,1.3c-0.1,0.1-0.2,0.1-0.3,0.2l-0.1,0.1
		c-2.4,1.5-4.9,3.2-7.7,4.9l-2.4,1.5c-0.2,0.2-0.5,0.3-0.7,0.5c-0.5,0.3-1.1,0.7-1.7,1.1l-2.7,1.9c-2.4,1.6-4.8,3.4-7.3,5.2
		l-0.9,0.6c-1.1,0.8-2.1,1.5-3.1,2.4c-0.1,0.1-0.3,0.2-0.4,0.3c-1,0.8-2,1.6-3.1,2.5c-0.1,0.1-0.2,0.2-0.3,0.2l-6,4.8l-4.1,3.6
		c-1.3,1.1-2.7,2.4-4,3.5l-0.2,0.2c-0.4,0.4-0.9,0.8-1.3,1.1c-0.9,0.8-1.9,1.6-2.9,2.6l-1.7,1.7c-2.1,2-4.2,4-6.2,6l-1.6,1.6
		c-0.5,0.5-0.9,0.9-1.3,1.4c-0.1,0.2-0.3,0.3-0.5,0.5c-2.6,2.7-5.1,5.4-7.6,8.2c-0.7,0.8-1.4,1.5-2,2.4c-2.4,2.7-4.6,5.4-6.9,8.2
		l-1.5,1.8l-3.3,4.3l-0.1,0.1l-0.4,0.5c-0.6,0.8-1.2,1.6-1.8,2.5c-0.7,1-1.5,1.9-2.3,3.1l-0.9,1.2l-0.7,1.1
		c-0.1,0.2-0.3,0.4-0.4,0.6l-3.7,5.4l-0.4,0.6c-0.9,1.2-1.7,2.6-2.6,3.9c-0.8,1.2-1.6,2.6-2.4,3.7l-0.1,0.1
		c-0.7,1.2-1.5,2.5-2.3,3.7c0,0,0,0,0,0.1l-3.3,5.3l-0.1,0.1c-0.1,0.1-0.1,0.2-0.2,0.3c-0.4,0.7-0.8,1.4-1.2,2.1l-0.4,0.7l0,0
		c-0.1,0.1-0.1,0.2-0.2,0.3l-0.4,0.6c-0.1,0.2-0.2,0.4-0.4,0.7c-0.6,1-1.1,2.1-1.7,3.2c-0.6,1.1-1.2,2.3-1.8,3.5l-0.9,1.6l-0.6,1.2
		c0,0,0,0.1-0.1,0.1l-0.3,0.7l-0.1,0.3c-0.5,1-1,2.1-1.5,3.2c-0.6,1.3-1.3,2.7-1.9,4l-0.7,1.4c-0.7,1.5-1.4,3-1.9,4.4
		c-0.6,1.3-1.1,2.7-1.6,4c-0.7,1.7-1.4,3.5-2.1,5.1l-0.6,1.5l-0.1,0.1c-0.2,0.5-0.4,1.1-0.6,1.6c-1.1,3-2.3,5.9-3.3,8.9
		c-0.6,1.5-1.1,3.2-1.7,4.9l-1.2,4c-0.5,1.7-1.1,3.4-1.6,5.1l-0.3,0.9c-0.3,0.9-0.6,1.8-0.8,2.8l0,0l-0.1,0.5
		c-0.2,0.7-0.4,1.3-0.5,1.9l-1.6,6.1l-0.5,1.9c0,0.1-0.1,0.2-0.1,0.3l-0.5,1.9v0.2c0,0.1,0,0.2-0.1,0.3c0,0.1-0.1,0.2-0.1,0.3
		l-0.4,2c-0.1,0.3-0.1,0.5-0.2,0.8l-0.4,1.8c-0.2,1.1-0.5,2.4-0.7,3.5c-0.3,1.2-0.5,2.5-0.8,3.7L7,245.6L6.8,247
		c0,0.1-0.1,0.3-0.1,0.4l-1.6,10.3c0,0.1,0,0.3-0.1,0.4l-0.2,1.2v0.1c0,0.1,0,0.3-0.1,0.5c-0.1,1-0.2,1.9-0.4,3L3,273.6v0.2
		c-0.1,1.2-0.2,2.4-0.3,3.6c0,0.6-0.1,1.1-0.1,1.8c-0.1,1.1-0.2,2.4-0.3,3.5c-0.2,2.3-0.4,4.6-0.5,7.1l-0.5,9.7v0.1
		c0,28.2,4,56,11.7,82.3l1.5,4.8l0.8,2.5c0.5,1.4,0.9,3,1.4,4.4c0.2,0.5,0.3,0.9,0.5,1.4c0.4,1.1,0.7,2.3,1.1,3.4
		c0,0.1,0.1,0.2,0.1,0.3l0.7,2l0.2,0.5v0.1l0.1,0.2c0.5,1.3,1,2.6,1.5,3.9l0.7,1.8c0,0.1,0.1,0.2,0.1,0.4c0.4,1,0.8,2,1.2,3.1
		c0.6,1.6,1.2,3.3,1.9,4.9l0.2,0.5c0.6,1.3,1.2,2.8,1.8,4.1c0.7,1.7,1.5,3.4,2.3,5.1l0.9,2.1l0.7,1.4c1.3,2.9,2.9,5.7,4.4,8.8
		l0.8,1.6c0.9,1.8,1.9,3.6,2.9,5.2c0.5,0.8,0.9,1.6,1.4,2.6l0.1,0.1c0.5,0.8,0.9,1.6,1.4,2.6c0.9,1.6,1.9,3.4,3,5.1l0.4,0.7l0,0
		c0.8,1.2,1.5,2.4,2.3,3.6c2.4,3.7,4.7,7.4,7.3,10.9c1.5,2.3,3.1,4.4,4.7,6.6c0.7,1,1.5,2,2.3,3.1l0.7,0.9c2.4,3.1,4.8,6.1,7.3,9.2
		c0.3,0.4,0.6,0.7,0.9,1.1l1.3,1.4c2.4,2.8,4.7,5.4,7.1,8.1l1,1.1l0.1,0.1c0.6,0.6,1.2,1.2,1.8,1.9c2,2.1,4,4.2,6.1,6.3
		c1.7,1.7,3.5,3.6,5.4,5.3l1.4,1.3c1.2,1.2,2.6,2.4,3.9,3.6l3.1,2.9l5.5,4.6c0.8,0.6,1.5,1.3,2.4,1.9c1.5,1.3,3.1,2.7,4.8,4l2.6,1.9
		c0.1,0.1,0.1,0.1,0.2,0.2l5.6,4.3c0.8,0.6,1.6,1.2,2.5,1.8l4.7,3.3c0.4,0.3,0.8,0.6,1.3,0.9l3.4,2.4l1.8,1.2
		c1.7,1.1,3.4,2.1,5.1,3.2c0.8,0.5,1.6,1,2.6,1.6c0.2,0.1,0.3,0.2,0.5,0.3l0,0l0,0c0.6,0.3,1.1,0.7,1.7,1c1.7,1,3.5,2.1,5.4,3.2
		c4,2.3,8.1,4.4,12.2,6.5c0.8,0.4,1.6,0.8,2.5,1.2s1.6,0.8,2.6,1.2c10.3,5,21,9.4,31.8,13.2c3.1,1,6.1,2,9.2,3
		c0.7,0.2,1.4,0.4,2.1,0.7c14.7,4.5,29.9,7.8,45,9.9c13.5,1.8,27.3,2.9,41.1,2.9c2.9,0,5.7-0.1,8.6-0.1c0.3,0,0.6,0,1,0
		c0.9,0,1.8,0,2.7-0.1c0.3,0,0.6,0,0.9,0c1.5-0.1,3.2-0.1,4.7-0.2c0.3,0,0.6,0,1-0.1c5.2-0.3,10.5-0.8,15.8-1.3
		c8.6-1,17.1-2.4,25.4-4c0.1,0,0.1,0,0.2,0c0.9-0.2,1.9-0.4,2.9-0.6c7-1.5,13.8-3.2,20.4-5.1c2.9-0.7,5.6-1.6,8.2-2.6
		c0.4-0.1,0.8-0.3,1.2-0.4c1.7-0.6,3.5-1.1,5.3-1.7h0.1c0.9-0.3,1.7-0.6,2.7-0.9l0.7-0.3c1-0.4,2-0.7,3-1.1l9.4-3.6l0.3-0.1
		c1.5-0.7,3.1-1.3,4.6-2l4.2-1.8c0.6-0.3,1.1-0.5,1.7-0.8l1.6-0.7c1.1-0.5,2.3-1,3.4-1.6c3.4-1.6,6.6-3.3,9.8-5l1.3-0.7l0.7-0.4
		c3.9-2.1,7.8-4.3,11.6-6.5l0.5-0.3c0.1-0.1,0.3-0.2,0.4-0.3c3.6-2.1,7.1-4.4,10.4-6.6l1.9-1.2l2.4-1.6c1.4-1,2.8-1.9,4.1-2.9
		c1.2-0.8,2.4-1.6,3.5-2.5c0.6-0.4,1.1-0.8,1.6-1.1c0.8-0.6,1.4-1.1,2-1.5c0.3-0.2,0.6-0.4,0.9-0.7c1.1-0.9,1.9-1.5,2.8-2.1l0,0
		l0.2,0.2l3.1-2.7h10.8l-4.5-5.4c0.2-0.1,0.3-0.3,0.5-0.4c0.6-0.5,1.4-1.2,2.4-2c1.2-1,2.6-2.1,3.7-3.2c0.3-0.3,0.6-0.5,0.9-0.8
		c0.7-0.6,1.5-1.3,2.3-2l3.4-3.3c14.4-13.7,27-28.4,38.5-45.1l5.4-8l5.4-8.8c1.6-2.6,3.2-5.3,4.6-8l0.9-1.6c0.4-0.8,0.9-1.6,1.3-2.5
		c1.3-2.5,2.8-4.9,4-7.7c7.2-14.2,13.4-29.8,18.4-46.2c5.4-18,9.2-36.7,11.3-55.4C596.6,316.4,597,301.5,596.4,286.9z M473.8,525.6
		c-0.5,0.4-1,0.8-1.5,1.2c-1.1,0.9-2.4,1.8-3.9,2.9l-0.1,0.1c-1.1,0.8-2.3,1.6-3.5,2.5c-1.3,0.9-2.7,1.8-4.1,2.9l-1.9,1.4l-7.2,4.6
		c-0.6,0.4-1.2,0.8-1.8,1.1c-1.1,0.7-2.3,1.4-3.5,2.1l-12.1,7l-6.8,3.4c-0.8,0.4-1.7,0.8-2.6,1.3c-1.5,0.8-3,1.5-4.5,2.3l-11.8,5.2
		l-12.8,4.9c-14.3,4.9-26.7,8.4-39.1,10.9c-15.2,3.1-30.7,4.9-45.8,5.5c-17,0.7-34.3-0.1-51.2-2.5c-18.3-2.6-36.5-7-54-13
		c-18.7-6.5-36.8-15-53.9-25.4c-36.8-22.2-68.4-52.9-91.7-88.8l-4.6-7.2c-0.9-1.4-1.7-3-2.7-4.6c-0.5-0.8-1-1.7-1.5-2.6
		c-0.5-0.9-1-1.7-1.5-2.7c-0.9-1.6-1.7-3.1-2.6-4.6l-5.8-11.5l-5.2-11.8c-0.7-1.6-1.3-3.3-2-5c-0.4-1-0.7-1.9-1.1-2.9l-2.4-6
		l-0.6-1.8c-0.5-1.5-1-3.2-1.5-4.7c-1.3-4.1-2.7-7.9-3.7-11.8l-2.4-8.5L19.7,357c-0.2-0.8-0.3-1.7-0.5-2.6c-0.1-0.5-0.2-1.1-0.3-1.5
		l-1.5-8.8c-0.3-1.7-0.5-3.6-0.7-5.5c-0.1-1-0.2-2-0.4-3.1c-0.1-0.9-0.2-1.8-0.3-2.8c-0.3-1.9-0.5-3.9-0.6-5.7l-0.8-11.2l-0.2-6.5
		c0-1.1,0-2.1,0-3.3c-0.1-1.9,0-3.8,0-5.5l0.4-9v-0.1c0-2.4-0.1-4.7,0.1-7.3l-0.1-1.3c0.1-1,0.1-2,0.2-3.2c0.1-1.9,0.2-3.9,0.4-5.7
		l1-8.9c0.1-0.5,0.1-1,0.2-1.6c0.1-0.9,0.2-1.8,0.3-2.8l2.1-13.2l2.8-13.1c0.2-0.9,0.4-1.7,0.7-2.7l2.7-10.2
		c3.1-10.1,6.9-22,12-33.6l0.1-0.2c1.7-4.4,3.8-8.5,5.9-13c0.5-1,1-2.1,1.5-3.2l0.9-1.9l5.7-10.5c0.6-1,1.1-2,1.7-3
		c0.9-1.4,1.8-3,2.8-4.4c2.3-3.8,4.4-7.3,6.9-10.6l5.1-7.5l5.4-7.2c13.8-18.2,30.6-35.1,49.7-50.2c9.8-8,20.5-14.8,28.6-19.9
		c1.6-0.9,3.3-1.9,4.9-2.9c0.9-0.5,1.7-1,2.6-1.4c0.8-0.5,1.6-0.9,2.6-1.4c1.7-1,3.3-1.9,5-2.8c1.3-0.7,2.7-1.3,4.1-2
		c3.9-2,7.7-3.9,11.5-5.5l0.1-0.1c21.3-9.6,43.1-16.4,64.8-20.4c17.6-3.3,35.3-4.9,52.7-4.9c4.3,0,8.6,0.1,12.8,0.3
		c21,1,41.9,4.3,62.1,9.8c19.2,5.2,38,12.5,55.5,21.5c16.7,8.6,32.3,18.7,46.8,30.2c13.2,10.5,25.6,22.4,37,35.4
		c10.8,12.4,20.1,24.8,27.6,37c7.8,12.5,14.2,24.6,19,35.8l0.1,0.2c2,4.3,3.7,8.8,5.3,13c0.5,1.2,0.9,2.5,1.4,3.7l0.4,1l4.8,14.5
		c0.4,1.6,0.9,3.3,1.3,4.9c0.9,3.3,1.7,6.3,2.6,9.3l2.9,12.8l1.9,11.3c0.3,1.5,0.5,3.1,0.7,4.6l0.5,4.5c0.1,1,0.2,1.9,0.4,2.9
		c0.2,1.6,0.4,3.2,0.5,4.3l0.3,3.7l-19.2,1.2l-0.2-2.9c-0.1-1.3-0.3-2.8-0.5-4.3c-0.1-0.8-0.2-1.7-0.3-2.7l-0.5-4
		c-0.2-1.4-0.4-3.1-0.7-4.8l-1.7-10l-2.7-11.9V236c-0.6-2.7-1.4-5.2-2.1-8c-0.5-1.6-0.9-3.4-1.4-5.1l-4-12l-1-2.9
		c-0.5-1.2-0.9-2.4-1.4-3.6c-1.4-3.9-3-7.8-4.9-11.9c-4.5-10.4-10.4-21.7-17.7-33.4c-7-11.4-15.7-22.9-25.8-34.6
		c-10.6-12.1-22.2-23.2-34.5-32.9c-13.4-10.6-28-20.2-43.6-28.1c-16.4-8.4-33.8-15.1-51.8-20.1c-18.8-5.1-38.3-8.2-57.9-9.1
		c-19.9-0.9-40.6,0.5-61,4.3c-20.1,3.6-40.4,9.9-60.3,18.9c-3.7,1.5-7.2,3.3-10.5,5c-1.2,0.6-2.6,1.3-3.8,1.9
		c-1.8,0.8-3.5,1.8-5.1,2.8c-0.7,0.4-1.4,0.8-2.1,1.2l-0.1,0.1c-0.8,0.5-1.6,0.9-2.5,1.4c-1.5,0.8-3,1.7-4.5,2.6l-0.1,0.1
		c-8.2,5.2-17.8,11.5-26.7,18.6c-18.3,14-34,29.8-46.9,46.8l-4.9,6.4l-4.7,6.9c-2.4,3.3-4.4,6.5-6.3,9.8c-0.8,1.4-1.6,2.8-2.5,4.1
		c-0.7,1.1-1.3,2.3-1.8,3.3l-5.2,9.5l-1,2.1c-0.5,1.1-1,2.1-1.6,3.3c-1.8,3.8-3.8,7.7-5.3,11.8c-4.7,10.5-8.1,21.2-11.2,31.2
		l-2.5,9.5c-0.2,0.9-0.5,1.7-0.7,2.7l-0.9,4.2l-1.5,8.1l-1.1,8.3l-0.6,3.9c-0.1,0.4-0.1,0.9-0.2,1.3c-0.2,0.9-0.3,1.8-0.5,2.9l-1,8
		v0.2c-0.2,2.1-0.3,4.3-0.5,6.4l-0.2,3.5c-0.2,2.1-0.3,4.4-0.3,6.6l-0.2,8c0,1.9,0,3.8,0.1,5.5c0,0.9,0.1,1.8,0.1,2.9l0.2,6
		l0.8,10.2c0.1,2,0.4,4,0.6,5.8c0.1,0.8,0.2,1.6,0.3,2.5v0.1c0.1,0.9,0.2,1.8,0.3,2.8c0.2,1.7,0.4,3.5,0.7,5.3l1.4,7.9
		c0.1,0.4,0.2,0.9,0.2,1.3c0.2,0.9,0.3,1.8,0.5,2.9l2.7,11.6l2.1,7.9c0.9,3.8,2.1,7.4,3.4,10.9c0.5,1.4,1,3,1.4,4.5l0.6,1.8l2.3,5.8
		c0.3,0.8,0.6,1.7,1,2.6c0.6,1.6,1.2,3.3,1.9,4.9l4.7,10.6l5.3,10.6c0.8,1.6,1.7,3.2,2.6,4.6c0.4,0.7,0.9,1.5,1.3,2.4l0.1,0.1
		c0.4,0.8,0.9,1.5,1.3,2.4c0.8,1.4,1.6,3,2.7,4.5l4.1,6.4c11.4,17.4,24.5,33.4,39,47.2c14.1,13.6,29.8,25.6,46.4,35.6
		c30.6,18.5,65.4,30.9,100.7,35.8c12.1,1.6,24.3,2.6,36.6,2.6c17.9,0,36-1.8,53.8-5.3c11.5-2.4,23-5.5,36.4-10.1l11.9-4.6l10.9-4.8
		c1.6-0.7,3.2-1.5,4.6-2.3c0.7-0.4,1.4-0.7,2.3-1.1l6.1-3.2l11.3-6.4l0.2-0.1c1.1-0.7,2.1-1.3,3.2-2c0.6-0.4,1.1-0.7,1.7-1.1
		l6.3-4.1l9.3-6.6c1.6-1.1,3.1-2.3,4.2-3.2c0.4-0.4,0.9-0.7,1.3-1l12.4,14.8C474.6,525.1,474.2,525.3,473.8,525.6z M551.5,326.8
		c-1.7,16-4.9,31.9-9.6,47.4c-4.3,14.1-9.5,27.3-15.7,39.4l-0.1,0.2c-0.9,2-1.9,3.9-3.1,5.9c-0.4,0.8-0.9,1.6-1.3,2.4l-0.8,1.5
		c-1.2,2.3-2.4,4.4-3.6,6.3l-4.7,7.7l-2.4,3.4c-0.8,1.2-1.6,2.5-2.5,3.6c-9.7,14.1-20.5,26.7-32.8,38.5l-3.2,3.1
		c-0.4,0.4-1.1,1-1.6,1.5c-0.4,0.4-0.8,0.7-1.1,0.9c-0.9,0.8-1.9,1.7-2.9,2.5c-0.8,0.7-1.5,1.3-2,1.7c-1.4,1.3-3,2.6-3.8,3.3
		c-0.7,0.5-1.5,1.1-2.6,1.9c-0.4,0.3-0.7,0.6-0.9,0.8c-0.4,0.3-0.8,0.6-1.6,1.3c-0.5,0.4-1,0.8-1.5,1.2c-0.3,0.2-0.6,0.5-0.9,0.7
		c-0.4,0.3-0.8,0.6-1.1,0.9c-0.4,0.3-0.9,0.7-1.4,1l-2.5,1.7c-2.9,2-5.7,4-8.6,5.9l-4.3,2.8c-0.6,0.4-1.1,0.7-1.7,1.1
		c-0.7,0.4-1.4,0.9-2.1,1.3c-0.6,0.4-1.2,0.7-1.8,1.1l-8.6,4.9c-1,0.6-2.1,1.1-3.2,1.7l-4,2c-0.7,0.4-1.5,0.7-2.3,1.1
		c-2.4,1.1-4.6,2.3-7,3.3l-7.1,3.1l-11.2,4.3c-1.5,0.6-3.2,1.1-4.8,1.6l-1.6,0.5c-0.5,0.1-0.9,0.3-1.4,0.5c-8.9,2.9-17,5-24.9,6.8
		c-1,0.2-2,0.4-3.1,0.6c-6.3,1.2-12.7,2.3-19,3.1l0,0c-1.8,0.2-3.6,0.4-5.4,0.6c-0.7,0.1-1.3,0.1-2,0.2c-1.4,0.1-2.9,0.3-4.3,0.4
		c-1,0.1-2,0.2-3.2,0.2c-1.1,0.1-2.1,0.1-3.3,0.2c-1.8,0.1-3.8,0.2-5.6,0.2c-0.3,0-0.6,0-0.8,0c-2.4,0.1-4.8,0.1-7.2,0.1
		c-6.3,0-12.8-0.2-19.1-0.7c-13.5-1-26.8-3.1-39.6-6c-0.2,0-0.3-0.1-0.5-0.1c-1.5-0.4-3.1-0.7-4.5-1.1c-0.7-0.2-1.5-0.4-2.3-0.6
		c-1.1-0.3-2.3-0.6-3.4-0.9c-1-0.3-1.9-0.5-3-0.8c-11.4-3.4-22.6-7.6-33.5-12.6c-0.1,0-0.1-0.1-0.2-0.1c-2-0.9-4-1.8-5.9-2.9
		c-0.3-0.2-0.6-0.3-0.9-0.5c-1.5-0.7-3.1-1.5-4.5-2.3c-0.8-0.4-1.6-0.8-2.4-1.2c-0.6-0.3-1.2-0.6-1.7-0.9c-3.3-1.8-6.6-3.7-9.8-5.6
		l0,0c-13.8-8.4-26.9-18.1-39-29.1l-4.9-4.6l-0.1-0.1l0,0c-0.1-0.1-0.3-0.3-0.4-0.4c-1-1-2-2-3.2-3.1c-0.2-0.2-0.4-0.4-0.6-0.7
		c-0.4-0.4-0.8-0.9-1.2-1.3c-0.7-0.7-1.4-1.5-2.3-2.3c-1-1.1-2.1-2.1-3.2-3.3c-0.3-0.4-0.6-0.7-1-1.1l-6.5-7.5
		c-0.5-0.5-0.9-1.1-1.4-1.6c-0.3-0.4-0.7-0.9-1-1.3s-0.6-0.8-0.9-1.2l-4.1-5.1c-1-1.3-2-2.8-3.1-4.1c-0.3-0.5-0.7-0.9-1-1.4
		c-0.6-0.9-1.2-1.7-1.9-2.7c0,0,0,0,0-0.1c-1.8-2.7-3.7-5.3-5.5-8.1l-1.3-2.1c-0.7-1.2-1.5-2.5-2.4-3.6c-3.3-5.5-6.1-10.4-8.6-15.1
		l-3.7-7.3c-0.5-1.1-1.1-2.3-1.6-3.4l-1.6-3.8c-0.1-0.2-0.2-0.3-0.2-0.5l-0.1-0.2c0-0.1-0.1-0.2-0.1-0.2l-1.4-3.2
		c-0.6-1.4-1.2-2.9-1.7-4.3c-0.1-0.2-0.1-0.4-0.2-0.6c-0.3-0.9-0.7-1.8-1-2.7v-0.1c0,0,0,0,0-0.1c-0.6-1.6-1.2-3.2-1.8-4.8
		c-0.6-1.6-1.1-3.4-1.7-5c0-0.1-0.1-0.2-0.1-0.4c-0.1-0.4-0.3-0.8-0.4-1.2c0-0.1-0.1-0.3-0.1-0.4c-0.1-0.4-0.3-0.8-0.4-1.2l-0.6-1.7
		c-0.4-1.2-0.7-2.4-1.1-3.6l-0.8-3c-0.1-0.3-0.2-0.7-0.3-1l-0.9-3.4c-0.6-2.1-1.1-4.3-1.6-6.5l-1.4-6.1c-0.3-1.5-0.6-3.2-0.9-4.7
		c-0.1-0.3-0.1-0.6-0.2-0.9l-1-5.8c-0.3-1.9-0.6-3.8-0.9-5.7c0-0.3-0.1-0.6-0.1-1c-0.1-0.9-0.2-1.9-0.4-2.9
		c-0.1-0.5-0.1-1.1-0.2-1.6c-1.1-9.9-1.7-20.1-1.7-30.2l0.2-9.1c0.1-1.7,0.2-3.5,0.3-5.4c0-0.2,0.1-0.3,0.1-0.5l0.1-1.7
		c0.1-2,0.3-4.1,0.5-6.1l1-8c0.1-0.7,0.2-1.4,0.4-2.1c0.1-0.5,0.2-1,0.3-1.5l0.6-4l1.1-8.1l1.4-7.8l0.9-4.1c0.2-0.7,0.3-1.3,0.5-2
		c0.1-0.5,0.3-1,0.4-1.4l1.2-4.6l0.3-1.2c0.2-0.6,0.3-1.3,0.5-1.9c1.4-4.8,3.1-9.8,4.8-14.8c0.2-0.5,0.4-1,0.6-1.6
		c0.4-1.1,0.8-2.3,1.2-3.3c0.2-0.5,0.4-1.1,0.6-1.6c0.2-0.4,0.3-0.9,0.5-1.3c0.4-0.9,0.7-1.8,1.1-2.8l1.6-3.9
		c0.1-0.1,0.1-0.3,0.2-0.4l0.1-0.2v-0.1l1.1-2.7c0.1-0.2,0.2-0.5,0.3-0.7c0.7-1.5,1.4-3.2,2.1-4.7l0.4-0.9c0.3-0.6,0.6-1.3,0.9-1.9
		c0.5-1.1,1.1-2.3,1.6-3.4l0.4-0.8c0.4-0.8,0.8-1.5,1.2-2.4l1.1-2c0.1-0.2,0.3-0.5,0.4-0.7c0.6-1,1.1-2,1.6-3.1
		c0.3-0.5,0.6-1,0.8-1.5c0.4-0.7,0.8-1.4,1.2-2.3c0.2-0.3,0.4-0.6,0.6-1c0.9-1.4,1.7-2.9,2.7-4.3c0.2-0.3,0.3-0.5,0.5-0.8l1.3-2.3
		l0,0c0.6-1,1.3-2,1.9-3.1c0.1-0.2,0.2-0.3,0.3-0.5l1.5-2.3c0-0.1,0.1-0.1,0.1-0.2l4-5.8c0.4-0.6,0.9-1.3,1.4-1.9l1-1.3
		c0.3-0.4,0.5-0.7,0.8-1.1c0.7-0.9,1.4-1.8,2.1-2.8l0.1-0.1c1.3-1.7,2.8-3.6,4.2-5.3l4.6-5.4c0.3-0.4,0.6-0.8,0.9-1.1
		c0.1-0.1,0.2-0.2,0.3-0.4c0.6-0.6,1.1-1.3,1.7-1.9l6.4-6.9c0,0,0,0,0.1-0.1c1-1.1,2.1-2.1,3.2-3.2l4.9-4.8
		c5.6-5.3,11.7-10.5,17.9-15.4c2-1.6,4.2-3.3,6.3-4.9l5.6-4c2.5-1.7,4.9-3.4,7.4-4.9l5.5-3.6l0.1-0.1c0.2-0.1,0.4-0.3,0.7-0.4
		c1.3-0.8,2.7-1.5,4-2.3c0.8-0.5,1.7-0.9,2.6-1.4c0.8-0.4,1.5-0.8,2.3-1.3c1.3-0.7,2.6-1.4,3.8-2l2.7-1.3c0.2-0.1,0.4-0.2,0.7-0.3
		c0.4-0.2,0.8-0.4,1.2-0.6c0.2-0.1,0.3-0.2,0.5-0.2c0.3-0.1,0.5-0.3,0.8-0.4c0.5-0.2,0.9-0.5,1.3-0.7c0.7-0.3,1.4-0.7,2-1
		c0.2-0.1,0.3-0.2,0.5-0.2c0.5-0.2,1-0.5,1.4-0.7l2.9-1.2c0.1,0,0.1,0,0.2-0.1l0.2-0.1c7.1-3.2,14.2-6,21.4-8.5
		c0.3-0.1,0.7-0.2,1-0.3c1.1-0.4,2.3-0.7,3.4-1.1c0.8-0.3,1.5-0.5,2.4-0.8c1.2-0.4,2.5-0.8,3.8-1.1l8.5-2.4h0.1
		c0.4-0.1,0.7-0.2,1.1-0.3c0.4-0.1,0.9-0.2,1.3-0.3c0.6-0.1,1.1-0.3,1.7-0.4l7.5-1.6c1.7-0.4,3.6-0.7,5.3-1c0.1,0,0.2,0,0.4-0.1
		c11.7-2.1,23.3-3.5,34.9-4l2-0.1c1.1,0,2.4-0.1,3.5-0.1c0.7,0,1.3,0,1.9-0.1c1.2,0,2.5,0,3.7,0l7.2,0.1h2.1c0.8,0,1.6,0,2.6,0.1
		c0.5,0,1,0.1,1.5,0.1l6.8,0.4c16,1.3,31.7,4,47.1,8.2c2,0.5,4,1.1,6,1.7c0.3,0.1,0.5,0.2,0.8,0.2c1.9,0.6,3.9,1.2,5.8,1.8h0.1
		c1.7,0.6,3.6,1.2,5.3,1.8c0.7,0.2,1.4,0.5,2.1,0.7c1,0.3,1.9,0.7,3,1.1c7.7,2.9,15,6.1,22.3,9.7l3.9,1.8l3.8,2c1,0.5,1.9,1.1,3,1.6
		c1.5,0.8,3.2,1.7,4.7,2.6c1.4,0.9,3,1.8,4.4,2.7c3.6,2.1,7,4.2,10.1,6.4l0.2,0.1c8,5.2,16.1,11.5,26,20.2c0.4,0.4,0.9,0.8,1.3,1.2
		c0.8,0.8,1.7,1.6,2.6,2.4c1,0.9,1.9,1.8,3,2.8c2.4,2.3,4.7,4.6,7.1,7.1c0.3,0.3,0.5,0.5,0.8,0.8c2.7,2.8,5.2,5.5,7.7,8.4
		c3.2,3.6,6.1,7.2,8.9,10.7l1.4,1.8c0.9,1.2,1.9,2.5,2.9,3.7c0.6,0.8,1.2,1.6,1.8,2.6c0.6,0.8,1.2,1.7,1.8,2.6
		c0.4,0.5,0.7,1,1.1,1.5c0.5,0.7,1,1.4,1.5,2.1c0.5,0.8,1.1,1.6,1.6,2.5c0.1,0.1,0.1,0.2,0.2,0.3l3.2,4.9c0.1,0.1,0.1,0.2,0.2,0.3
		c1.7,2.8,3.4,5.4,4.9,8.2l0.2,0.4c0.1,0.1,0.2,0.3,0.2,0.4c1.5,2.7,3,5.2,4.3,7.8l2.9,5.7c0.2,0.4,0.4,0.9,0.7,1.3
		c0.1,0.2,0.2,0.4,0.3,0.6c0.6,1.1,1.1,2.4,1.6,3.5l1,2.4c0.2,0.5,0.5,1.1,0.7,1.6l0.1,0.2c0.1,0.1,0.1,0.2,0.2,0.4l1.3,3
		c0.7,1.5,1.3,3.2,1.9,4.7c0.1,0.3,0.2,0.5,0.3,0.8c0.3,0.9,0.7,1.7,1,2.7c0,0.1,0.1,0.2,0.1,0.3c0.3,0.8,0.6,1.7,1,2.6
		c0.4,1.1,0.9,2.3,1.2,3.4l2.6,7.9c2.1,6.9,4,13.8,5.6,20.8l0.1,0.6c1,4.5,1.8,9,2.7,13.5l0.1,0.6c0.3,2,0.6,4.1,0.9,6.1l0.4,3.4
		c0.1,0.9,0.2,1.8,0.3,2.8c0.1,0.6,0.2,1.2,0.2,1.7c0,0.1,0,0.2,0,0.3c0.1,1,0.2,2,0.3,3.1l0.7,8.8
		C553.2,298.7,552.9,312.6,551.5,326.8z M582.8,330c-1.9,18-5.5,35.9-10.7,53.2c-4.8,15.8-10.7,30.7-17.6,44.3l-0.1,0.2
		c-1.1,2.4-2.4,4.7-3.6,7c-0.5,0.8-0.9,1.6-1.3,2.5l-0.8,1.6c-1.4,2.6-2.8,5-4.2,7.3l-5.3,8.6l-5.3,7.8c-10.9,16-23,30.1-36.8,43.2
		l-3.4,3.3c-0.5,0.5-1.1,1-1.7,1.6c-0.4,0.3-0.7,0.6-1,0.9c-1,0.9-2.4,2-3.6,3.1c-0.9,0.8-1.8,1.6-2.5,2.1c-0.1,0.1-0.2,0.2-0.3,0.2
		L472.2,502c0,0,0,0,0.1-0.1c0.5-0.4,1.2-1,1.9-1.7c0.9-0.8,1.9-1.7,3-2.6c0.3-0.2,0.6-0.5,0.9-0.8c0.7-0.6,1.5-1.3,2.3-2l3.1-3
		c13-12.3,24.2-25.5,34.5-40.4c0.8-1.1,1.6-2.4,2.5-3.6l2.5-3.6l4.8-7.9c1.4-2.3,2.8-4.7,4.1-7.1l0.8-1.5c0.4-0.7,0.8-1.5,1.2-2.3
		c1.1-2.1,2.4-4.3,3.5-6.8c6.4-12.7,12-26.6,16.4-41.3c4.9-16.2,8.3-32.8,10-49.6c1.3-13.2,1.7-26.3,1.2-39.1l19.2-1.2
		C584.7,301.6,584.3,315.8,582.8,330z"/>
	<path fill="#EAACAC" d="M461.2,511.1c-1.2,1-2.6,2-4.2,3.2l-9.3,6.6l-6.3,4.1c-0.6,0.4-1.1,0.7-1.7,1.1c-1,0.7-2.1,1.3-3.2,2
		l-0.2,0.1l-11.3,6.4l-6.1,3.2c-0.8,0.4-1.5,0.7-2.3,1.1c-1.4,0.7-3,1.5-4.6,2.3l-10.9,4.8l-11.9,4.6c-13.4,4.6-25,7.9-36.4,10.1
		c-17.8,3.6-35.9,5.3-53.8,5.3c-12.3,0-24.6-0.8-36.6-2.6c-35.3-4.9-70.1-17.3-100.7-35.8c-16.7-10.1-32.3-22.1-46.4-35.6
		c-14.5-13.9-27.7-29.8-39-47.2l-4.1-6.4c-1-1.5-1.8-3.1-2.7-4.5c-0.4-0.8-0.9-1.5-1.3-2.4l-0.1-0.1c-0.4-0.8-0.9-1.5-1.3-2.4
		c-0.8-1.4-1.7-3-2.6-4.6L58.8,414l-4.7-10.6c-0.7-1.7-1.3-3.4-1.9-4.9c-0.3-0.8-0.6-1.7-1-2.6l-2.3-5.8l-0.6-1.8
		c-0.5-1.5-1-3-1.4-4.5c-1.2-3.5-2.4-7.2-3.4-10.9l-2.1-7.9l-2.7-11.6c-0.2-1-0.4-1.9-0.5-2.9c-0.1-0.4-0.1-0.9-0.2-1.3l-1.4-7.9
		c-0.3-1.8-0.5-3.7-0.7-5.3c-0.1-0.9-0.2-1.8-0.3-2.8v-0.1c-0.1-0.8-0.2-1.6-0.3-2.5c-0.2-1.8-0.5-3.8-0.6-5.8l-0.8-10.2l-0.2-6
		c0-1,0-1.9-0.1-2.9c-0.1-1.7-0.1-3.6-0.1-5.5l0.2-8c0-2.4,0.2-4.5,0.3-6.6l0.2-3.5c0.1-2.1,0.3-4.3,0.5-6.4v-0.2l1-8
		c0.1-1,0.3-1.9,0.5-2.9c0.1-0.4,0.2-0.9,0.2-1.3l0.6-3.9l1.1-8.3l1.5-8.1l0.9-4.2c0.2-0.9,0.4-1.7,0.7-2.7l2.5-9.5
		c3.1-10,6.4-20.7,11.2-31.2c1.6-4.1,3.5-8,5.3-11.8c0.5-1.1,1-2.1,1.6-3.3l1-2.1l5.2-9.5c0.6-1,1.1-2.1,1.8-3.3
		c0.8-1.3,1.6-2.7,2.5-4.1c1.9-3.3,4-6.5,6.3-9.8l4.7-6.9l4.9-6.4c12.9-17,28.4-32.7,46.3-46.9c8.9-7.2,18.5-13.5,26.7-18.6l0.1-0.1
		c1.4-0.9,3-1.7,4.5-2.6c0.8-0.5,1.6-0.9,2.5-1.4l0.1-0.1c0.7-0.4,1.4-0.8,2.1-1.2c1.6-0.9,3.3-1.8,5.1-2.8c1.2-0.6,2.6-1.3,3.8-1.9
		c3.4-1.7,6.9-3.5,10.5-5c19.9-8.9,40.2-15.2,60.3-18.9c20.4-3.8,41-5.2,61-4.3c19.6,0.9,39.1,4,57.9,9.1
		c17.9,4.9,35.4,11.6,51.8,20.1c15.5,8,30.2,17.5,43.6,28.1c12.3,9.8,23.8,20.9,34.5,32.9c10.1,11.7,18.8,23.2,25.8,34.6
		c7.3,11.7,13.2,22.9,17.7,33.4c1.9,4.1,3.5,8.1,4.9,11.9c0.5,1.2,0.9,2.5,1.4,3.6l1,2.9l4,12c0.5,1.7,0.9,3.4,1.4,5.1
		c0.8,2.8,1.5,5.4,2.1,8v0.2l2.7,11.9l1.7,10c0.3,1.7,0.5,3.4,0.7,4.8l0.5,4c0.1,0.9,0.2,1.8,0.3,2.7c0.2,1.5,0.4,2.9,0.5,4.3
		l0.2,2.9l19.2-1.2l-0.3-3.7c-0.1-1.2-0.3-2.8-0.5-4.3c-0.1-0.9-0.2-1.8-0.4-2.9l-0.5-4.5c-0.2-1.4-0.4-3-0.7-4.6l-1.9-11.3
		l-2.9-12.8c-0.7-3-1.6-6-2.6-9.3c-0.4-1.6-0.9-3.2-1.3-4.9l-4.8-14.5l-0.4-1c-0.5-1.2-0.9-2.5-1.4-3.7c-1.6-4.3-3.4-8.7-5.3-13
		l-0.1-0.2c-4.8-11.3-11.3-23.3-19-35.8c-7.5-12.2-16.8-24.7-27.6-37c-11.4-13-23.8-24.9-37-35.4c-14.3-11.5-30.1-21.6-46.8-30.2
		c-17.6-9-36.2-16.3-55.5-21.5c-20.2-5.4-41-8.8-62.1-9.8c-4.2-0.2-8.5-0.3-12.8-0.3c-17.4,0-35.1,1.6-52.7,4.9
		c-21.6,3.9-43.4,10.7-64.8,20.4l-0.1,0.1c-3.8,1.6-7.6,3.5-11.5,5.5c-1.3,0.7-2.7,1.3-4.1,2c-1.7,0.8-3.3,1.7-5,2.8
		c-0.8,0.5-1.6,0.9-2.6,1.4c-0.8,0.4-1.6,0.9-2.6,1.4c-1.6,0.9-3.3,1.8-4.9,2.9c-8.2,5.1-18.8,12.1-28.6,19.9
		c-19.1,15.1-35.8,32-49.7,50.2l-5.4,7.2l-5.1,7.5c-2.4,3.4-4.5,6.9-6.9,10.6c-0.9,1.5-1.8,3-2.8,4.4c-0.6,0.9-1.1,1.9-1.7,3
		l-5.7,10.5l-0.9,1.9c-0.5,1-1,2.1-1.5,3.2c-2.1,4.4-4.2,8.6-5.9,13l-0.1,0.2c-5.1,11.6-8.9,23.4-12,33.6L22,231.6
		c-0.2,0.9-0.5,1.7-0.7,2.7l-2.8,13.1l-2.1,13.2c-0.1,0.9-0.2,1.8-0.3,2.8c-0.1,0.5-0.1,1-0.2,1.6l-1,8.9c-0.2,1.8-0.3,3.8-0.4,5.7
		c-0.1,1-0.1,2-0.2,3.2l0.1,1.3c-0.2,2.6-0.1,4.9-0.1,7.3v0.1l-0.4,9c0,1.8-0.1,3.6,0,5.5c0,1.1,0,2.1,0,3.3l0.2,6.5l0.8,11.2
		c0.1,1.8,0.3,3.7,0.6,5.7c0.1,0.9,0.2,1.8,0.3,2.8c0.1,1,0.3,2,0.4,3.1c0.2,1.9,0.4,3.8,0.7,5.5l1.5,8.8c0.1,0.5,0.2,1,0.3,1.5
		c0.1,0.8,0.3,1.7,0.5,2.6l2.9,12.8l2.4,8.5c1,3.9,2.3,7.8,3.7,11.8c0.5,1.5,1,3.2,1.5,4.7l0.6,1.8l2.4,6c0.4,0.9,0.7,1.8,1.1,2.9
		c0.7,1.7,1.3,3.5,2,5l5.2,11.8l5.8,11.5c0.8,1.5,1.6,3.1,2.6,4.6c0.5,0.9,1,1.7,1.5,2.7c0.5,0.8,1,1.7,1.5,2.6
		c0.9,1.6,1.7,3.2,2.7,4.6l4.6,7.2c23.1,35.8,54.8,66.5,91.7,88.8c17,10.3,35.1,18.8,53.9,25.4c17.5,6.1,35.7,10.4,54,13
		c16.8,2.4,34.1,3.2,51.2,2.5c15.1-0.6,30.6-2.5,45.8-5.5c12.4-2.6,24.8-6,39.1-10.9l12.8-4.9l11.8-5.2c1.5-0.7,3-1.4,4.5-2.3
		c0.9-0.4,1.7-0.9,2.6-1.3l6.8-3.4l12.1-7c1.2-0.7,2.4-1.4,3.5-2.1c0.6-0.4,1.2-0.8,1.8-1.1l7.2-4.6l1.9-1.4c1.4-1,2.8-2,4.1-2.9
		c1.2-0.9,2.4-1.7,3.5-2.5l0.1-0.1c1.5-1,2.7-1.9,3.9-2.9c0.5-0.4,1-0.8,1.5-1.2c0.4-0.3,0.7-0.6,1-0.8L462,509.9
		C462.1,510.4,461.6,510.8,461.2,511.1z"/>
</g>
<g>
	<g>
		<path fill="#020202" d="M473.8,226.5c0,0-0.6-1.4-1.5-3.5c-0.5-1-1.1-2.5-1.8-4c-0.6-1.5-1.5-3.3-2.6-5.2
			c-3.9-7.8-10.2-19-20.5-31.7c-1.3-1.5-2.6-3.3-4-4.9c-1.4-1.6-2.9-3.3-4.4-4.9c-1.4-1.7-3.1-3.3-4.8-5c-1.6-1.6-3.3-3.5-5.1-5
			c-7.1-6.8-15.4-13.4-24.9-19.7c-18.8-12.6-42.6-23.4-70.1-28.5c-13.7-2.6-28.3-3.7-43.3-3.1c-1.8,0-3.8,0.2-5.6,0.3
			c-1.8,0.2-3.8,0.3-5.7,0.4c-1.9,0.2-3.8,0.5-5.7,0.7l-2.9,0.4l-2.9,0.5c-1.9,0.3-3.8,0.7-5.7,1s-3.8,0.8-5.7,1.3l-2.9,0.6
			l-1.4,0.3l-1.4,0.4c-1.9,0.5-3.8,1.1-5.7,1.6c-1.9,0.5-3.8,1.2-5.7,1.8c-1.9,0.6-3.8,1.3-5.7,1.9c-1.8,0.7-3.8,1.5-5.6,2.3
			l-2.9,1.1c-0.9,0.4-1.8,0.8-2.8,1.2c-1.8,0.8-3.8,1.7-5.6,2.6c-1.8,0.9-3.7,1.8-5.5,2.9c-3.8,1.8-7.3,4-10.9,6.1
			c-7.1,4.5-14.1,9.2-20.8,14.7c-3.4,2.7-6.5,5.6-9.7,8.5c-1.5,1.5-3.1,3.1-4.6,4.5l-2.4,2.3l-2.3,2.5c-12,12.7-22.2,27.4-30.3,43.4
			c-1,2-1.9,4-3,6c-0.9,2-1.8,4.1-2.7,6.2c-0.4,1-0.9,2-1.3,3.1l-1.2,3.2c-0.7,2.1-1.6,4.2-2.4,6.3c-3,8.6-5.1,17.5-7,26.5
			c-1.7,9-2.7,18.2-3.1,27.4l-0.1,7c0,2.4,0.1,4.6,0.1,7c0,1.1,0,2.4,0.1,3.5l0.3,3.5l0.3,3.5c0.1,1.1,0.2,2.4,0.3,3.5l0.9,6.9
			c0.3,2.3,0.8,4.6,1.1,6.9l0.6,3.4l0.8,3.4c0.5,2.3,1,4.5,1.6,6.8c2.4,9,5.5,17.8,9,26.4c3.8,8.5,8,16.9,12.8,24.8
			c1.2,2,2.6,3.9,3.8,5.8l1.9,2.9l2,2.8c1.4,1.8,2.7,3.8,4.1,5.6l4.4,5.4c0.7,0.9,1.4,1.7,2.3,2.7l2.4,2.6l2.4,2.6
			c0.8,0.8,1.6,1.6,2.5,2.5c1.6,1.6,3.2,3.3,4.9,4.9l5.1,4.7c7,6,14.2,11.8,21.9,16.8c7.7,4.9,15.7,9.5,23.8,13.3
			c2,1,4.2,1.8,6.2,2.8l3.1,1.3c1,0.4,2.1,0.8,3.2,1.2c2.1,0.8,4.2,1.6,6.3,2.4c2.1,0.7,4.3,1.3,6.4,2c17.2,5.2,34.9,8,52.3,8.2
			l3.3,0.1l3.3-0.1c2.1-0.1,4.3-0.1,6.4-0.2c4.3-0.4,8.6-0.5,12.9-1.2c8.5-0.9,16.8-2.8,25-4.8c4-1.1,8.1-2.1,12-3.6
			c1.9-0.7,4-1.3,5.8-2c1.9-0.7,3.8-1.5,5.7-2.3c0.9-0.4,1.9-0.7,2.9-1.1l2.8-1.2c1.8-0.8,3.7-1.7,5.5-2.6c1.8-0.9,3.6-1.8,5.4-2.8
			c1.7-0.9,3.6-1.8,5.3-2.9s3.5-2,5.1-3l1.3-0.7l1.2-0.8l2.5-1.6c1.6-1.1,3.3-2.1,4.9-3.3c1.5-1.1,3.2-2.3,4.7-3.5l2.4-1.7l2.3-1.8
			c1.5-1.2,3-2.5,4.5-3.6c1.4-1.2,2.9-2.6,4.3-3.8c1.4-1.3,2.9-2.5,4.2-3.8c10.8-10.4,20.1-21.7,27.7-33.5
			c15.2-23.4,23.9-48.1,27.9-70.4c2-11.2,3-21.8,3-31.6c0.1-2.5,0-4.8-0.1-7.2s-0.1-4.6-0.3-6.9c-0.2-2.3-0.3-4.4-0.5-6.5
			c-0.3-2.1-0.5-4.2-0.8-6.2c-2.1-16.2-5.8-28.4-8.7-36.7c-0.7-2-1.3-3.9-1.9-5.4c-0.6-1.5-1-2.6-1.4-3.6
			C474.1,227.2,473.8,226.5,473.8,226.5l29-12.4c0,0,0.4,0.9,1.3,3.4c0.5,1.2,1,2.6,1.7,4.4c0.7,1.7,1.4,3.8,2.3,6.2
			c3.4,9.6,7.7,23.9,10.2,42.8c0.3,2.4,0.6,4.7,0.9,7.3c0.2,2.5,0.4,5,0.6,7.7c0.2,2.7,0.3,5.3,0.4,8.1c0.1,2.8,0.2,5.5,0.1,8.4
			c0,11.5-1.1,23.8-3.5,36.8c-4.7,26-14.7,54.7-32.5,82c-8.9,13.6-19.7,26.8-32.4,39c-1.5,1.5-3.3,3-4.9,4.5c-1.6,1.4-3.3,3-5,4.4
			c-1.7,1.4-3.5,2.8-5.2,4.2c-0.9,0.7-1.7,1.4-2.7,2.1s-1.8,1.3-2.8,2c-1.8,1.3-3.7,2.7-5.5,4c-1.8,1.3-3.8,2.6-5.7,3.8l-2.9,1.8
			l-1.4,0.9l-1.5,0.9c-2,1.1-4,2.4-6,3.5c-1.9,1.2-4.1,2.3-6.1,3.4c-2,1.1-4.2,2.1-6.2,3.3c-2.1,1-4.3,1.9-6.4,3l-3.3,1.4
			c-1.1,0.5-2.3,0.9-3.3,1.3c-2.3,0.9-4.4,1.7-6.6,2.7c-2.3,0.8-4.5,1.5-6.9,2.4c-4.5,1.6-9.3,2.9-14,4.2
			c-9.5,2.4-19.2,4.5-29.2,5.6c-4.9,0.7-9.9,0.9-15,1.4c-2.6,0.1-5,0.2-7.6,0.2l-3.8,0.1l-3.8-0.1c-20.4-0.2-41-3.5-61-9.5
			c-2.5-0.8-5-1.6-7.5-2.5c-2.5-0.8-4.9-1.8-7.4-2.8c-1.2-0.5-2.5-0.9-3.7-1.4l-3.7-1.5c-2.5-1-4.9-2-7.3-3.2
			c-9.6-4.4-18.8-9.7-27.8-15.5c-9-5.8-17.4-12.5-25.5-19.5l-5.9-5.4c-1.9-1.8-3.8-3.8-5.7-5.7c-0.9-0.9-1.9-1.9-2.9-2.9l-2.7-3
			l-2.7-3.1c-0.9-1-1.8-2-2.7-3.1l-5.1-6.3c-1.6-2.1-3.2-4.4-4.8-6.5l-2.4-3.3l-2.3-3.4c-1.4-2.3-3-4.5-4.4-6.9
			c-5.6-9.2-10.5-18.9-14.9-28.8c-4.1-10-7.8-20.3-10.5-30.8c-0.7-2.7-1.2-5.3-1.8-7.9l-0.9-4l-0.7-4c-0.4-2.7-1-5.3-1.3-8l-1-8.1
			c-0.2-1.3-0.3-2.7-0.4-4l-0.3-4l-0.3-4c-0.1-1.3-0.1-2.7-0.1-4.1c-0.1-2.7-0.2-5.4-0.2-8.1l0.2-8.1c0.5-10.7,1.5-21.5,3.6-31.9
			c2-10.4,4.6-20.9,8.1-30.8c0.8-2.6,1.8-5,2.7-7.5l1.4-3.7c0.5-1.2,1-2.5,1.5-3.7c1-2.5,2-4.8,3.2-7.3c1.1-2.4,2.3-4.7,3.5-7.1
			c9.5-18.6,21.5-35.8,35.4-50.6l2.6-2.8l2.7-2.7c1.8-1.7,3.6-3.6,5.4-5.3c3.8-3.4,7.5-6.8,11.4-9.8c7.7-6.4,15.9-12,24.2-17.2
			c4.2-2.5,8.4-5,12.7-7.2c2.1-1.1,4.3-2.3,6.4-3.3s4.4-2,6.5-3c1.1-0.5,2.1-1,3.3-1.4l3.3-1.3c2.3-0.9,4.4-1.7,6.6-2.7
			c2.3-0.8,4.5-1.5,6.6-2.3c2.3-0.7,4.4-1.5,6.6-2.1c2.3-0.6,4.5-1.2,6.8-1.9l1.6-0.5l1.6-0.4l3.4-0.8c2.3-0.5,4.5-1,6.8-1.5
			c2.3-0.4,4.5-0.8,6.8-1.2c1.1-0.2,2.3-0.4,3.4-0.6c1.1-0.1,2.3-0.3,3.4-0.4c2.3-0.3,4.5-0.6,6.6-0.8c2.3-0.2,4.4-0.4,6.6-0.5
			c2.3-0.1,4.4-0.4,6.5-0.4c17.5-0.7,34.6,0.6,50.5,3.6c32,6,59.7,18.7,81.6,33.4c11,7.4,20.7,15.1,29,23c2.1,1.9,4.1,4,6,5.9
			c1.9,1.9,3.9,3.9,5.5,5.8c1.7,1.9,3.5,3.9,5.1,5.7c1.5,1.9,3.1,3.8,4.6,5.6c11.9,14.8,19.2,27.9,23.8,37c1.2,2.3,2.3,4.2,3,6
			c0.8,1.7,1.6,3.6,2.1,4.8c1.1,2.4,1.7,4,1.7,4L473.8,226.5z"/>
		<path d="M299.9,527.4l-4-0.1c-20.9-0.2-42-3.6-62.7-9.8l-3-0.9l-4.6-1.4c-1.8-0.6-3.6-1.2-5.2-1.8c-0.8-0.3-1.6-0.6-2.5-0.9
			l-1.3-0.5c-0.8-0.3-1.7-0.6-2.6-1l-0.1-0.1l-3.7-1.5c-0.9-0.4-1.6-0.7-2.5-1c-1.6-0.7-3.3-1.4-5-2.3c-9.2-4.3-18.5-9.5-28.5-15.9
			c-8.6-5.6-17.2-12.2-26.2-20.1l-0.1-0.1l-5.9-5.4c-1.4-1.3-2.8-2.7-4-4c-0.6-0.6-1.2-1.2-1.8-1.9c-0.4-0.4-0.7-0.7-1-1
			c-0.7-0.7-1.3-1.3-1.9-2l-0.1-0.1l-5.4-6c-0.9-1-1.9-2.1-2.9-3.4l-5.1-6.2c-1.2-1.5-2.4-3.1-3.4-4.6c-0.5-0.7-1-1.4-1.6-2.1
			l-2.6-3.6L110,426c-0.5-0.8-1-1.5-1.5-2.4c-1-1.5-2-3.1-3.1-4.7c-5.3-8.7-10.3-18.4-15.2-29.6l-0.1-0.1
			c-4.6-11.3-8.2-21.6-10.7-31.5c-0.5-1.7-0.9-3.6-1.3-5.4c-0.2-0.9-0.4-1.7-0.6-2.7l-1-4.3l-0.7-4c-0.2-0.9-0.3-1.8-0.5-2.8
			c-0.3-1.7-0.6-3.7-0.9-5.5l-1-8.1c-0.2-1.4-0.3-3-0.4-4.4l-0.6-8.2c-0.1-0.9-0.1-1.8-0.1-2.9c0-0.4,0-0.9,0-1.3c0-1,0-1.8-0.1-2.8
			c-0.1-1.8-0.1-3.7-0.1-5.5l0.2-8.3c0.5-12.1,1.7-22.7,3.7-32.8c2.3-11.7,5-22,8.3-31.6c0.6-1.8,1.2-3.5,1.8-5.1
			c0.3-0.8,0.6-1.6,0.9-2.5l1.4-3.9c0.3-0.8,0.7-1.6,1-2.6l0.5-1.2c0.4-0.8,0.7-1.6,1-2.5c0.7-1.6,1.4-3.3,2.1-5l3.6-7.3
			c9.8-19.2,22-36.7,36.3-52.1l2.8-3l2.7-2.7c0.6-0.6,1.2-1.2,1.7-1.7c1.2-1.2,2.5-2.5,3.8-3.7l0.1-0.1c1-0.8,1.9-1.7,2.9-2.6
			c2.8-2.5,5.6-5.1,8.7-7.5c6.9-5.7,14.7-11.4,24.8-17.6l0.2-0.1c0.9-0.5,1.8-1,2.8-1.6c3.4-1.9,6.8-4,10.3-5.7
			c0.6-0.3,1.3-0.7,2-1.1c1.4-0.7,3-1.5,4.5-2.3l7.8-3.6c0.7-0.3,1.5-0.7,2.4-1h0.1l10.1-4c1.5-0.5,3.1-1,4.6-1.6l3.5-1.2
			c1.8-0.6,3.7-1.2,5.7-1.7l8.6-2.5l5-1.1c0.8-0.2,1.5-0.3,2.3-0.5c1.5-0.3,3.1-0.7,4.7-1l10.4-1.8l10.1-1.3
			c1.5-0.2,3.1-0.3,4.6-0.4c0.7-0.1,1.4-0.1,2.1-0.2c0.8,0,1.4-0.1,2-0.2c1.5-0.1,3.2-0.3,4.8-0.3c17.3-0.7,34.9,0.5,51.9,3.7
			c29.7,5.6,58.7,17.5,84,34.3c10.9,7.3,20.9,15.2,29.8,23.6c1.7,1.5,3.3,3.1,4.7,4.6c0.5,0.5,0.9,1,1.4,1.4l0.9,0.9
			c1.6,1.6,3.3,3.4,4.9,5.1l5.3,5.9l4.6,5.7c9.6,12.1,17.7,24.6,24.6,38.1c1.2,2.4,2.3,4.4,3.1,6.3l1.4,3.2l0.3-0.1l2.3,5.7l2.5,5.5
			l-0.3,0.1l0.8,2.1c0.8,2,1.6,4.2,2.4,6.6c5,14.2,8.4,28.6,10.4,43.9l0.9,7.6l0.6,7.6c0.2,2.4,0.3,4.7,0.3,7.1v1.3
			c0,0.7,0,1.4,0.1,2.1c0.1,2.1,0.1,4.3,0,6.6c0,12.2-1.2,24.9-3.6,37.7c-5.3,29.8-16.9,58.9-33.5,84.3c-9.5,14.5-20.7,27.9-33.2,40
			c-1.2,1.2-2.4,2.3-3.6,3.3c-0.5,0.4-1,0.9-1.5,1.3c-0.6,0.5-1.2,1-1.7,1.5c-1.1,1-2.3,2-3.5,3.1l-0.1,0.1l-8.5,6.9l-7.9,5.7
			c-1.3,1-2.7,1.8-4,2.7c-0.6,0.4-1.2,0.8-1.9,1.2l-4.6,3.1l-7.5,4.4c-1.7,1-3.5,1.9-5.2,2.9l-3.3,1.7c-1.4,0.7-2.9,1.5-4.3,2.3
			l-0.2,0.1l-9.8,4.5c-0.8,0.3-1.5,0.6-2.4,0.9l-7.9,3.1c-1.6,0.6-3.3,1.1-4.8,1.6c-0.7,0.3-1.5,0.5-2.3,0.8
			c-3.7,1.3-7.6,2.5-11.3,3.5c-1,0.3-2,0.6-3.1,0.8H356c-11.5,2.9-21,4.7-29.9,5.7c-3.9,0.6-7.7,0.8-11.5,1.1
			c-1.3,0.1-2.6,0.2-3.9,0.3h-0.2c-1.7,0.1-3.5,0.1-5.2,0.2c-0.8,0-1.6,0-2.5,0.1L299.9,527.4z M236.9,505.8
			c19.5,5.9,39.5,9,59.2,9.2l3.7,0.1l3.7-0.1c0.8,0,1.6,0,2.5-0.1c1.6,0,3.3-0.1,4.8-0.2c1.3-0.1,2.6-0.2,3.9-0.3
			c3.7-0.3,7.2-0.5,10.6-1h0.2c8.4-0.9,17.3-2.7,28.2-5.4c1-0.3,2-0.6,3-0.8c3.7-1,7.2-2,10.4-3.2c0.9-0.3,1.6-0.6,2.5-0.8
			c1.5-0.5,2.9-0.9,4.2-1.5l6.6-2.7c0.4-0.1,0.7-0.3,1.1-0.5c0.6-0.3,1.3-0.5,1.9-0.8l9.5-4.4c1.3-0.7,2.8-1.4,4.1-2l3.3-1.7
			c1.6-0.8,3.1-1.6,4.5-2.5l0.1-0.1l7.4-4.3l4.2-2.8c0.6-0.4,1.3-0.8,1.9-1.3c1.2-0.8,2.4-1.5,3.5-2.4l8.1-5.9l7.7-6.2
			c1-0.9,2-1.8,3.2-2.8c0.6-0.5,1.1-1,1.7-1.5c0.5-0.4,1-0.9,1.5-1.4c1-0.9,2-1.8,3-2.8l0.1-0.1c11.9-11.5,22.5-24.1,31.5-38
			c15.7-23.9,26.5-51.6,31.6-79.7c2.3-12.3,3.4-24.2,3.4-35.8v-0.2c0.1-1.9,0-3.9,0-5.8c0-0.7,0-1.4-0.1-2.1v-1.3
			c-0.1-2.1-0.1-4.3-0.3-6.2l-0.6-7.7l-0.9-7.1c-1.9-14.4-5.1-28-9.9-41.5c-0.8-2.4-1.4-4.3-2.1-5.9l-0.8-2l-17.7,7.6l0.3,0.8
			c0.7,1.7,1.4,3.7,2,5.7c4.3,12.3,7.3,24.8,9,37.9l0.8,6.5l0.5,6.5c0.2,2,0.2,4,0.3,5.9v1.3c0,0.7,0,1.3,0.1,1.9
			c0.1,1.7,0.1,3.6,0,5.6c0,10.4-1,21.4-3.1,32.5c-4.6,25.7-14.5,50.8-28.7,72.6c-8.2,12.5-17.8,24-28.5,34.4c-1,1-2,1.9-3.1,2.9
			c-0.4,0.4-0.9,0.8-1.3,1.1l-0.1,0.1c-0.5,0.4-1,0.9-1.5,1.3c-0.9,0.8-1.8,1.6-2.9,2.5l-0.1,0.1l-7,5.6l-7.1,5.2
			c-1.1,0.8-2.3,1.5-3.4,2.3c-0.6,0.4-1.1,0.7-1.7,1.1l-4.1,2.7l-6.3,3.7c-1.5,0.9-3,1.7-4.5,2.5l-6.9,3.5l-8.5,3.9
			c-0.6,0.3-1.3,0.5-2,0.8c-0.3,0.1-0.6,0.2-0.9,0.4l-5.7,2.3c-1.4,0.5-2.8,1-4,1.4c-0.7,0.2-1.4,0.5-2,0.7c-3.1,1.1-6.2,2-9.2,2.9
			c-1,0.3-2,0.6-3.1,0.8l-0.2,0.1c-10.1,2.6-18.1,4.1-25.7,4.9c-3.2,0.5-6.3,0.7-9.3,0.9c-1.2,0.1-2.6,0.2-3.8,0.3h-0.2
			c-1.4,0.1-2.8,0.1-4.2,0.1c-0.8,0-1.6,0-2.4,0.1l-3.5,0.1l-3.4-0.1c-17.9-0.2-36.1-3.1-53.9-8.4h-0.1l-6.4-2c-1.5-0.5-3-1-4.3-1.5
			c-0.7-0.3-1.5-0.6-2.3-0.8c-0.4-0.2-0.8-0.3-1.2-0.4c-0.7-0.3-1.4-0.5-2.1-0.8l-0.2-0.1l-3.1-1.3c-0.8-0.3-1.5-0.6-2.3-0.9
			c-1.3-0.6-2.8-1.1-4.2-1.9c-7.8-3.6-15.9-8.1-24.6-13.7c-7.3-4.7-14.6-10.4-22.6-17.3l-0.1-0.1l-5.1-4.7c-1.2-1.1-2.3-2.3-3.4-3.3
			c-0.6-0.6-1.1-1.2-1.7-1.7c-0.3-0.3-0.6-0.6-0.9-0.9c-0.6-0.6-1.1-1.1-1.6-1.7l-4.7-5.2c-0.8-0.9-1.6-1.8-2.5-3l-4.3-5.3
			c-1-1.3-1.9-2.6-2.9-3.8c-0.5-0.6-0.9-1.3-1.4-1.9l-2.3-3.2l-1.9-2.9c-0.5-0.7-0.9-1.4-1.3-2.1c-0.8-1.2-1.7-2.6-2.6-4
			c-4.6-7.5-8.9-15.8-13.2-25.5l-0.1-0.2c-4-9.8-7.1-18.6-9.3-27.1c-0.4-1.5-0.8-3.1-1.1-4.6c-0.2-0.8-0.3-1.5-0.5-2.4l-0.8-3.8
			l-0.6-3.4c-0.1-0.9-0.3-1.6-0.4-2.5c-0.3-1.5-0.5-3.1-0.8-4.6l-0.9-6.9c-0.2-1.3-0.3-2.6-0.4-3.9l-0.5-7c0-0.8-0.1-1.6-0.1-2.5
			c0-0.4,0-0.8,0-1.2c0-0.9,0-1.7-0.1-2.6c0-1.5-0.1-3.1-0.1-4.6l0.2-7.2c0.5-10.4,1.5-19.7,3.2-28.2c1.9-10.2,4.3-19.1,7.2-27.2
			c0.5-1.5,1-3,1.5-4.4c0.3-0.7,0.5-1.4,0.8-2.1l1.2-3.4c0.3-0.7,0.6-1.4,0.9-2.1l0.5-1.1c0.3-0.8,0.7-1.5,1-2.3
			c0.6-1.3,1.1-2.8,1.8-4.1l3.1-6.2c8.5-16.6,19-31.7,31.3-44.8l2.4-2.6l2.4-2.3c0.6-0.6,1.1-1.1,1.7-1.7c1-1,1.9-1.9,3-3l0.2-0.2
			c0.9-0.8,1.8-1.6,2.8-2.5c2.3-2,4.6-4.2,7.2-6.1c5.8-4.9,12.4-9.5,21.3-15.1l0.2-0.1c0.9-0.5,1.8-1,2.8-1.6
			c2.8-1.6,5.5-3.3,8.5-4.7c0.6-0.3,1.2-0.6,1.8-0.9c1.2-0.6,2.5-1.3,3.8-1.9l5.7-2.6c0.3-0.2,0.7-0.3,1-0.4
			c0.6-0.3,1.3-0.6,1.9-0.9l0.1-0.1l8.8-3.5l7-2.4c1.5-0.5,3.2-1,4.8-1.5l7.5-2.1l4.3-1c0.7-0.2,1.4-0.3,2-0.5
			c1.2-0.3,2.6-0.6,4-0.8l9-1.5l8.7-1.1c1.2-0.1,2.5-0.2,3.8-0.3c0.7,0,1.3-0.1,2-0.2h0.1c0.6,0,1.1-0.1,1.7-0.1
			c1.3-0.1,2.7-0.2,4.2-0.2c14.9-0.6,30,0.5,44.6,3.2c25.6,4.8,50.6,15,72.3,29.5c9.4,6.2,18,13.1,25.6,20.3c1.4,1.3,2.8,2.7,4,3.9
			c0.4,0.4,0.9,0.9,1.3,1.3l0.9,0.9c1.3,1.3,2.8,2.8,4.1,4.4l4.5,5.1l4,4.9c8.3,10.4,15.2,21.1,21.1,32.8c1.1,2,2,3.9,2.8,5.6
			l0.8,1.9l17.7-7.6l-1.4-3.1c-0.6-1.5-1.6-3.4-2.8-5.6c-6.5-12.9-14.1-24.7-23.2-36l-4.5-5.5l-5.1-5.7c-1.3-1.5-2.8-3-4.3-4.6
			l-0.2-0.7c-0.5-0.5-1-1-1.5-1.5c-1.4-1.4-2.8-2.9-4.2-4.1l-0.2-0.2c-8.3-8-17.8-15.4-28.1-22.3C394.6,105.5,367,94.2,339,88.9
			c-16.1-3-32.7-4.2-49.1-3.5h-0.2c-1.2,0-2.7,0.1-4.1,0.2c-0.7,0.1-1.4,0.1-2.1,0.2c-0.6,0.1-1.4,0.1-2.1,0.2
			c-1.4,0.1-2.8,0.2-4.2,0.3l-9.8,1.2l-9.9,1.7c-1.3,0.2-2.7,0.5-4.1,0.9c-0.8,0.2-1.6,0.4-2.4,0.5l-4.8,1.1l-8.4,2.4
			c-1.6,0.4-3.2,0.9-4.9,1.5l-3.6,1.2c-1.4,0.5-2.9,0.9-4.3,1.4l-9.7,3.9c-0.6,0.3-1.2,0.6-1.9,0.8c-0.4,0.2-0.8,0.4-1.1,0.5l-6.5,3
			c-1.2,0.6-2.6,1.2-4,2c-0.7,0.4-1.5,0.8-2.3,1.1c-3.3,1.6-6.3,3.5-9.6,5.3c-0.9,0.5-1.8,1-2.7,1.5c-9.5,5.9-17,11.3-23.4,16.6
			l-0.2,0.1c-2.8,2.1-5.3,4.5-8.1,7c-0.9,0.8-1.9,1.7-2.9,2.6c-1.1,1.1-2.4,2.3-3.5,3.4c-0.6,0.6-1.2,1.2-1.8,1.7l-2.6,2.6l-2.5,2.7
			c-13.6,14.5-25.2,31-34.4,49.2l-3.4,7.1c-0.6,1.4-1.3,2.9-1.9,4.5c-0.4,0.8-0.7,1.6-1.1,2.6l-0.5,1.2c-0.3,0.7-0.6,1.4-0.9,2.1
			l-1.3,3.6c-0.3,0.8-0.6,1.7-0.9,2.6c-0.6,1.5-1.1,3.1-1.6,4.5l-0.1,0.2c-3.1,9.1-5.7,18.8-7.9,30c-1.8,9.4-3,19.5-3.5,31l-0.2,8
			c0,1.5,0,3.3,0.1,5c0,0.9,0.1,1.8,0.1,2.8c0,0.4,0,0.9,0,1.3c0,0.8,0,1.6,0.1,2.4l0.6,8c0.1,1.2,0.2,2.5,0.3,3.6l1,8.2
			c0.2,1.5,0.5,3.2,0.8,4.9c0.2,0.9,0.3,1.8,0.5,2.8l0.7,3.8l0.9,3.8c0.2,0.8,0.4,1.8,0.6,2.8c0.4,1.7,0.7,3.4,1.2,4.9
			c2.5,9.5,5.8,19.3,10.2,30c4.7,10.5,9.4,19.7,14.5,28c0.9,1.4,1.7,2.9,2.8,4.3c0.5,0.8,1,1.6,1.5,2.5l2.1,3.3l2.3,3.2
			c0.5,0.7,1.1,1.4,1.6,2.3c1,1.4,2,2.8,3.1,4.1l5.1,6.3c0.7,0.9,1.5,1.8,2.4,2.8l5.4,6c0.5,0.6,1.1,1.1,1.6,1.7
			c0.3,0.3,0.7,0.7,1,1c0.6,0.6,1.2,1.2,1.9,1.9c1.2,1.2,2.5,2.5,3.6,3.6l5.8,5.3c8.6,7.6,16.7,13.7,24.8,18.9
			c9.5,6.1,18.4,11,27.1,15.1l0.1,0.1c1.4,0.7,2.9,1.3,4.4,1.9c0.9,0.4,1.7,0.7,2.6,1.1l3.5,1.5c0.7,0.3,1.5,0.6,2.3,0.8l1.3,0.5
			c0.8,0.3,1.6,0.6,2.5,0.9c1.6,0.6,3.2,1.2,4.7,1.7L236.9,505.8z M246,475.6c16.7,5,33.8,7.7,50.5,7.9l3.2,0.1l3.1-0.1
			c0.8,0,1.6,0,2.5-0.1c1.2,0,2.6-0.1,3.8-0.1c1.2-0.1,2.6-0.2,3.8-0.3c3-0.2,5.8-0.4,8.5-0.8h0.2c7-0.8,14.4-2.1,24-4.6
			c1-0.3,2-0.6,3.1-0.8c3-0.8,5.7-1.6,8.4-2.6c0.8-0.3,1.5-0.5,2.4-0.8c1.2-0.4,2.4-0.8,3.5-1.2l5.7-2.3c0.3-0.1,0.7-0.3,1-0.4
			c0.5-0.2,1-0.4,1.5-0.6l8.2-3.7l6.4-3.4c1.3-0.7,2.6-1.3,3.7-2l0.1-0.1l6.3-3.7l3.6-2.4c0.6-0.4,1.2-0.8,1.8-1.2
			c1-0.6,1.9-1.2,2.9-1.9l7-5l6.5-5.3c0.8-0.7,1.6-1.4,2.5-2.3c0.5-0.5,1-0.9,1.6-1.4c0.5-0.4,0.9-0.8,1.4-1.3
			c0.9-0.8,1.7-1.5,2.4-2.3l0.2-0.2c10.1-9.7,19.2-20.7,26.9-32.3c13.3-20.5,22.6-44,27-68c1.8-10.5,2.9-20.8,2.9-30.5v-0.3
			c0.1-1.5,0-3.1,0-4.8c0-0.7,0-1.3-0.1-2v-1.3c0-1.8-0.1-3.5-0.2-5.1v-0.3l-0.5-6.2l-0.7-6c-1.6-12.3-4.4-23.9-8.5-35.4v-0.1
			c-0.6-1.8-1.2-3.6-1.7-5l-0.1-0.1l-1.4-3.6c-0.6-1.5-0.9-2.5-1.1-2.8c-0.2-0.4-0.7-1.6-1.4-3.3l-1.8-4.1c-0.5-1.3-1.4-3.1-2.4-4.8
			v-0.1c-5.5-10.9-12-21-19.7-30.7l-3.9-4.7l-4.4-4.9c-1-1.2-2.3-2.5-3.5-3.7l-0.9-0.9c-0.4-0.4-0.9-0.9-1.4-1.4
			c-1.1-1.2-2.3-2.4-3.4-3.3l-0.2-0.2c-7.1-6.8-15.1-13.1-24-19c-20.4-13.6-43.9-23.1-67.8-27.6c-13.7-2.6-27.9-3.6-41.9-3H291
			c-1,0-2.1,0.1-3.3,0.2c-0.6,0.1-1.3,0.1-1.9,0.1c-0.7,0.1-1.4,0.1-2.1,0.2c-1.1,0.1-2.3,0.2-3.4,0.3l-8.4,1l-8.5,1.5
			c-1,0.2-2.1,0.4-3.3,0.7c-0.7,0.2-1.4,0.3-2.3,0.5l-4.1,0.9l-7.2,2c-1.2,0.3-2.6,0.8-4,1.2l-6.9,2.4l-8.3,3.3
			c-0.5,0.2-1,0.4-1.5,0.7c-0.3,0.2-0.7,0.3-1.1,0.5l-5.6,2.6c-1,0.5-2,1-3.2,1.6c-0.7,0.4-1.4,0.7-2.1,1.1
			c-2.7,1.3-5.1,2.8-7.8,4.3c-0.9,0.5-1.8,1-2.8,1.6c-8.4,5.2-14.5,9.6-19.9,14.1l-0.2,0.2c-2.1,1.6-4.3,3.6-6.5,5.5
			c-0.9,0.8-1.8,1.7-2.9,2.6c-0.9,0.8-1.8,1.7-2.7,2.7c-0.6,0.6-1.2,1.2-1.8,1.7l-2.1,2.1L165,175c-11.6,12.4-21.4,26.5-29.4,42
			l-3,6c-0.5,1.1-1,2.4-1.5,3.6c-0.3,0.8-0.7,1.6-1,2.4l-0.5,1.1c-0.2,0.6-0.5,1.1-0.7,1.7l-1.1,3.1c-0.3,0.7-0.6,1.5-0.9,2.4
			c-0.5,1.3-0.9,2.5-1.3,3.7l-0.1,0.2c-2.7,7.6-4.8,16-6.6,25.7c-1.5,7.9-2.5,16.6-3,26.4l-0.1,6.9c0,1.2,0,2.6,0.1,4
			c0,0.9,0.1,1.7,0.1,2.7c0,0.3,0,0.8,0,1.2c0,0.6,0,1.3,0.1,1.9l0.5,6.9c0.1,1.1,0.1,2.1,0.3,3v0.1l0.9,6.9c0.2,1.2,0.4,2.6,0.7,4
			c0.2,0.8,0.3,1.7,0.5,2.7l0.6,3.2l0.7,3.3c0.2,0.8,0.4,1.6,0.6,2.6c0.3,1.4,0.6,2.8,0.9,4v0.1c2,7.9,4.9,16.3,8.7,25.6
			c4.1,9.2,8.1,17,12.4,24l0.1,0.1c0.6,1.1,1.4,2.3,2.1,3.5c0.5,0.7,1,1.4,1.4,2.3l1.7,2.8l1.9,2.7c0.5,0.6,1,1.3,1.5,2
			c0.8,1.1,1.6,2.3,2.5,3.3l4.4,5.4c0.6,0.7,1.2,1.5,1.9,2.3l4.6,5.2c0.4,0.5,0.9,0.9,1.3,1.4c0.3,0.3,0.6,0.6,0.9,0.9
			c0.5,0.5,1.1,1.2,1.7,1.8c1,1,1.9,2,3,2.9l5,4.6c7.5,6.4,14.3,11.8,21.1,16.2c8.2,5.3,15.8,9.5,23.1,12.9l0.2,0.1
			c1.1,0.5,2.4,1,3.6,1.6c0.8,0.3,1.6,0.7,2.4,1l3,1.2c0.6,0.2,1.2,0.4,1.7,0.7c0.4,0.1,0.8,0.3,1.2,0.4c0.7,0.3,1.5,0.6,2.4,0.9
			c1.3,0.5,2.6,0.9,3.8,1.3L246,475.6z"/>
	</g>
	<g>
		<path fill="#1791CE" d="M111.9,329.1c0,0,0.4,2.5,1.2,7.1c0.9,4.6,2.5,11.4,4.9,19.7c2.7,8.4,6.3,18.4,11.9,29.4
			c5.5,10.9,12.8,22.7,22.3,34.5c4.7,5.9,10.1,11.6,15.9,17.3c3,2.8,5.9,5.6,9.2,8.2c1.6,1.3,3.2,2.8,4.9,4c1.7,1.3,3.4,2.6,5.1,3.9
			c13.9,10.1,30.1,18.9,47.9,25.4c8.9,3.2,18.1,5.7,27.6,7.7c9.5,1.8,19.2,3,29.2,3.4c9.9,0.4,19.8-0.1,29.8-1.2l3.7-0.5
			c1.2-0.1,2.5-0.3,3.7-0.5l7.4-1.3c4.9-1.1,9.8-2.1,14.6-3.6c9.6-2.8,19.1-6.2,28.1-10.5c1.1-0.5,2.3-1,3.4-1.5l3.3-1.7l3.3-1.7
			l1.6-0.8l1.6-0.9c2.1-1.2,4.3-2.6,6.4-3.8c2-1.3,4.2-2.8,6.2-4.1c8.2-5.5,15.9-11.7,23-18.2c7.1-6.6,13.5-13.7,19.4-21.1
			c5.8-7.5,10.9-15.1,15.5-22.9c4.5-7.9,8.3-15.9,11.7-23.8c6.3-16.1,10.4-32,12.3-47c1.9-14.9,1.9-28.8,0.8-41
			c-1.1-12.2-3.3-22.6-5.5-31.2c-1.2-4.2-2.1-8-3.4-11.3c-1.1-3.3-1.8-5.7-2.8-7.9c-1.7-4.4-2.6-6.4-2.6-6.4l29-12.4
			c0,0,0.9,2.4,3,7.5c1,2.6,2,5.6,3.3,9.3c1.3,3.8,2.5,8.1,3.9,13c2.6,9.9,5.1,22.1,6.3,36.3c1.3,14.2,1.3,30.4-0.9,47.9
			c-2.1,17.5-6.9,36-14.3,54.7c-3.9,9.3-8.3,18.6-13.6,27.8c-5.3,9.1-11.4,18.1-18.1,26.7c-6.9,8.6-14.4,16.8-22.7,24.6
			c-8.3,7.7-17.3,14.8-26.8,21.3c-2.5,1.5-4.8,3.2-7.3,4.7c-2.5,1.4-5,3-7.5,4.4l-1.8,1.1l-1.9,1l-3.9,2l-3.9,2
			c-1.3,0.6-2.7,1.2-4,1.8c-10.5,5-21.6,9-32.8,12.3c-5.6,1.7-11.4,3-17.1,4.2l-8.6,1.5c-1.4,0.3-2.9,0.5-4.3,0.6l-4.3,0.5
			c-11.6,1.3-23.2,1.9-34.8,1.4c-11.6-0.5-22.9-1.8-34-4c-11-2.1-21.9-5.2-32.2-8.9c-20.7-7.4-39.5-17.7-55.8-29.6
			c-2-1.5-4-3.1-6-4.5c-1.9-1.5-3.8-3.2-5.7-4.7c-3.8-3.1-7.3-6.4-10.7-9.6c-6.8-6.6-13.1-13.3-18.5-20.2
			c-11-13.6-19.6-27.4-26-40.2c-6.3-12.8-10.7-24.5-13.8-34.2c-3-9.8-4.7-17.7-5.7-23.1c-0.9-5.4-1.4-8.3-1.4-8.3L111.9,329.1z"/>
		<path d="M299.1,527.4c-2.9,0-5.7-0.1-8.6-0.2c-11.7-0.5-23.4-1.8-34.9-4.1c-10.8-2.1-22-5.2-33-9.2c-20.5-7.4-39.7-17.5-57.3-30.4
			l-6-4.6c-1.4-1-2.8-2.1-4-3.3c-0.6-0.5-1.2-1-1.8-1.5c-3-2.4-5.7-4.9-8.4-7.4c-0.9-0.8-1.7-1.6-2.7-2.5l-0.2-0.1
			c-7.8-7.6-14-14.3-19-20.8c-10.4-12.8-19.3-26.7-26.7-41.2c-5.5-10.9-10.1-22.4-14.2-35.1V367c-3.1-10.4-4.9-18.6-5.9-23.6
			l-2.6-14.5l43.3-6.8l2.4,13c0.7,3.9,2.3,10.4,4.8,19c3.4,10.3,7.1,19.6,11.5,28.4c5.8,11.8,13.1,22.9,21.6,33.4
			c4,5,8.9,10.3,15.3,16.7c0.8,0.8,1.7,1.5,2.6,2.4c2.1,1.9,4.1,3.8,6.2,5.5c0.7,0.5,1.3,1,1.9,1.5c1,0.8,1.9,1.6,2.9,2.4l5.1,3.9
			c14.2,10.3,29.8,18.6,46.2,24.5c9.1,3.2,18.1,5.7,26.7,7.4c9.3,1.7,18.8,2.9,28.2,3.3c2.3,0.1,4.5,0.1,6.9,0.1
			c7,0,14.1-0.4,22-1.3l3.7-0.5c1.1-0.1,2.3-0.3,3.3-0.5h0.1l7.3-1.3l2.5-0.6c4-0.9,7.8-1.7,11.6-2.9h0.1c9.9-2.9,19-6.2,27.2-10.2
			c0.5-0.2,0.9-0.4,1.3-0.6c0.6-0.3,1.3-0.6,1.9-0.9l8.1-4.2l7.8-4.6l6-4c8.2-5.6,15.7-11.6,22.2-17.6c6.6-6.3,13-13.2,18.8-20.4
			c5.3-6.9,10.4-14.3,15-22.2c4-7.1,7.9-14.8,11.3-23c6.1-15.4,10-30.8,11.9-45.4c1.7-13.4,1.9-26.7,0.7-39.7
			c-0.9-9.8-2.7-19.6-5.3-30.1c-0.3-1.1-0.6-2.3-0.9-3.4c-0.8-2.9-1.4-5.2-2.3-7.4v-0.1c-0.3-1-0.6-1.8-0.9-2.8
			c-0.6-1.9-1.1-3.4-1.6-4.7l-0.1-0.2c-1.7-4.4-2.6-6.4-2.6-6.4l-2.1-5.5l40.3-17.2l2.4,5.8c0,0,0.9,2.4,3,7.4
			c0.9,2.1,1.6,4.4,2.6,7.1c0.3,0.8,0.5,1.6,0.8,2.6c1.1,3.1,2,6.3,3.1,9.9c0.3,1.1,0.6,2.3,1,3.5v0.2c3.3,12.8,5.4,25.1,6.5,37.3
			c1.4,16.2,1.1,32.6-0.9,49.2c-2.3,18.3-7.2,37.2-14.6,56.2c-4.2,10.1-8.9,19.7-13.9,28.6c-5.7,9.7-12,18.9-18.6,27.5
			c-7.2,9-15,17.5-23.3,25.3c-8.2,7.7-17.5,14.9-27.6,21.9l-0.1,0.1l-7.5,4.9l-9.6,5.6l-9.7,5c-1,0.5-1.9,0.9-2.9,1.3
			c-0.4,0.2-0.9,0.4-1.3,0.6c-10.2,4.9-21.6,9.1-33.7,12.6c-5.1,1.5-10.3,2.8-15.3,3.9l-2.3,0.5l-8.6,1.5c-1.6,0.3-3.3,0.5-4.7,0.7
			l-4.3,0.5C316.8,526.9,307.7,527.4,299.1,527.4z M172.5,473.8c16.7,12.1,34.9,21.8,54.1,28.6c10.5,3.7,21.1,6.6,31.3,8.7
			c10.8,2,22,3.4,33,3.9c2.7,0.1,5.3,0.2,8.1,0.2c8.1,0,16.8-0.5,25.8-1.5l4.3-0.5c1.2-0.1,2.7-0.3,3.9-0.6h0.1l8.5-1.5l1.9-0.4
			c5.1-1.1,9.8-2.3,14.5-3.7c11.6-3.4,22.3-7.4,31.9-12c0.5-0.2,1-0.4,1.4-0.7c0.8-0.4,1.6-0.7,2.4-1.1l9.4-4.9l9.1-5.3l7.1-4.6
			c9.6-6.5,18.3-13.5,26.1-20.7c7.9-7.4,15.2-15.4,22.1-23.9c6.3-8.1,12.3-16.8,17.6-26c4.8-8.4,9.2-17.5,13.2-27
			c7.1-17.9,11.8-35.8,13.8-53.1c1.9-15.7,2.3-31.3,0.9-46.5c-1-11.6-3.1-23.1-6.2-35.3c-0.3-1.2-0.7-2.4-1-3.5
			c-0.9-3.5-1.8-6.4-2.8-9v-0.1c-0.3-0.9-0.6-1.8-0.9-2.7c-0.8-2.5-1.5-4.6-2.3-6.2l-0.1-0.1c-0.2-0.6-0.4-1.1-0.6-1.6l-17.7,7.6
			c0.1,0.2,0.2,0.5,0.3,0.7c0.7,1.7,1.3,3.5,2,5.5c0.3,0.8,0.5,1.6,0.8,2.6c0.9,2.6,1.7,5.3,2.6,8.2c0.3,1.1,0.6,2.3,0.9,3.4
			l0.1,0.2c2.9,11.2,4.7,21.7,5.6,32.1c1.2,13.9,1,28.1-0.8,42.4c-1.8,15.7-6.1,31.9-12.6,48.4v0.1c-3.6,8.7-7.7,17-12,24.6
			c-4.9,8.4-10.3,16.4-16.1,23.6c-6.2,7.8-13,15-20.1,21.7c-7,6.5-14.9,12.9-23.7,18.8l-0.1,0.1l-6.4,4.2l-8.3,4.8l-8.4,4.4
			c-0.8,0.4-1.6,0.7-2.4,1.1c-0.4,0.2-0.8,0.3-1.1,0.5c-8.7,4.2-18.5,7.8-29.1,10.8c-4.2,1.2-8.3,2.3-12.4,3.2l-2.9,0.6l-7.4,1.3
			c-1.4,0.3-2.9,0.5-4.1,0.6l-3.7,0.5c-8.4,1-16.1,1.4-23.4,1.4c-2.5,0-4.9-0.1-7.4-0.2c-10-0.4-20.2-1.6-30-3.5
			c-9.3-1.8-18.8-4.5-28.5-7.9c-17.6-6.3-34.3-15.1-49.4-26.2l-5.2-3.9c-1.2-0.9-2.4-1.8-3.4-2.8c-0.5-0.5-1.1-0.9-1.6-1.4
			c-2.5-1.9-4.7-4.1-7-6c-0.8-0.8-1.7-1.5-2.6-2.4l-0.2-0.2c-6.9-6.8-12.1-12.4-16.4-17.8c-8.9-11-16.7-22.9-22.9-35.5
			c-4.7-9.4-8.7-19.2-12.3-30.3v-0.1c-2.7-9.1-4.3-16.1-5.1-20.4l-0.2-1.3l-19,3l0.4,2.1c0.9,4.7,2.7,12.4,5.6,22.3
			c3.9,12.1,8.3,22.9,13.4,33.2c6.9,13.8,15.4,26.9,25.3,39.1c4.8,6,10.6,12.4,18,19.5c0.9,0.8,1.7,1.6,2.7,2.5
			c2.6,2.4,5.1,4.7,7.8,6.9c0.7,0.6,1.4,1.1,2,1.7c1.2,1,2.4,1.9,3.5,2.9L172.5,473.8z"/>
	</g>
</g>
<g>
	<g>
		<path fill="#020202" d="M386.5,381.4c0,0,0.7-0.8,1.6-1.8c0.9-1.1,2.6-2.8,4.2-4.9c3.5-4.3,8.3-10.8,13-19.9
			c0.6-1.1,1.2-2.4,1.8-3.6c0.5-1.2,1.1-2.6,1.7-3.8c0.6-1.2,1.1-2.7,1.6-4c0.5-1.4,1.1-2.8,1.5-4.3c2-5.8,3.7-12.3,4.9-19.3
			c2.4-14,2.4-30.5-1.7-47.6c-2-8.5-5.2-17.2-9.4-25.6c-4.2-8.5-9.7-16.6-16.3-24.2c-6.5-7.7-14.4-14.5-23-20.6
			c-4.4-3-8.9-5.7-13.8-8.1c-2.4-1.2-4.9-2.3-7.4-3.4c-1.2-0.5-2.6-1-3.8-1.4l-1.9-0.7l-1.9-0.6c-20.8-7.1-44.3-8.4-66.7-2.9
			c-5.6,1.3-11,3.2-16.5,5.3c-5.4,2.1-10.5,4.8-15.5,7.8c-5,3-9.8,6.3-14.3,9.9c-4.5,3.7-8.8,7.8-12.8,12
			c-3.9,4.4-7.6,8.9-10.9,13.7c-3.3,4.9-6.2,9.9-8.7,15.1c-2.5,5.2-4.7,10.6-6.3,16.2s-3.1,11.2-4,16.9c-3.7,22.8-0.4,46.1,8.4,66.2
			l0.8,1.8l0.9,1.8c0.6,1.2,1.1,2.5,1.8,3.7c1.3,2.4,2.6,4.8,4,7.1c2.8,4.6,5.9,8.9,9.2,13.1c6.8,8.1,14.2,15.3,22.4,21.3
			c8.2,5.9,16.7,10.7,25.5,14.2c8.8,3.5,17.7,5.9,26.3,7.3c17.4,2.7,33.8,1.2,47.6-2.3c7-1.7,13.2-4,18.8-6.4
			c1.4-0.6,2.8-1.2,4.1-1.9c1.3-0.6,2.7-1.2,3.9-1.9c1.2-0.7,2.5-1.3,3.6-1.9c1.1-0.7,2.3-1.4,3.4-2c8.7-5.4,14.8-10.7,18.7-14.5
			c2-1.8,3.2-3.2,4.2-4.2C386.2,381.6,386.5,381.4,386.5,381.4l23.2,21.4c0,0-0.4,0.4-1.6,1.7c-1.2,1.2-2.9,3.2-5.5,5.4
			c-5,4.8-12.7,11.5-23.6,18.3c-1.4,0.8-2.8,1.6-4.2,2.6c-1.5,0.8-3,1.6-4.6,2.5c-1.5,0.9-3.2,1.6-4.9,2.5c-1.7,0.8-3.4,1.6-5.2,2.5
			c-7.2,3.2-15.1,6-23.8,8.2c-17.5,4.4-38.1,6.2-60.1,2.8c-10.9-1.7-22.2-4.7-33.4-9.2c-11.2-4.4-22-10.5-32.3-18
			c-1.3-0.9-2.6-1.9-3.8-2.9c-1.2-1-2.6-1.9-3.8-3c-1.2-1-2.5-2.1-3.7-3.2l-1.8-1.6c-0.6-0.5-1.1-1.1-1.7-1.6
			c-1.1-1.1-2.4-2.3-3.5-3.4c-1.1-1.1-2.3-2.4-3.4-3.6c-2.3-2.4-4.4-4.9-6.5-7.5c-4.2-5.2-8.2-10.6-11.7-16.6
			c-1.8-2.9-3.4-5.9-5.1-8.9c-0.8-1.5-1.5-3.1-2.3-4.6l-1.1-2.4l-1-2.4c-11.2-25.5-15.2-54.9-10.6-83.7c1.1-7.2,2.9-14.3,5-21.4
			c2.1-7.1,4.9-13.8,8.1-20.5s7-13,11-19.1c4.2-6.1,8.8-11.9,13.7-17.4c5-5.4,10.4-10.5,16.2-15.1c5.8-4.6,11.8-8.9,18.2-12.6
			c6.3-3.7,13-7.1,19.7-9.8c6.9-2.7,13.8-5,20.9-6.8c28.3-7,58-5.3,84.3,3.6l2.5,0.8l2.5,0.9c1.6,0.6,3.3,1.2,4.8,1.8
			c3.2,1.4,6.3,2.7,9.3,4.3c6.1,3,11.9,6.5,17.5,10.2c2.8,1.9,5.4,3.8,8,5.9c1.3,1,2.6,2,3.9,3.1c1.2,1.1,2.5,2.1,3.7,3.2
			c0.6,0.5,1.2,1,1.8,1.6l1.7,1.6c1.1,1.1,2.4,2.3,3.5,3.4c1.1,1.1,2.3,2.4,3.3,3.5c1.1,1.1,2.1,2.4,3.2,3.6
			c8.3,9.6,15.2,19.9,20.7,30.7c5.4,10.7,9.3,21.7,12,32.4c5.2,21.6,5.1,42.4,2.3,60.1c-1.4,8.9-3.6,17.1-6.1,24.5
			c-0.6,1.8-1.3,3.7-1.9,5.4c-0.7,1.7-1.3,3.5-2,5.1c-0.7,1.6-1.4,3.3-2.1,4.8c-0.7,1.5-1.5,3-2.3,4.5c-5.9,11.6-12,19.8-16.3,25.2
			c-2.1,2.8-4.2,4.9-5.3,6.3c-1.2,1.3-2,2.3-2,2.3L386.5,381.4z"/>
		<path d="M299.1,457c-8,0-16.1-0.6-23.9-1.8c-11.9-1.8-23.5-5.1-34.7-9.5c-11.5-4.6-22.8-10.8-33.6-18.6c-1.2-0.8-2.3-1.6-3.4-2.6
			l-4.7-3.8l-5.6-4.9c-0.4-0.4-0.8-0.8-1.2-1.2l-4.1-4c-0.9-0.9-1.7-1.7-2.5-2.6c-0.4-0.4-0.7-0.8-1.1-1.1c-1.9-1.9-3.7-4.1-5.4-6.1
			c-0.4-0.5-0.9-1-1.3-1.5l-0.1-0.1c-5-6.3-8.9-11.8-12.1-17.1c-1.4-2.4-2.8-4.7-4-7c-0.4-0.7-0.8-1.5-1.2-2.3l-0.1-0.2
			c-0.5-1.1-1.1-2.1-1.6-3.3l-1.9-4.1l-1-2.4c-11.8-26.9-15.8-57.9-11-87.1c1-7,2.8-14.2,5.2-22.2c2-6.8,4.8-13.7,8.4-21.4
			c3.1-6.4,6.9-12.9,11.5-19.9c4.1-5.9,8.7-11.9,14.3-18.1l0.1-0.1c5.7-6,11.2-11.3,16.8-15.8c6.6-5.3,12.9-9.6,18.9-13.2
			c7.3-4.2,14-7.6,20.6-10.2c7.7-3.1,14.8-5.3,21.7-7.1c12.1-3,24.8-4.5,37.4-4.5c17.3,0,34.3,2.8,50.3,8.3l2.7,0.9l4,1.5
			c1.1,0.4,2.3,0.9,3.4,1.3l0.2,0.1c0.8,0.3,1.5,0.7,2.4,1c2.4,1,4.8,2.1,7.3,3.4c5.6,2.8,11.4,6.1,18.1,10.6l0.2,0.1l1.6,1.1
			c2.3,1.5,4.5,3.2,6.6,5c0.3,0.3,0.8,0.6,1.2,0.9c0.9,0.7,1.8,1.4,2.8,2.3l4.4,3.8c0.4,0.4,0.9,0.8,1.3,1.2l0.1,0.1l5.4,5.2l4,4.2
			c0.9,1,1.8,1.9,2.8,3.1c8.7,10.1,15.9,20.8,21.4,31.9c5.4,10.7,9.6,22.1,12.4,33.8c4.9,20.3,5.7,41.9,2.4,62.5
			c-1.4,8.9-3.6,17.5-6.3,25.4c-0.5,1.5-1,3-1.5,4.4c-0.2,0.4-0.3,0.8-0.5,1.2l-0.3,0.8c-0.6,1.5-1.2,3.1-1.8,4.6l-2.3,5l-2.3,4.5
			c-4.8,9.5-10.4,18.1-17,26.2c-1.3,1.7-2.6,3.2-3.6,4.4l0.3,0.2l-4.4,4.4l-4,4.5l-0.2-0.2c-0.9,0.9-1.9,1.9-3.2,3.1
			c-7.6,7.2-15.5,13.4-24.7,19l-2,1.2c-0.7,0.4-1.4,0.9-2.3,1.3l-0.2,0.1l-4.5,2.5c-1.4,0.8-3,1.5-4.3,2.3l-0.8,0.4
			c-0.4,0.2-0.8,0.4-1.2,0.6c-1.3,0.6-2.7,1.3-4.2,1.9c-7.7,3.5-16.1,6.2-24.8,8.5C325.1,455.4,312.1,457,299.1,457z M206.8,411.3
			l4.4,3.5c0.9,0.7,1.8,1.4,2.8,2l0.1,0.1c9.9,7.3,20.4,13,31,17.3c10.3,4.1,21.1,7.1,32,8.8c7.3,1.1,14.6,1.7,22.1,1.7
			c12,0,23.9-1.4,35.6-4.4c8.1-2,15.8-4.7,22.8-7.9l0.2-0.1c1.1-0.5,2.4-1,3.6-1.6c0.4-0.2,0.8-0.4,1.3-0.6l0.8-0.4
			c1.3-0.6,2.6-1.2,3.7-1.8l0.1-0.1l4.5-2.5c0.7-0.4,1.4-0.9,2.1-1.3l1.9-1.2c8.3-5.1,15.8-10.8,22.6-17.5l0.1-0.1
			c0.9-0.8,1.7-1.6,2.5-2.4l-14.4-12.9c-0.4,0.4-0.9,0.9-1.5,1.4c-6,5.7-12.5,10.7-19.6,15.2l-3.7,2.3l-3.6,1.9
			c-1.1,0.7-2.4,1.2-3.5,1.7l-0.7,0.4c-0.4,0.2-0.7,0.4-1.1,0.5c-1,0.5-2,1-3.3,1.5c-6,2.8-12.7,5-19.7,6.8
			c-10,2.6-20.5,3.8-30.9,3.8c-6.4,0-12.8-0.5-19.1-1.4c-9.4-1.5-18.7-4.1-27.6-7.7c-9.1-3.6-18.1-8.7-26.8-14.9
			c-8.4-6-16.3-13.5-23.5-22.3l-0.1-0.1c-2.9-3.6-6.4-8.3-9.6-13.6c-1.1-1.7-2-3.5-3-5.1c-0.4-0.7-0.7-1.4-1.1-2.1L188,358
			c-0.4-0.8-0.8-1.5-1.1-2.4c-0.2-0.5-0.4-0.9-0.7-1.4l-1-2.1l-0.8-1.8c-9.4-21.5-12.6-46.2-8.8-69.6c0.8-5.4,2.1-11.3,4.1-17.7
			c1.6-5.3,3.8-10.8,6.8-17c2.4-5,5.3-10.2,9.2-16c3.2-4.7,6.9-9.4,11.5-14.4l0.1-0.1c4.7-4.9,9-9,13.4-12.6
			c5.4-4.3,10.4-7.8,15.1-10.5c5.9-3.5,11.4-6,16.4-8.1c6.2-2.5,12-4.3,17.3-5.6c9.7-2.4,19.7-3.6,29.9-3.6
			c13.8,0,27.4,2.3,40.2,6.5l2.1,0.7l1.9,0.7c0.5,0.2,1,0.4,1.4,0.6c0.8,0.3,1.6,0.6,2.5,0.9l0.2,0.1c0.7,0.3,1.4,0.6,2.3,1
			c1.7,0.8,3.6,1.5,5.4,2.6c5.5,2.7,10.6,5.9,14.4,8.4l0.1,0.1c9.4,6.5,17.5,13.8,24.2,21.6c7,8.1,12.8,16.7,17.1,25.5
			c4.3,8.6,7.7,17.6,9.9,26.9c3.9,16.3,4.6,33.6,1.8,50c-1.1,7.2-2.9,14-5.1,20.3c-0.4,1.2-0.8,2.4-1.2,3.4
			c-0.1,0.4-0.3,0.7-0.4,1.1l-0.3,0.7c-0.4,1.2-0.9,2.5-1.5,3.7l-1.7,4c-0.3,0.6-0.6,1.2-0.9,1.9l-0.8,1.6
			c-3.9,7.6-8.3,14.4-13.6,21c-0.7,0.9-1.4,1.8-2,2.6l14.2,13c0.9-1,1.9-2.3,3-3.6l0.1-0.1c6-7.6,11.2-15.4,15.7-24.1l2.1-4.3
			l2.1-4.7c0.5-1.2,1-2.5,1.6-3.9l0.3-0.8c0.2-0.4,0.3-0.8,0.5-1.3c0.5-1.2,0.9-2.5,1.3-3.7l0.1-0.2c2.6-7.3,4.5-15.1,5.9-23.4
			c3.2-19,2.4-39-2.1-57.7c-2.7-10.7-6.4-21.2-11.5-31.1c-5.1-10.2-11.8-20.2-19.7-29.5l-0.1-0.1c-0.7-0.8-1.4-1.6-2.3-2.6l-3.8-4.1
			l-5-4.9c-0.3-0.3-0.7-0.6-1-0.9l-4.3-3.8c-0.7-0.6-1.5-1.2-2.3-1.8c-0.4-0.3-0.9-0.7-1.3-1c-1.9-1.5-3.9-3-6-4.5l-1.6-1.1
			c-6.2-4.2-11.6-7.3-16.7-9.7l-0.2-0.1c-2-1.1-4.2-2-6.5-3.1c-0.8-0.3-1.5-0.7-2.4-1c-1-0.4-2-0.8-3.1-1.2l-3.8-1.4l-2.4-0.8
			c-14.8-5-30.5-7.6-46.4-7.6c-11.7,0-23.3,1.4-34.5,4.2c-6.3,1.5-12.9,3.7-20.1,6.5c-6,2.5-12.2,5.5-18.9,9.4
			c-5.5,3.3-11.3,7.3-17.4,12.2c-5.1,4.1-10.1,8.9-15.4,14.5c-5.2,5.7-9.5,11.3-13.2,16.7c-4.3,6.5-7.8,12.5-10.6,18.4
			c-3.3,7.1-5.8,13.5-7.8,19.6c-2.3,7.4-3.8,14-4.8,20.5c-4.3,26.9-0.7,55.4,10.2,80.3l1,2.4l1.7,3.7c0.5,1,0.9,1.9,1.4,3
			c0.4,0.7,0.8,1.5,1.2,2.3c1.2,2.3,2.4,4.3,3.6,6.2l0.1,0.2c2.9,4.9,6.4,9.9,11.2,15.8c0.4,0.5,0.9,1,1.3,1.5
			c1.6,1.9,3.3,3.9,4.9,5.5c0.4,0.5,0.8,0.9,1.2,1.3c0.7,0.7,1.3,1.4,2,2.1l4.1,4c0.3,0.3,0.6,0.6,1,0.9L206.8,411.3z M211.4,371.4
			c6.5,8,13.7,14.7,21.2,20.2c7.9,5.7,16.1,10.2,24.1,13.5c8.1,3.3,16.5,5.5,25,6.9c5.6,0.9,11.5,1.3,17.2,1.3
			c9.4,0,18.8-1.1,27.8-3.5c6.3-1.6,12.4-3.7,17.8-6.1l0.3-0.1c0.8-0.3,1.6-0.7,2.6-1.1c0.4-0.2,0.8-0.4,1.2-0.6l0.7-0.4
			c1-0.5,1.8-0.9,2.7-1.3l0.1-0.1l3.5-1.9l3.3-1.9c6.4-4,12.3-8.5,17.7-13.7l0.2-0.1c1.2-1.1,2-2,2.9-2.8c0.4-0.4,0.7-0.8,1.1-1.1
			c0.6-0.6,0.9-1,1.1-1.1c0.2-0.3,0.8-0.9,1.4-1.6c0.3-0.4,0.7-0.8,1.1-1.2c0.8-0.9,1.8-2,2.8-3.4l0.1-0.2
			c4.8-5.9,8.8-12.1,12.3-18.9l1.7-3.4l1.7-3.8c0.4-0.8,0.8-1.8,1.1-2.9l0.3-0.7c0.1-0.4,0.3-0.8,0.5-1.2c0.4-0.9,0.7-1.7,0.9-2.6
			l0.1-0.3c1.9-5.6,3.6-11.8,4.6-18.3c2.5-14.9,1.8-30.5-1.6-45.1c-2-8.4-5-16.6-9-24.3c-3.9-7.9-9.1-15.7-15.4-23
			c-6-7.1-13.4-13.6-21.9-19.4c-3.5-2.4-8.1-5.2-13-7.7l-0.2-0.1c-1.4-0.8-3-1.4-4.6-2.1c-0.7-0.3-1.5-0.6-2.3-1
			c-0.7-0.3-1.3-0.5-2-0.8c-0.5-0.2-1-0.4-1.5-0.6l-1.7-0.7l-1.8-0.6c-11.7-4-23.8-5.9-36.3-5.9c-9.2,0-18.2,1.1-27,3.3
			c-4.8,1.1-9.9,2.9-15.7,5.1c-4.5,1.8-9.4,4.2-14.8,7.4c-4.2,2.5-8.7,5.5-13.6,9.5c-3.9,3.1-7.8,6.9-12.1,11.4
			c-4.1,4.6-7.6,8.9-10.3,13.1c-3.5,5.2-6.1,9.9-8.3,14.3c-2.7,5.6-4.6,10.6-6,15.3c-1.7,5.8-3,11.2-3.8,16
			c-3.4,21.1-0.5,43.4,8,62.8l0.7,1.8l0.8,1.7c0.2,0.5,0.5,0.9,0.7,1.4c0.3,0.7,0.6,1.3,1,1.9c0.4,0.7,0.8,1.4,1.2,2.1
			c0.8,1.5,1.6,3.1,2.6,4.4l0.1,0.2C205.5,363.7,208.9,368.1,211.4,371.4z"/>
	</g>
	<g>
		<path fill="#BA19BA" d="M276.2,183.2c0,0-1.7,0.4-4.9,1c-1.6,0.4-3.6,0.9-5.8,1.5c-2.3,0.7-4.9,1.5-7.8,2.7
			c-5.7,2.1-12.6,5.2-19.9,9.6c-7.3,4.4-15.1,10.2-22.6,17.7c-1.8,1.9-3.8,3.8-5.5,5.9c-0.9,1-1.8,2-2.7,3.2
			c-0.8,1.1-1.7,2.3-2.7,3.3c-3.4,4.6-6.8,9.4-9.6,14.7c-2.9,5.3-5.5,10.9-7.7,16.9c-2.1,5.9-3.8,12.3-5,18.7
			c-4.9,25.9-0.7,55.3,13.2,79.9c3.5,6.1,7.5,12,11.9,17.4c1.1,1.3,2.3,2.7,3.4,4c1.2,1.2,2.4,2.6,3.6,3.8s2.6,2.5,3.8,3.7
			c1.2,1.2,2.6,2.4,3.9,3.5c5.3,4.5,10.8,8.5,16.7,12c5.8,3.5,11.9,6.3,18,8.7c6.1,2.4,12.4,4.2,18.6,5.4c6.2,1.2,12.4,2,18.4,2.4
			s12,0.1,17.6-0.5c5.6-0.5,11-1.5,16.2-2.8c10.2-2.6,19.3-6,26.9-10c7.6-4,13.8-8.2,18.6-12c1.2-0.9,2.4-1.9,3.4-2.8
			c1-0.9,2-1.6,2.9-2.6c1.7-1.6,3.1-2.8,4.2-3.9c2.3-2.4,3.3-3.4,3.3-3.4l23.2,21.4c0,0-1.3,1.3-4.2,4.3c-1.4,1.5-3.3,3.1-5.4,5.1
			c-1.1,1-2.3,2-3.6,3.2c-1.3,1.1-2.7,2.4-4.2,3.5c-6,4.8-13.9,10.1-23.5,15.1s-21.1,9.5-34,12.7c-6.4,1.4-13.3,2.8-20.5,3.5
			c-7.2,0.6-14.6,0.9-22.2,0.6c-7.7-0.4-15.4-1.3-23.3-3s-15.8-4-23.5-7c-31.2-11.8-60.1-35.8-77.4-67
			c-8.8-15.4-14.6-32.6-17.3-49.8c-2.8-17.3-2.5-34.7,0.6-51.2c1.5-8.2,3.7-16.2,6.3-23.7c2.8-7.6,6-14.7,9.7-21.4
			c3.6-6.8,7.8-12.9,12.1-18.6c1.1-1.4,2.3-2.8,3.3-4.2c1-1.4,2.3-2.7,3.4-4c2.3-2.7,4.6-5,7-7.5c9.4-9.4,19.3-16.8,28.5-22.4
			c9.3-5.6,18-9.5,25.3-12.2c3.6-1.4,7-2.4,9.8-3.3c2.9-0.8,5.4-1.4,7.4-1.9c4.1-0.9,6.2-1.3,6.2-1.3L276.2,183.2z"/>
		<path d="M298.8,457c-2.5,0-4.8-0.1-7.2-0.2c-8.2-0.4-16.3-1.4-24.2-3.1c-8-1.6-16.2-4-24.6-7.2c-33.6-12.6-62.9-38.1-80.6-69.8
			c-8.9-15.8-15.1-33.7-18-51.9c-2.9-17.7-2.6-36.1,0.6-53.2c1.5-8.3,3.8-16.6,6.5-24.7c2.8-7.5,6.1-15,10-22.3
			c3.3-6,7.3-12.3,12.6-19.4l0.1-0.1l3.3-4.2c0.8-1,1.6-1.9,2.5-2.9c0.4-0.4,0.7-0.8,1.1-1.2c1.9-2.4,4.1-4.5,6-6.5l1.1-1.1
			c8.8-8.9,18.8-16.7,29.8-23.3c8.3-5,17.1-9.3,26.3-12.7c3.1-1.1,5.8-2,8.4-2.9l1.8-0.6c2-0.6,3.9-1.1,5.5-1.5
			c0.7-0.2,1.3-0.3,1.9-0.5l0.3-0.1l12.4-2.7l8.4,43l-10.6,2.3c-0.6,0.2-1.2,0.3-1.8,0.5c-1.1,0.3-2.4,0.6-3.6,1
			c-0.5,0.2-1.1,0.4-1.7,0.5c-1.8,0.5-3.7,1.1-5.6,1.9h-0.1c-6.6,2.5-13,5.5-18.9,9.1c-8,4.8-15.1,10.4-21.4,16.7
			c-0.4,0.4-0.8,0.8-1.2,1.3c-1.4,1.4-2.8,2.8-3.9,4.3c-0.4,0.4-0.7,0.9-1.1,1.3c-0.5,0.6-1,1.1-1.4,1.6l-0.1,0.1l-2.6,3.3
			c-2.7,3.7-6.1,8.5-9,13.9c-2.9,5.3-5.3,10.7-7.3,16.1c-2,5.7-3.7,11.8-4.7,17.7c-4.8,25.6-0.3,53.2,12.5,75.7
			c3.3,5.7,7.1,11.3,11.3,16.5c0.4,0.5,0.8,1,1.3,1.5c0.6,0.8,1.3,1.5,1.9,2.3l3.5,3.7l3.7,3.5c0.7,0.6,1.4,1.3,2.1,1.9
			c0.5,0.4,1,0.8,1.5,1.3c4.9,4.2,10.2,8.1,15.8,11.4c5.1,3.1,10.8,5.8,17.1,8.3c6,2.3,12,4.1,17.6,5.2c5.7,1.1,11.7,2,17.5,2.4
			c1.6,0.1,3.3,0.2,5,0.2l0,0c3.7,0,7.5-0.3,11.7-0.7c5.6-0.5,10.9-1.6,15.3-2.7c9.2-2.3,17.7-5.5,25.5-9.5
			c6.5-3.4,12.6-7.4,17.6-11.4l0.3-0.2c0.6-0.4,1.1-0.9,1.7-1.4c0.4-0.4,0.8-0.7,1.2-1c0.3-0.3,0.6-0.5,1-0.8
			c0.6-0.5,1.1-0.9,1.5-1.3c0.8-0.8,1.5-1.4,2.1-1.9c0.8-0.7,1.3-1.2,1.8-1.7l0.1-0.1c2.4-2.4,3.3-3.4,3.3-3.4l4.2-4.2l32.2,29.7
			l-4.4,4.5c0,0-1.3,1.3-4.2,4.3c-1,1.1-2.3,2.1-3.5,3.4c-0.6,0.6-1.3,1.2-2.1,1.9c-0.8,0.8-1.7,1.6-2.7,2.4
			c-0.4,0.3-0.7,0.6-1.1,0.9l-0.1,0.1c-0.4,0.3-0.8,0.7-1.2,1c-0.9,0.8-1.9,1.6-3.1,2.6c-7.2,5.7-15.3,11-24.5,15.8
			c-10.8,5.6-22.8,10.1-35.4,13.2h-0.1c-8.1,1.8-14.8,3-21.3,3.6C309.1,456.7,303.9,457,298.8,457z M184,212.9
			c-4.9,6.6-8.6,12.3-11.6,17.8c-3.7,6.8-6.9,13.7-9.3,20.6c-2.7,7.4-4.7,15-6,22.7c-3,15.8-3.2,32.7-0.5,49
			c2.7,16.8,8.4,33.2,16.6,47.8c16.3,29.3,43.3,52.6,74.2,64.2c7.7,3,15.2,5.2,22.6,6.6c7.3,1.4,14.8,2.5,22.4,2.9
			c2.1,0.1,4.3,0.2,6.5,0.2c4.7,0,9.5-0.2,14.8-0.7c5.8-0.5,12.1-1.6,19.6-3.3c11.7-2.9,22.6-7,32.6-12.2c8.4-4.4,16-9.3,22.5-14.5
			l0.2-0.2c0.8-0.6,1.6-1.3,2.6-2c0.5-0.4,0.9-0.8,1.4-1.2c0.4-0.4,0.8-0.7,1.2-1c0.8-0.6,1.4-1.2,2-1.7c0.8-0.8,1.6-1.5,2.4-2.1
			c1.1-1,2-1.8,2.8-2.7l-14.4-13.1c-0.5,0.5-1,1-1.6,1.5c-0.5,0.5-1.1,1-1.8,1.6c-0.7,0.7-1.5,1.3-2.3,1.9c-0.3,0.2-0.6,0.5-0.9,0.7
			l-0.1,0.1c-0.3,0.3-0.7,0.5-1,0.8c-0.7,0.6-1.5,1.3-2.5,2c-5.6,4.5-12.2,8.7-19.4,12.6c-8.6,4.5-18.1,8.1-28.2,10.5h-0.1
			c-4.9,1.1-10.6,2.4-17,3c-4.6,0.4-8.8,0.7-12.8,0.7l0,0c-1.9,0-3.8-0.2-5.6-0.3c-6.5-0.3-13-1.2-19.3-2.5
			c-6.2-1.2-12.9-3.3-19.5-5.7c-7-2.7-13.3-5.7-19-9.2c-6.1-3.7-12-7.9-17.5-12.6l-0.1-0.1c-0.4-0.4-0.9-0.8-1.3-1.1
			c-0.9-0.8-1.8-1.5-2.8-2.5l-4-3.8l-3.6-3.8c-0.8-0.9-1.6-1.8-2.4-2.8c-0.4-0.5-0.8-0.9-1.2-1.4l-0.1-0.1
			c-4.7-5.7-8.9-11.9-12.5-18.2c-14.2-25-19.3-55.7-13.9-84c1.2-6.5,3-13.2,5.2-19.6c2.1-5.9,4.9-12,8-17.8c3.3-6,7.1-11.5,10-15.4
			l0.1-0.1l2.6-3.3c0.7-0.9,1.3-1.6,1.9-2.4c0.3-0.3,0.6-0.7,0.9-1c1.4-1.7,3.1-3.4,4.5-4.9c0.4-0.4,0.8-0.8,1.2-1.3l0.1-0.1
			c7-7,14.9-13.2,23.7-18.6c6.5-4,13.6-7.4,21-10.1c2.4-0.9,4.5-1.5,6.3-2.1c0.6-0.2,1.1-0.4,1.7-0.5l0.2-0.1
			c1.5-0.4,2.9-0.8,4.1-1.1c0.4-0.1,0.9-0.2,1.2-0.3l-3.7-18.9c-0.6,0.2-1.2,0.3-1.9,0.5c-1.5,0.4-3.3,0.8-5.1,1.4l-1.7,0.5
			c-2.5,0.7-5,1.5-7.7,2.7c-8.5,3.2-16.7,7.1-24.2,11.7c-10.1,6.1-19.3,13.4-27.4,21.5L196,199c-1.8,1.9-3.8,3.9-5.5,5.9
			c-0.4,0.5-0.8,1-1.2,1.4c-0.7,0.8-1.3,1.5-1.9,2.4L184,212.9z"/>
	</g>
</g>
<g>
	<g>
		<path fill="#020202" d="M348,300.9c0,0-0.1-1.5-0.2-3.8c0-0.5,0-1.3-0.1-2c-0.1-0.7-0.2-1.5-0.3-2.4c-0.1-0.8-0.2-1.7-0.4-2.7
			c-0.2-0.9-0.5-1.8-0.7-2.9c-1.1-4-2.9-8.9-6.1-13.7c-3.2-4.9-7.8-9.8-13.7-13.9c-6-4-13.4-6.9-21.6-7.9c-1-0.2-2-0.1-3.1-0.2
			l-1.5-0.1c-0.5,0-1-0.1-1.5,0c-2.1,0.2-4.3,0.1-6.4,0.5c-4.3,0.5-8.5,1.9-12.7,3.6c-1,0.5-2,1-3.1,1.4c-1,0.5-1.9,1.1-3,1.7
			l-1.4,0.9l-1.3,1c-0.9,0.7-1.8,1.3-2.8,2c-3.6,3-6.6,6.5-9.3,10.4c-2.6,4-4.6,8.3-6,12.8c-1.3,4.6-1.9,9.3-2.1,14.1
			c0.1,4.8,0.7,9.6,2.1,14.1s3.5,8.9,6,12.8c2.7,3.9,5.8,7.5,9.3,10.4c0.9,0.7,1.8,1.4,2.8,2l1.3,1l1.4,0.9c1,0.6,1.9,1.2,3,1.7
			c1,0.5,2,1,3.1,1.4c4.1,1.7,8.4,3.2,12.7,3.6c2.1,0.4,4.3,0.4,6.4,0.5c0.5,0.1,1,0,1.5,0l1.5-0.1c1-0.1,2,0,3.1-0.2
			c8.2-1,15.5-3.9,21.6-7.9s10.5-9,13.7-13.9c3.3-4.8,5-9.7,6.1-13.7c0.3-1,0.5-1.9,0.7-2.9c0.2-0.9,0.3-1.7,0.4-2.6
			s0.2-1.5,0.3-2.3c0.1-0.7,0.1-0.9,0.1-1.5C348,301.7,348,300.9,348,300.9h31.5c0,0-0.1,1.6-0.3,5.3c-0.1,0.9-0.1,1.7-0.2,2.9
			c-0.2,1.1-0.3,2.3-0.5,3.6c-0.2,1.3-0.4,2.8-0.7,4.2c-0.4,1.5-0.8,3.1-1.2,4.7c-1.8,6.6-4.8,14.6-10.2,22.6
			c-5.3,8-12.7,16.2-22.5,22.8c-9.8,6.5-22.1,11.5-35.6,13c-1.6,0.2-3.4,0.2-5.1,0.4c-0.8,0-1.7,0.1-2.6,0.1c-0.8,0.1-1.7,0.1-2.6,0
			c-3.5-0.2-7-0.2-10.5-0.9c-7.1-0.9-14.1-3.1-20.9-6c-1.6-0.8-3.4-1.6-5-2.5c-1.6-0.8-3.3-1.8-4.8-2.9l-2.4-1.4
			c-0.8-0.5-1.5-1.1-2.3-1.6c-1.5-1.1-3.1-2.3-4.5-3.5c-5.8-4.9-10.9-10.7-15.3-17.1c-4.3-6.4-7.6-13.6-9.9-21.2
			c-2.3-7.6-3.3-15.4-3.5-23.3c0.1-7.9,1.2-15.8,3.5-23.3c2.4-7.5,5.7-14.6,9.9-21.2c4.4-6.4,9.5-12.2,15.3-17.1
			c1.4-1.2,3-2.4,4.5-3.5c0.7-0.5,1.5-1.1,2.3-1.6l2.4-1.4c1.6-0.9,3.2-2,4.8-2.9c1.6-0.8,3.4-1.6,5-2.5c6.8-2.9,13.8-5.1,20.9-6
			c3.5-0.6,7.1-0.7,10.5-0.9c0.8-0.1,1.7,0,2.6,0s1.7,0.1,2.6,0.1c1.7,0.1,3.4,0.1,5.1,0.4c13.5,1.6,25.8,6.4,35.6,13
			c9.8,6.5,17.3,14.7,22.5,22.8c5.3,8,8.3,16,10.2,22.6c0.4,1.6,0.8,3.3,1.2,4.7c0.3,1.5,0.5,3,0.7,4.3s0.4,2.6,0.5,3.7
			c0.2,1.1,0.1,2.6,0.2,3.5c0.2,3.7,0.3,6,0.3,6H348V300.9z"/>
		<path d="M299.2,386.6c-0.5,0-1,0-1.5,0c-0.6,0-1.3-0.1-1.9-0.1c-2.9-0.1-5.9-0.3-9.1-0.8c-7-0.9-14.3-3-22.3-6.4l-0.3-0.1l-5-2.5
			c-1.4-0.7-2.7-1.4-3.9-2.3c-0.5-0.3-0.9-0.6-1.4-0.9l-2.8-1.7c-0.6-0.4-1.1-0.8-1.7-1.2l-0.7-0.5c-0.4-0.3-0.9-0.6-1.3-1
			c-1.1-0.8-2.3-1.7-3.5-2.7c-6-5.1-11.6-11.3-16.4-18.3c-4.5-6.9-8.1-14.4-10.7-22.7c-2.4-7.8-3.6-16.2-3.8-25.1v-0.1v-0.1
			c0.2-8.9,1.4-17.3,3.7-25c2.7-8.4,6.2-16.1,10.7-22.8c4.9-7.2,10.4-13.3,16.5-18.4c1.1-0.9,2.3-1.8,3.4-2.7c0.4-0.3,0.9-0.6,1.3-1
			l0.7-0.5c0.6-0.4,1.1-0.8,1.7-1.3l0.3-0.2l2.5-1.5c0.5-0.3,0.9-0.6,1.4-0.8c1.2-0.7,2.4-1.4,3.8-2.1l5.3-2.6
			c8.1-3.4,15.3-5.5,22.3-6.4c3.2-0.6,6.1-0.7,9.1-0.8c0.6,0,1.3-0.1,1.9-0.1c1.1-0.1,2.3-0.1,3.4,0l2.7,0.1c0.5,0,1,0.1,1.5,0.1
			c1.2,0.1,2.6,0.1,4,0.3c13.7,1.6,26.8,6.4,38.2,14c9.5,6.3,17.9,14.8,24.2,24.6c4.8,7.2,8.4,15.1,10.9,24.3l0.5,1.8l0.8,3.3
			c0.3,1.2,0.4,2.4,0.6,3.4c0.1,0.4,0.1,0.8,0.2,1.2l0.6,3.8c0.1,1.1,0.2,2.1,0.2,3c0,0.3,0,0.6,0,0.9v0.2c0,0.1,0,0.1,0,0.2h0.6
			l-0.4,6.2l0.2,6h-0.5c0,0.1,0,0.2,0,0.3c0,0.7-0.1,1.5-0.2,2.6l-0.3,1.7c-0.1,0.6-0.2,1.2-0.3,1.9v0.1c-0.1,0.4-0.1,0.7-0.2,1.1
			c-0.1,1-0.3,2.1-0.6,3.4v0.2l-1.2,4.9c-2.6,9.2-6.2,17.2-11,24.3c-6.3,9.6-14.7,18.1-24.2,24.5c-11.4,7.6-24.6,12.4-38.2,14
			c-1.4,0.2-2.8,0.3-4,0.3c-0.5,0-1,0-1.5,0.1h-0.5l-2.3,0.1C300.4,386.6,299.8,386.6,299.2,386.6z M269.2,368
			c7,3,13.2,4.8,19.1,5.5l0.4,0.1c2.4,0.4,4.9,0.5,7.6,0.7c0.7,0,1.4,0.1,2.1,0.1h0.1c0.6,0,1.2,0,1.7,0l2.6-0.1
			c0.6,0,1.1-0.1,1.7-0.1c1,0,1.9-0.1,2.8-0.2h0.2c11.8-1.4,23.1-5.5,32.8-12.1c8.2-5.4,15.3-12.7,20.8-21.1
			c4.1-6.1,7.2-12.9,9.4-20.9l1.1-4.5c0.2-0.8,0.3-1.6,0.4-2.5c0.1-0.4,0.1-0.8,0.2-1.2c0.1-0.7,0.2-1.3,0.3-1.9l0.2-1.6
			c0-0.4,0.1-0.7,0.1-1.1h-19.4l-0.3,1.6c-0.1,0.3-0.1,0.6-0.1,0.8c-0.1,0.6-0.2,1.3-0.4,2.1l-0.4,1.5l-0.4,1.7
			c-1.1,3.8-3.1,9.6-7,15.4c-4,6.1-9.4,11.5-15.3,15.5c-7.2,4.7-15.4,7.8-24.1,8.9c-1,0.2-1.9,0.2-2.7,0.2c-0.3,0-0.6,0-0.8,0
			l-1.6,0.1c-0.8,0.1-1.7,0.1-2.6,0c-0.5,0-1.1-0.1-1.7-0.1c-1.5-0.1-3.3-0.1-5.1-0.5c-5.4-0.6-10.3-2.5-14-4l-0.3-0.1l-3.1-1.4
			c-0.9-0.5-1.7-0.9-2.5-1.4c-0.3-0.2-0.6-0.4-0.9-0.5l-2.1-1.3l-1.4-1.1c-0.3-0.2-0.6-0.5-0.9-0.7c-0.6-0.4-1.3-0.9-2-1.5
			c-3.7-3.2-7.2-7.1-10.3-11.6l-0.1-0.1c-2.8-4.2-5-9-6.8-14.3v-0.2c-1.4-4.7-2.1-9.8-2.4-15.8v-0.2v-0.2c0.2-5.8,0.9-11,2.4-15.8
			v-0.2c1.7-5.3,4-10.1,6.8-14.3l0.1-0.1c3.2-4.5,6.6-8.4,10.4-11.6c0.7-0.6,1.3-1.1,1.9-1.5c0.3-0.2,0.6-0.4,0.9-0.7l2-1.5l1.5-0.9
			c0.3-0.2,0.6-0.4,0.9-0.5c0.7-0.4,1.4-0.9,2.4-1.3l3.4-1.6c3.7-1.5,8.6-3.4,14-4c1.8-0.4,3.6-0.4,5.1-0.5c0.6,0,1.1,0,1.7-0.1
			c0.8-0.1,1.7-0.1,2.6,0l1.6,0.1c0.3,0,0.6,0,0.8,0c0.7,0,1.6,0,2.7,0.2c8.6,1,17,4.1,24,8.8c6,4.1,11.4,9.4,15.4,15.7
			c3.9,5.8,5.8,11.6,7,15.4l0.8,3.3c0.2,0.8,0.3,1.5,0.4,2.1c0,0.2,0.1,0.5,0.1,0.7c0.1,0.5,0.1,0.9,0.2,1.3l0.2,1
			c0,0.2,0.1,0.5,0.1,0.7h19.2c0-0.2,0-0.5,0-0.7c0-0.6-0.1-1.3-0.1-1.7l-0.5-3.6c-0.1-0.4-0.1-0.9-0.2-1.3
			c-0.1-0.8-0.2-1.6-0.4-2.5l-1.1-4.6c-2.3-7.9-5.3-14.7-9.4-20.8c-5.5-8.4-12.7-15.7-20.9-21.1c-9.7-6.4-21.1-10.6-32.8-12h-0.2
			c-0.8-0.1-1.7-0.2-2.8-0.2c-0.6,0-1.1-0.1-1.7-0.1l-2.6-0.1c-0.7,0-1.2-0.1-1.8,0h-0.1c-0.7,0-1.4,0.1-2.1,0.1
			c-2.7,0.1-5.1,0.2-7.6,0.7l-0.4,0.1c-5.8,0.7-12.2,2.6-19.1,5.5l-4.9,2.4c-0.8,0.4-1.7,1-2.8,1.6c-0.5,0.3-1,0.6-1.5,0.9l-2.1,1.3
			c-0.4,0.3-0.9,0.6-1.3,1l-0.7,0.5c-0.4,0.3-0.9,0.7-1.3,1c-1,0.7-1.9,1.4-2.8,2.1c-5.2,4.4-10,9.8-14.2,16
			c-3.8,5.7-6.9,12.4-9.2,19.5c-1.9,6.4-3,13.7-3.2,21.5c0.2,7.8,1.2,14.9,3.2,21.5c2.3,7.2,5.3,13.7,9.2,19.5
			c4.2,6,8.9,11.5,14.1,15.9c0.8,0.7,1.8,1.4,2.8,2.1c0.5,0.3,0.9,0.7,1.4,1l0.6,0.5c0.4,0.3,0.9,0.6,1.3,0.9l2.1,1.3
			c0.5,0.3,1,0.6,1.5,0.9c1,0.6,1.9,1.2,2.9,1.6L269.2,368z M281.9,339.1c4.4,1.8,7.8,2.8,10.8,3.2l0.6,0.1c0.9,0.2,2.1,0.2,3.4,0.3
			c0.7,0,1.4,0.1,2.3,0.1h0.2c0.1,0,0.2,0,0.3,0l1.7-0.1c0.5,0,0.9-0.1,1.4-0.1c0.4,0,0.8,0,1-0.1h0.3c6.8-0.8,13.3-3.2,18.9-7
			c4.6-3.1,8.8-7.4,12-12.2c3-4.4,4.4-8.7,5.4-12l0.7-2.7c0.1-0.3,0.1-0.6,0.2-1c0.1-0.4,0.1-0.8,0.2-1.2l0.3-2.1c0-0.1,0-0.2,0-0.2
			c0-0.2,0-0.4,0-0.7c0.1-1.4,0.1-2.4,0.2-2.8c0-0.6-0.1-1.7-0.2-3.4c0-0.3,0-0.6,0-0.9c0-0.2,0-0.4,0-0.6c0-0.3-0.1-0.7-0.2-1.1
			l-0.2-1.2c-0.1-0.3-0.1-0.7-0.2-1.1c0-0.4-0.1-0.7-0.2-1l-0.7-2.7c-0.9-3.3-2.5-7.6-5.3-11.9c-3.3-4.9-7.4-9.1-12.1-12.3
			c-5.5-3.7-12.1-6-18.9-6.9h-0.3c-0.2,0-0.6,0-1-0.1c-0.5,0-0.9,0-1.4-0.1l-1.7-0.1c-0.1,0-0.2,0-0.3,0h-0.2
			c-0.7,0.1-1.4,0.1-2.3,0.1c-1.2,0.1-2.5,0.1-3.4,0.3l-0.6,0.1c-3.1,0.3-6.4,1.3-10.8,3.2l-2.9,1.4c-0.3,0.1-0.7,0.4-1.1,0.7
			c-0.4,0.3-0.9,0.5-1.3,0.8l-1.1,0.7l-1,0.8c-0.4,0.3-0.8,0.6-1.2,0.9c-0.5,0.3-0.9,0.6-1.2,0.9c-3,2.5-5.7,5.6-8.3,9.2
			c-2.1,3.2-3.9,7-5.2,11.3c-1,3.6-1.6,7.7-1.8,12.4c0.2,4.7,0.7,8.7,1.8,12.4c1.4,4.2,3.2,8,5.2,11.3c2.6,3.7,5.3,6.8,8.2,9.2
			c0.4,0.3,0.8,0.6,1.3,1c0.4,0.3,0.8,0.6,1.2,0.9l1,0.8l1.1,0.7c0.4,0.3,0.9,0.5,1.3,0.8s0.9,0.5,1.2,0.7L281.9,339.1z"/>
	</g>
	<g>
		<path fill="#FF931E" d="M276,343.1c0,0,1.4,0.6,3.9,1.8c1.2,0.5,2.9,1,4.6,1.7c0.9,0.3,1.9,0.5,3,0.7c0.5,0.1,1,0.3,1.6,0.4
			c0.5,0.1,1.1,0.2,1.7,0.3c4.6,0.9,10.3,1,16.1,0.1c5.8-0.9,11.9-3,17.3-6.2c5.4-3.2,10.1-7.6,13.8-12.3c0.8-1.2,1.8-2.3,2.5-3.6
			c0.4-0.6,0.7-1.2,1.1-1.8s0.7-1.1,1-1.8c0.6-1.2,1.1-2.4,1.7-3.6c0.4-1.2,0.8-2.4,1.2-3.5c0.5-1.1,0.6-2.3,0.9-3.3
			c0.1-0.5,0.3-1,0.4-1.5c0.1-0.5,0.3-0.9,0.3-1.4c0.1-0.9,0.3-1.8,0.4-2.7c0.1-0.8,0.3-1.2,0.3-1.9c0.1-2.8,0.2-4,0.2-4h31.5
			c0,0-0.1,2.3-0.3,6.8c0,1.1-0.3,2.1-0.4,3.6c-0.2,1.3-0.4,2.8-0.7,4.3c-0.1,0.8-0.3,1.5-0.5,2.4c-0.2,0.8-0.4,1.6-0.6,2.5
			c-0.5,1.7-0.8,3.6-1.5,5.3c-0.7,1.8-1.3,3.7-2.1,5.7c-0.9,1.9-1.8,3.9-2.8,5.8c-0.5,1-1,1.9-1.6,3c-0.6,1-1.2,1.9-1.8,3
			c-1.1,2-2.7,3.9-4.1,5.8c-5.9,7.7-13.7,14.8-22.6,20.2s-18.9,8.8-28.5,10.3c-9.6,1.4-18.7,1.3-26.4-0.2c-0.9-0.2-1.9-0.3-2.9-0.5
			c-0.9-0.2-1.7-0.4-2.7-0.7c-1.7-0.4-3.4-0.8-4.9-1.3c-3-1.1-5.6-1.9-7.7-2.9c-4.1-1.9-6.4-3.1-6.4-3.1L276,343.1z"/>
		<path d="M298.7,386.6c-5.1,0-9.9-0.4-14.4-1.3c-0.3,0-0.5-0.1-0.8-0.1c-0.7-0.1-1.5-0.2-2.5-0.4l-4.1-1c-1.2-0.3-2.5-0.6-3.7-1
			l-0.3-0.1l-2-0.7c-2.1-0.8-4.2-1.5-6-2.3l-0.2-0.1c-4.1-1.9-6.4-3.1-6.5-3.2l-5.6-2.9l20.8-38.3l5.2,2.4c0.1,0,1.5,0.7,3.9,1.8
			c0.5,0.2,1.1,0.4,1.8,0.7c0.7,0.2,1.4,0.5,2.3,0.8c0.4,0.1,0.7,0.2,1.1,0.3c0.5,0.1,1,0.2,1.4,0.4l1.5,0.4c0.1,0,0.2,0,0.3,0
			c0.3,0,0.6,0.1,0.9,0.1h0.2c3.9,0.8,8.9,0.8,13.9,0.1c5.2-0.8,10.4-2.7,15-5.4s8.7-6.4,12-10.6c0.3-0.4,0.6-0.8,0.9-1.1
			c0.5-0.6,0.9-1.1,1.1-1.5l0.2-0.3l1.1-1.9c0.2-0.3,0.4-0.7,0.5-0.8l0.1-0.3l1.5-3.3c0.4-1.1,0.8-2.3,1.2-3.3l0.1-0.3
			c0.1-0.2,0.2-0.7,0.3-1.1c0.1-0.4,0.2-0.8,0.3-1.3l0.4-1.5c0-0.2,0.1-0.3,0.1-0.4v-0.3l0.4-2.7c0.1-0.4,0.1-0.8,0.2-1.2v-0.1
			c0.1-2.9,0.2-4.2,0.2-4.3l0.5-5.5H386l-0.3,6.3c0,0-0.1,2.3-0.3,6.8c0,1.1-0.2,2.1-0.3,3.1c-0.1,0.3-0.1,0.7-0.2,1l-0.3,2.1
			c-0.1,0.7-0.2,1.4-0.3,2.3c-0.1,1-0.4,2-0.6,2.9l-0.7,2.8c-0.1,0.4-0.2,0.9-0.3,1.3c-0.3,1.3-0.7,3-1.4,4.6l-2.3,6
			c-0.9,1.9-1.8,3.9-2.9,5.9c-0.6,1.3-1.2,2.5-1.9,3.6l-1.7,2.9c-1.1,1.8-2.4,3.6-3.5,5.1c-0.3,0.4-0.6,0.8-0.9,1.2l-0.1,0.1
			c-6.6,8.6-15,16.2-24.3,21.7c-9.3,5.6-19.9,9.4-30.7,11.2C308,386.2,303.3,386.6,298.7,386.6z M277,371c0.9,0.3,1.9,0.5,3.1,0.8
			l4,1c0.3,0.1,0.8,0.1,1.2,0.2c0.4,0.1,0.7,0.1,1.1,0.2h0.1c7.3,1.4,15.9,1.4,24.3,0.2c9.2-1.4,18.3-4.7,26.3-9.5
			c8-4.7,15.2-11.2,20.9-18.5c0.3-0.4,0.6-0.9,1-1.3c1-1.3,1.9-2.7,2.7-3.9l0.1-0.2l1.8-3c0.5-0.8,1-1.6,1.3-2.4l0.1-0.2
			c0.9-1.8,1.8-3.7,2.7-5.5l2-5.6c0.4-0.9,0.6-1.9,0.9-3.1c0.1-0.5,0.3-1,0.4-1.5l0.7-2.7c0.1-0.6,0.3-1,0.3-1.4v-0.2
			c0.1-0.8,0.2-1.6,0.4-2.4l0.3-1.9c0.1-0.4,0.1-0.8,0.2-1.2c0.1-0.6,0.2-1.1,0.2-1.5v-0.2c0-0.1,0-0.2,0-0.3h-19.3
			c0,0.1,0,0.2-0.1,0.3c0,0.1,0,0.2-0.1,0.3l-0.4,2.6c-0.1,0.9-0.3,1.7-0.5,2.3l-0.4,1.6c-0.1,0.2-0.1,0.5-0.2,0.7
			c-0.2,0.8-0.4,1.9-0.9,3.1c-0.4,1-0.7,2-1.1,3.2l-0.3,0.6l-1.6,3.4c-0.4,1-0.9,1.8-1.4,2.6l-1,1.6c-0.7,1.2-1.4,2.3-2.1,3.2
			c-0.2,0.3-0.5,0.6-0.7,0.9l-0.1,0.2c-4.2,5.5-9.6,10.2-15.5,13.8s-12.7,5.9-19.4,7.1c-6.5,1-12.9,0.9-18.2-0.1c-0.1,0-0.2,0-0.3,0
			c-0.5-0.1-1.1-0.1-1.9-0.4l-1.5-0.4c-0.4-0.1-0.8-0.2-1.2-0.3c-0.6-0.2-1.3-0.3-1.9-0.5l-0.5-0.2c-0.7-0.3-1.5-0.5-2.1-0.8
			c-0.5-0.2-1-0.3-1.4-0.5l-9.2,17c0.2,0.1,0.3,0.1,0.5,0.2c1.4,0.6,3.2,1.2,5.2,1.9L277,371z"/>
	</g>
</g>
</svg>
