<?xml version="1.0" encoding="utf-8"?>
<!-- Generator: Adobe Illustrator 17.1.0, SVG Export Plug-In . SVG Version: 6.00 Build 0)  -->
<!DOCTYPE svg PUBLIC "-//W3C//DTD SVG 1.1//EN" "http://www.w3.org/Graphics/SVG/1.1/DTD/svg11.dtd">
<svg version="1.1" id="Layer_1" xmlns="http://www.w3.org/2000/svg" xmlns:xlink="http://www.w3.org/1999/xlink" x="0px" y="0px"
	 viewBox="0 0 100 100" enable-background="new 0 0 100 100" xml:space="preserve">
<g>
	<path fill="#FFFFFF" d="M37.7,97c-2.2,0-5.4-1.4-7.1-2.8L11.3,78.1c-1.7-1.4-3.4-4.4-3.8-6.6L3.1,46.8c-0.4-2.2,0.2-5.5,1.3-7.4
		L17,17.5c1.1-1.9,3.7-4.1,5.8-4.8l23.7-8.6c2.1-0.8,5.5-0.7,7.5,0l23.7,8.7c2.1,0.8,4.7,2.9,5.8,4.8l12.6,21.9
		c1.1,1.9,1.7,5.2,1.3,7.4l-4.4,24.6c-0.4,2.2-2.1,5.1-3.8,6.5L70,94.2c-1.7,1.4-4.9,2.8-7.1,2.8H37.7z"/>
	<path fill="none" stroke="#2B2B2B" stroke-width="4" stroke-miterlimit="10" d="M37.7,97c-2.2,0-5.4-1.4-7.1-2.8L11.3,78.1
		c-1.7-1.4-3.4-4.4-3.8-6.6L3.1,46.8c-0.4-2.2,0.2-5.5,1.3-7.4L17,17.5c1.1-1.9,3.7-4.1,5.8-4.8l23.7-8.6c2.1-0.8,5.5-0.7,7.5,0
		l23.7,8.7c2.1,0.8,4.7,2.9,5.8,4.8l12.6,21.9c1.1,1.9,1.7,5.2,1.3,7.4l-4.4,24.6c-0.4,2.2-2.1,5.1-3.8,6.5L70,94.2
		c-1.7,1.4-4.9,2.8-7.1,2.8H37.7z"/>
</g>
<g>
	<g>
		<path fill="#2B2B2B" d="M49.7,42.6c-3.2,2.5-6.3,5.1-9.9,7c-0.6,0.3-1.1,0.5-1.7,0.7c-1.6,0.5-2.8,2-2.8,3.7
			c0,1.7,1.2,3.2,2.8,3.6c1.7,0.4,3.5-0.2,4.2-1.8c1-2,2.7-3.3,4.4-4.5c0.7-0.5,0.9-0.4,1.5,0.2c0.6-1.2,1.2-2.4,1.8-3.6
			c0,0,0.1,0,0.1,0c0,0.1,0,0.2,0,0.3c-1,3.4-2,6.9-3,10.3c-0.2,0.8-0.6,1.3-1.3,1.8c-1.9,1.2-2.4,3.8-1.2,5.7
			c1.2,1.9,3.6,2.6,5.6,1.5c2-1,2.9-3.5,1.9-5.5c-0.4-0.7-0.4-1.4-0.2-2.1c0.5-1.9,0.8-3.9,1.9-5.6c0.5-0.7,1.1-1.4,1.8-2
			c0.8-0.7,1.5-0.5,2.2,0.3c0.8,1,1.1,2.1,1,3.4c-0.1,1.8,0.9,3.3,2.6,3.9c1.6,0.5,3.3,0,4.3-1.4c1-1.4,0.9-3.2-0.2-4.6
			c-1.3-1.6-2.8-3.1-4.1-4.7c-2.2-2.8-2.3-5.8-0.5-8.9c1-1.7,1.9-3.4,2.9-5.1c0.9-1.5,2-2.8,3.5-3.7c1.3-0.7,2.6-0.9,3.9,0
			c0.8,0.6,1.8,1,2.6,1.5c2,1.2,3,2.9,3.1,5.2c0,7.5,0,15.1,0,22.6c0,2.3-1,4-3,5.1C67,70,60.2,73.8,53.4,77.7c-2,1.1-4.1,1.1-6.1,0
			c-6.9-3.9-13.7-7.7-20.6-11.6c-1.9-1.1-2.9-2.8-2.9-5c0-7.7,0-15.3,0-23c0-2.2,1-3.9,2.9-4.9c6.9-4,13.9-7.9,20.9-11.8
			c1.8-1,3.7-1,5.6-0.1c1.1,0.5,2.1,1.2,3.1,1.7c0.8,0.5,1.2,1.2,1.3,2.1c0.2,1.6-0.2,3.1-1,4.4c-0.9,1.7-1.9,3.4-2.9,5
			c-1.8,3-4.5,4.8-7.9,5.3c-2.2,0.4-4.4,0.1-6.6-0.2c-1.6-0.2-3.1,0.7-3.7,2.2c-0.6,1.5,0,3.2,1.4,4c1.4,0.9,3.1,0.6,4.2-0.6
			c0.7-0.8,1.7-0.7,2.6-0.9c0.7-0.1,1.4-0.1,2.1-0.2c0.2,0,0.5-0.1,0.7-0.2c1.1-0.6,2.1-1.1,3.2-1.7C49.7,42.5,49.7,42.6,49.7,42.6z
			"/>
		<path fill="#2B2B2B" d="M49.6,42.5c0.1,0,0.2,0,0.2-0.1c0,0.1-0.1,0.1-0.1,0.2C49.7,42.6,49.7,42.5,49.6,42.5z"/>
	</g>
</g>
</svg>
