<?xml version="1.0" encoding="utf-8"?>
<!-- Generator: Adobe Illustrator 17.1.0, SVG Export Plug-In . SVG Version: 6.00 Build 0)  -->
<!DOCTYPE svg PUBLIC "-//W3C//DTD SVG 1.1//EN" "http://www.w3.org/Graphics/SVG/1.1/DTD/svg11.dtd">
<svg version="1.1" id="Layer_1" xmlns="http://www.w3.org/2000/svg" xmlns:xlink="http://www.w3.org/1999/xlink" x="0px" y="0px"
	 viewBox="0 0 200 200" enable-background="new 0 0 200 200" xml:space="preserve">
<g>
	<g>
		<path fill="#2B2B2B" d="M99.7,83.3c-6.1,4.7-12,9.7-18.9,13.3c-1.1,0.6-2.2,1-3.3,1.4c-3.1,1-5.3,3.8-5.2,7c0,3.2,2.3,6.1,5.3,6.9
			c3.2,0.8,6.6-0.4,8-3.4c1.9-3.9,5.2-6.3,8.5-8.6c1.3-0.9,1.8-0.8,2.8,0.5c1.2-2.4,2.3-4.6,3.4-6.9c0.1,0,0.1,0,0.2,0.1
			c0,0.2,0.1,0.4,0,0.5c-1.9,6.5-3.8,13.1-5.7,19.6c-0.4,1.4-1.2,2.5-2.6,3.4c-3.7,2.3-4.6,7.2-2.3,10.9c2.2,3.6,6.9,4.9,10.7,2.9
			c3.8-2,5.5-6.6,3.6-10.5c-0.7-1.4-0.7-2.6-0.4-4c1-3.7,1.5-7.5,3.6-10.7c0.9-1.4,2.1-2.7,3.4-3.7c1.5-1.3,2.9-0.9,4.1,0.7
			c1.5,1.9,2.2,4,2,6.5c-0.3,3.4,1.8,6.3,4.9,7.4c3,1,6.4-0.1,8.2-2.7c1.9-2.7,1.8-6.2-0.4-8.8c-2.6-3-5.3-5.9-7.8-9
			c-4.2-5.4-4.5-11.1-1-17c1.9-3.2,3.7-6.5,5.5-9.7c1.7-2.9,3.7-5.3,6.7-7c2.5-1.4,4.9-1.6,7.5,0c1.6,1.1,3.4,1.9,5,2.9
			c3.8,2.2,5.8,5.6,5.8,10c0,14.4,0,28.8,0,43.1c0,4.3-2,7.7-5.7,9.8c-13,7.4-26,14.7-39,22.1c-3.9,2.2-7.8,2.2-11.7,0
			c-13.1-7.3-26.2-14.7-39.3-22.1c-3.6-2-5.5-5.3-5.6-9.5c0-14.6,0-29.2,0-43.8c0-4.1,1.9-7.4,5.5-9.4c13.2-7.6,26.5-15,39.8-22.4
			c3.4-1.9,7.1-1.8,10.6-0.1c2,1,4,2.2,5.9,3.3c1.6,0.9,2.3,2.4,2.5,4.1c0.4,3-0.4,5.8-1.8,8.4c-1.8,3.2-3.5,6.4-5.5,9.6
			c-3.5,5.7-8.5,9.1-15.1,10.2c-4.2,0.7-8.4,0.1-12.6-0.4c-3.1-0.3-5.9,1.3-7,4.2c-1.1,2.9,0,6,2.6,7.7c2.6,1.6,5.8,1.2,8-1.1
			c1.4-1.4,3.2-1.4,4.9-1.7c1.3-0.2,2.7-0.2,4.1-0.4c0.4-0.1,0.9-0.2,1.3-0.4c2-1.1,4.1-2.1,6.1-3.2C99.6,83.2,99.7,83.2,99.7,83.3z
			"/>
		<path fill="#2B2B2B" d="M99.6,83.1c0.2,0,0.3-0.1,0.5-0.1c-0.1,0.1-0.2,0.2-0.3,0.3C99.7,83.2,99.6,83.2,99.6,83.1z"/>
	</g>
</g>
<g>
	<path fill="none" stroke="#2B2B2B" stroke-width="4" stroke-miterlimit="10" d="M14,58.1c0-4.4,3.3-9.8,7.1-12L93.2,4.9
		c3.8-2.2,10.1-2.2,13.9,0l72,41.3c3.8,2.2,6.9,7.6,6.9,12v82.4c0,4.4-3.1,9.8-6.9,12l-72,41.3c-3.8,2.2-10.1,2.2-13.9,0l-72.1-41.3
		c-3.8-2.2-7.1-7.6-7.1-12V58.1z"/>
</g>
</svg>
