<?xml version="1.0" encoding="utf-8"?>
<!-- Generator: Adobe Illustrator 17.1.0, SVG Export Plug-In . SVG Version: 6.00 Build 0)  -->
<!DOCTYPE svg PUBLIC "-//W3C//DTD SVG 1.1//EN" "http://www.w3.org/Graphics/SVG/1.1/DTD/svg11.dtd">
<svg version="1.1" id="Layer_1" xmlns="http://www.w3.org/2000/svg" xmlns:xlink="http://www.w3.org/1999/xlink" x="0px" y="0px"
	 viewBox="0 0 200 200" enable-background="new 0 0 200 200" xml:space="preserve">
<g>
	<g>
		<path fill="#2B2B2B" d="M150.7,70.4c-2.9,2.9-5.8,5.9-8.8,8.7c-1.1,1-1.6,1.8-1.6,3.3c-0.7,23.9-10.7,42.8-32.1,54
			c-19.6,10.3-39.6,9.2-59-1.7c-0.3-0.2-0.5-0.3-0.8-0.7c11.1,0.7,21.1-2,30.4-9c-5.9-0.5-10.8-2.4-14.5-6.5c-2.1-2.3-3.6-5-5.4-7.6
			c0.2-0.2,0.3-0.5,0.5-0.7c2.8,0,5.6,0,8.4,0c0-0.2,0.1-0.3,0.1-0.5c-5.9-1.7-10.5-5-13.5-10.4c-1.8-3.2-2.7-6.5-2.7-10.1
			c3,0.8,5.8,1.6,8.7,2.5c0.1-0.2,0.2-0.3,0.3-0.5c-4.2-3.3-7.2-7.4-8.3-12.7c-1.1-5.2-0.4-10.2,2.3-15.1
			c11.5,13.4,25.9,20.8,43.7,22c-0.8-4.5-0.6-8.6,1-12.6c5.4-13.6,22.8-17.8,33.8-8.1c1.2,1.1,2.3,1.4,3.8,0.8
			c3.6-1.3,7.1-2.6,10.9-4c-1.6,4.5-4.4,7.9-8.2,10.9c1.2-0.2,2.4-0.4,3.5-0.6c1.2-0.3,2.3-0.6,3.5-1c1.2-0.4,2.4-0.8,3.6-1.2
			C150.3,70,150.5,70.2,150.7,70.4z"/>
	</g>
</g>
<g>
	<path fill="none" stroke="#2B2B2B" stroke-width="4" stroke-miterlimit="10" d="M13,58.3c0-4.4,3.3-9.8,7.1-12L93.3,4.5
		c3.8-2.2,10.1-2.2,13.9,0l73,41.8c3.8,2.2,6.8,7.6,6.8,12v83.5c0,4.4-2.9,9.8-6.7,12l-73.1,41.8c-3.8,2.2-10,2.2-13.8,0l-73.3-41.8
		c-3.8-2.2-7.1-7.6-7.1-12V58.3z"/>
</g>
</svg>
