<?xml version="1.0" encoding="utf-8"?>
<!-- Generator: Adobe Illustrator 17.1.0, SVG Export Plug-In . SVG Version: 6.00 Build 0)  -->
<!DOCTYPE svg PUBLIC "-//W3C//DTD SVG 1.1//EN" "http://www.w3.org/Graphics/SVG/1.1/DTD/svg11.dtd">
<svg version="1.1" id="Layer_1" xmlns="http://www.w3.org/2000/svg" xmlns:xlink="http://www.w3.org/1999/xlink" x="0px" y="0px"
	 viewBox="0 0 100 100" enable-background="new 0 0 100 100" xml:space="preserve">
<g>
	<path fill="#FFFFFF" d="M37.7,97c-2.2,0-5.4-1.4-7.1-2.8L11.3,78.1c-1.7-1.4-3.4-4.4-3.8-6.6L3.1,46.8c-0.4-2.2,0.2-5.5,1.3-7.4
		l12.6-21.8c1.1-1.9,3.7-4.1,5.8-4.8l23.7-8.6c2.1-0.8,5.5-0.7,7.5,0l23.7,8.7c2.1,0.8,4.7,2.9,5.8,4.8l12.6,21.9
		c1.1,1.9,1.7,5.2,1.3,7.4l-4.4,24.6c-0.4,2.2-2.1,5.1-3.8,6.5L70,94.2C68.4,95.6,65.2,97,63,97H37.7z"/>
	<path fill="none" stroke="#2B2B2B" stroke-width="4" stroke-miterlimit="10" d="M37.7,97c-2.2,0-5.4-1.4-7.1-2.8L11.3,78.1
		c-1.7-1.4-3.4-4.4-3.8-6.6L3.1,46.8c-0.4-2.2,0.2-5.5,1.3-7.4l12.6-21.8c1.1-1.9,3.7-4.1,5.8-4.8l23.7-8.6c2.1-0.8,5.5-0.7,7.5,0
		l23.7,8.7c2.1,0.8,4.7,2.9,5.8,4.8l12.6,21.9c1.1,1.9,1.7,5.2,1.3,7.4l-4.4,24.6c-0.4,2.2-2.1,5.1-3.8,6.5L70,94.2
		C68.4,95.6,65.2,97,63,97H37.7z"/>
</g>
<g>
	<g>
		<path fill="#2B2B2B" d="M81.5,31.9c-1.8,1.8-3.5,3.6-5.4,5.3c-0.7,0.6-0.9,1.1-1,2c-0.4,14.6-6.5,26.2-19.6,33
			c-11.9,6.3-24.1,5.6-35.9-1c-0.2-0.1-0.3-0.2-0.5-0.4c6.7,0.4,12.9-1.2,18.5-5.5c-3.6-0.3-6.6-1.4-8.9-3.9
			c-1.3-1.4-2.2-3.1-3.3-4.6c0.1-0.1,0.2-0.3,0.3-0.4c1.7,0,3.4,0,5.1,0c0-0.1,0.1-0.2,0.1-0.3c-3.6-1-6.4-3.1-8.2-6.3
			c-1.1-1.9-1.6-4-1.6-6.2c1.8,0.5,3.5,1,5.3,1.5c0.1-0.1,0.1-0.2,0.2-0.3c-2.6-2-4.4-4.6-5.1-7.8c-0.7-3.2-0.3-6.3,1.4-9.2
			c7,8.2,15.8,12.7,26.6,13.4c-0.5-2.7-0.4-5.3,0.6-7.7c3.3-8.3,13.9-10.9,20.6-4.9c0.8,0.7,1.4,0.8,2.3,0.5
			c2.2-0.8,4.3-1.6,6.7-2.4c-1,2.7-2.7,4.8-5,6.7c0.7-0.1,1.4-0.2,2.1-0.4c0.7-0.2,1.4-0.4,2.1-0.6c0.7-0.2,1.5-0.5,2.2-0.8
			C81.3,31.7,81.4,31.8,81.5,31.9z"/>
	</g>
</g>
</svg>
