<?xml version="1.0" encoding="utf-8"?>
<!-- Generator: Adobe Illustrator 17.1.0, SVG Export Plug-In . SVG Version: 6.00 Build 0)  -->
<!DOCTYPE svg PUBLIC "-//W3C//DTD SVG 1.1//EN" "http://www.w3.org/Graphics/SVG/1.1/DTD/svg11.dtd">
<svg version="1.1" id="Layer_1" xmlns="http://www.w3.org/2000/svg" xmlns:xlink="http://www.w3.org/1999/xlink" x="0px" y="0px"
	 viewBox="0 0 640 340" enable-background="new 0 0 640 340" xml:space="preserve">
<polygon fill="none" stroke="#DBBABA" stroke-width="0.5" stroke-miterlimit="10" points="411.9,100 430.9,101.5 423.6,114.6 "/>
<polygon fill="#E2AF9A" points="411.9,100 423.6,114.6 419.9,116.5 "/>
<polygon fill="#F9C6B5" points="419.9,116.5 423.6,114.6 428.4,118.9 "/>
<polygon fill="#FEDFCD" points="419.9,116.5 428.4,118.9 419.3,124.5 "/>
<polygon fill="#FECDBB" points="419.3,124.5 428.4,118.9 429.3,126.1 ">
<animateTransform  type="translate" fill="freeze" attributeName="transform" id="11" accumulate="none" dur="10s" additive="replace" restart="always" values="0,0;0,-6;0,0" calcMode="linear" attributeType="XML">
	</animateTransform>
</polygon>
<polygon fill="#FEFADD" points="429.3,126.1 422.5,129.4 419.3,124.5 "/>
<polygon fill="none" stroke="#FCFAFA" stroke-width="0.5" stroke-miterlimit="10" points="431.9,129.5 435.6,135.5 429.9,134.7 "/>
<polygon fill="#B18387" points="429.9,134.7 433.7,139.4 435.6,135.5 "/>
<polygon fill="#AD8282" points="435.6,135.5 438.3,137 433.7,139.4 "/>
<polygon fill="#9D7173" points="433.7,139.4 438.3,137 436.8,139.8 "/>
<polygon fill="#FDE5D3" points="422.5,129.4 422.5,137.8 429.9,134.7 "/>
<polygon fill="#D99890" points="422.5,137.8 429.9,134.7 426.6,142.3 "/>
<polygon fill="#C59493" points="429.9,134.7 433.7,139.4 426.6,142.3 "/>
<polygon fill="#D29388" points="426.6,142.3 421.2,142.7 422.5,137.8 "/>
<polygon fill="#D99890" points="421.2,142.7 417.2,140.5 422.5,137.8 "/>
<polygon fill="#FED4C2" points="417.2,140.5 417.5,133.3 422.5,137.8 "/>
<polygon fill="#FEF4D7" points="417.5,133.3 422.5,129.4 422.5,137.8 "/>
<polygon fill="#FED4C2" points="417.5,133.3 411.9,137.3 417.2,140.5 "/>
<polygon fill="#FEC2B6" points="411.9,137.3 412.1,139 417.2,140.5 "/>
<polygon fill="#D4978D" points="412.1,139 414.1,140.9 417.2,140.5 "/>
<polygon fill="#FEEFD2" points="411.9,137.3 414.8,132.2 417.5,133.3 "/>
<polygon fill="#FEF4D7" points="414.8,132.2 419.3,124.5 417.5,133.3 "/>
<polygon fill="#FEEFD2" points="419.3,124.5 422.5,129.4 417.5,133.3 "/>
<polygon fill="#FED5BC" points="411.9,100 430.9,101.5 422.9,56.2 "/>
<polygon fill="#F7C6AD" points="430.9,101.5 444.8,89.8 422.9,56.2 "/>
<polygon fill="#FCCCB3" points="444.8,89.8 452.5,57.9 422.9,56.2 "/>
<polygon fill="#C4A096" points="452.5,57.9 465.2,72.2 444.8,89.8 ">
<animateTransform  type="translate" fill="freeze" attributeName="transform" id="8" accumulate="none" dur="5s" additive="replace" restart="always" values="0,0;50,9;2,8" calcMode="linear" attributeType="XML">
	</animateTransform>
</polygon>
<polygon fill="#AC908B" points="444.8,89.8 467.8,93.2 465.2,72.2 "/>
<polygon fill="#A18785" points="444.8,89.8 467.5,101.5 467.8,93.2 "/>
<polygon fill="#AC908B" points="444.8,89.8 445.5,97 467.5,101.5 "/>
<polygon fill="#CDA296" points="444.8,89.8 445.5,97 430.9,101.5 "/>
<polygon fill="#837575" points="467.5,101.5 472.2,108.5 467.8,93.2 "/>
<polygon fill="#927F82" points="472.2,108.5 463.7,110.2 467.5,101.5 "/>
<polygon fill="#AA8D81" points="452.5,57.9 461.3,58.4 465.2,72.2 "/>
<polygon fill="#E4B6A3" points="422.9,56.2 432.5,49.3 452.5,57.9 "/>
<polygon fill="#AD9081" points="432.5,49.3 461.3,58.4 452.5,57.9 "/>
<polygon fill="#AD8282" points="431.9,129.5 438.3,137 435.6,135.5 "/>
<polygon fill="#FDD9BD" points="422.9,56 413.1,52.6 411.9,100 "/>
<polygon fill="#FEE7CD" points="411.9,100 406.3,97 413.1,52.6 "/>
<polygon fill="#FDEDD1" points="406.3,97 397.7,97 413.1,52.6 "/>
<polygon fill="none" stroke="#FCFAFA" stroke-width="0.5" stroke-miterlimit="10" points="397.7,97 393.4,98.3 387.6,62.2 "/>
<polygon fill="#FEEFCA" points="387.6,62.2 407.3,69.2 397.7,97 ">
<animateTransform  type="translate" fill="freeze" attributeName="transform" id="7" accumulate="none" dur="7s" additive="replace" restart="always" values="0,0;0,0;-140,40" calcMode="linear" attributeType="XML">
	</animateTransform>
</polygon>
<polygon fill="#FEFFDE" points="387.6,62.2 413.1,52.6 407.3,69.2 "/>
<polygon fill="#FDD9BD" points="387.6,62.2 397.7,53.6 413.1,52.6 "/>
<polygon fill="#C0A08E" points="413.1,52.6 420.8,53.1 422.9,56 "/>
<polygon fill="#FEE6C1" points="387.6,62.2 384.9,71.5 393.4,98.3 "/>
<polygon fill="#FEE1BD" points="384.9,71.5 384.1,99.3 393.4,98.3 "/>
<polygon fill="#F8CDAF" points="384.1,99.3 382.7,110.2 393.4,98.3 "/>
<polygon fill="#FEDBB8" points="386.8,105.6 389.4,118.9 382.7,110.2 "/>
<polygon fill="#E9BA9F" points="389.4,118.9 392.4,114.9 386.8,105.6 "/>
<polygon fill="#E9BA9F" points="389.1,109.5 393.4,98.3 386.8,105.6 "/>
<polygon fill="#C39B86" points="389.1,109.5 399.1,103.4 393.4,98.3 "/>
<polygon fill="#997568" points="399.1,103.4 406.3,97 397.7,97 "/>
<polygon fill="#A98271" points="399.1,103.4 397.7,97 393.4,98.3 "/>
<polygon fill="#A0786D" points="399.1,103.4 409.7,105.7 406.3,97 "/>
<polygon fill="#CC9B8B" points="409.7,105.7 411.9,100 406.3,97 "/>
<polygon fill="#B48775" points="409.7,105.7 416.2,108.9 411.9,100 "/>
<polygon fill="#8C7577" points="463.7,110.2 450.5,101.5 467.5,101.5 "/>
<polygon fill="none" stroke="#FCFAFA" stroke-width="0.5" stroke-miterlimit="10" points="428.4,118.9 450.5,101.5 430.9,101.5 "/>
<polygon fill="#B18C7F" points="443.8,106.8 463.7,110.2 450.5,101.5 "/>
<polygon fill="#8B7473" points="456.6,109 472.2,125 463.7,110.2 "/>
<polygon fill="#A28E8F" points="463.7,110.2 472.2,108.5 472.2,125 "/>
<polygon fill="#AF8178" points="434.5,114.1 441.5,116.5 428.4,118.9 "/>
<polygon fill="#D2A197" points="428.4,118.8 441.4,116.4 441.9,125.5 "/>
<polygon fill="none" stroke="#FCFAFA" stroke-width="0.5" stroke-miterlimit="10" points="451.4,115.9 465.6,130.1 441.9,125.6 "/>
<polygon fill="#CBA29B" points="451.4,115.9 460.8,113.3 465.6,130.1 "/>
<polygon fill="#756362" points="456.9,109.1 456.6,114.5 460.8,113.3 "/>
<polygon fill="#795F5D" points="456.7,112.3 450.9,108 456.9,109 "/>
<polygon fill="#9D756A" points="450.9,108 441,109 443.8,106.8 "/>
<polygon fill="#765A58" points="434.5,114.1 443.3,108.7 441,109 "/>
<polygon fill="#795F5D" points="443.3,108.7 443.8,110.2 441.9,113.7 444.6,116.5 441.5,116.5 434.5,114.1 "/>
<polygon fill="#7D6763" points="443.8,110.2 456.7,112.3 450.9,108 443.3,108.7 "/>
<polygon fill="#6B5E5F" points="456.7,112.3 451.4,115.9 456.6,114.5 "/>
<polygon fill="#777073" points="451.1,111.4 451.4,115.9 456.7,112.3 "/>
<polygon fill="#625B5B" points="451.1,111.4 447,116.5 451.4,115.9 "/>
<polygon fill="none" stroke="#FCFAFA" stroke-width="0.5" stroke-miterlimit="10" points="447,116.5 443.8,110.2 441.9,113.7 
	444.6,116.5 "/>
<polygon fill="#585657" points="443.8,110.2 451.1,111.4 447,116.5 "/>
<polygon fill="#786360" points="447,116.5 441.9,113.7 443.8,110.2 "/>
<polygon fill="#B5A09D" points="443.8,110.2 443.8,114.7 441.9,113.7 "/>
<polygon fill="#625B5B" points="448.6,111 449.7,113.1 451.1,111.4 "/>
<polygon fill="#786360" points="446.1,114.7 448.2,114.9 447,116.5 "/>
<polygon fill="#80757A" points="451.2,113.5 449.6,116.1 451.4,115.9 "/>
<polygon fill="#CCAEA9" points="441.9,113.7 441.5,116.5 444.6,116.5 "/>
<polygon fill="#946E6B" points="438.7,115.5 441.9,113.7 441.5,116.5 "/>
<polygon fill="#795F5D" points="441.9,113.7 438.9,111.4 443.3,108.7 "/>
<polygon fill="#795F5D" points="441.9,113.7 443.8,110.2 443.3,108.7 "/>
<polygon fill="#735758" points="438.9,111.4 438.7,115.5 441.9,113.7 "/>
<polygon fill="#7D6560" points="430.9,101.5 435.7,106.7 450.5,101.5 "/>
<polygon fill="#946E69" points="435.7,106.7 428.4,118.9 430.9,101.5 "/>
<polygon fill="#9D756A" points="428.4,118.9 435.7,106.7 450.5,101.5 "/>
<polygon fill="#E8B2A1" points="411.9,100 414.6,89.3 418.4,100.5 "/>
<polygon fill="#D3A094" points="424.1,101 429.6,94.3 430.9,101.5 "/>
<polygon fill="#DBA998" points="418.4,100.5 416,105.1 411.9,100 "/>
<polygon fill="#D3A094" points="424.1,101 428.5,105.9 430.9,101.5 "/>
<polygon fill="#FED4B2" points="382.7,110.2 382.2,118.9 389.4,118.9 "/>
<polygon fill="#FEEDC7" points="382.2,118.9 383.6,128.9 389.4,118.9 "/>
<polygon fill="#FEE8CD" points="383.6,128.9 385,138.4 389.4,118.9 "/>
<polygon fill="#FEDFC8" points="389.4,118.9 402,131.3 385,138.4 ">
<animate  fill="freeze" attributeName="opacity" from="0" accumulate="none" dur="5s" additive="replace" to="1" restart="always" calcMode="linear" attributeType="CSS">
	</animate>
</polygon>
<polygon fill="#F6BFA6" points="392.4,114.9 402,131.3 389.4,118.9 "/>
<polygon fill="#FABAA9" points="392.4,114.9 397,116.7 402,131.3 "/>
<polygon fill="#F6BFA6" points="397,116.7 401.9,117.6 402,131.3 "/>
<polygon fill="#EBB4A7" points="401.9,117.6 407.1,116.2 402,131.3 "/>
<polygon fill="#FED1C1" points="407.1,116.2 414.8,132.1 402,131.3 "/>
<polygon fill="#FEC3B1" points="419.3,124.5 414.8,132.1 407.1,116.2 "/>
<polygon fill="#F0BAAE" points="419.9,116.5 419.3,124.5 407.1,116.2 "/>
<polygon fill="#F7BDAA" points="412.4,114.7 407.1,116.2 419.9,116.5 "/>
<polygon fill="#C59582" points="412.4,114.7 416.2,108.9 419.9,116.5 "/>
<polygon fill="#B08173" points="412.4,114.7 409.7,105.7 416.2,108.9 "/>
<polygon fill="none" stroke="#FCFAFA" stroke-width="0.5" stroke-miterlimit="10" points="409.7,105.7 404.2,110.2 405.3,110.9 
	407.3,111.9 412.4,114.7 "/>
<polygon fill="#A97C74" points="404.2,110.2 399.1,103.4 409.7,105.7 "/>
<polygon fill="#F6BFA6" points="399.1,103.4 389.1,109.5 404.2,110.2 "/>
<polygon fill="#DBAC95" points="389.1,109.5 396.7,109.9 392.4,114.9 "/>
<polygon fill="#A77969" points="396.7,109.9 391.4,113.2 392.4,114.9 "/>
<polygon fill="#96685D" points="395.1,111.7 404.2,110.2 396.7,109.9 "/>
<polygon fill="#665B59" points="404.2,110.2 399.4,113.2 397.5,111.3 "/>
<polygon fill="#9F7A71" points="397.5,111.3 394.6,114.4 397,116.7 392.4,114.9 395.1,111.7 "/>
<polygon fill="#BFA7A0" points="397,116.7 401.9,117.6 399.4,113.2 "/>
<polygon fill="#5C5858" points="404.2,110.2 403.1,110.9 401.5,111.9 401.8,114.6 403.3,115.4 405.2,114 404.4,111.3 "/>
<polygon fill="#77625E" points="404.2,110.2 403.2,110.8 404.4,111.1 "/>
<polygon fill="#8F625F" points="404.3,110.3 404.4,111.1 405.3,110.9 404.2,110.2 411,110.3 412.4,114.7 "/>
<polygon fill="#5C5858" points="404.4,111.1 405.3,110.9 405.2,114 "/>
<polygon fill="#846660" points="405.3,110.9 407,111.7 407.3,114 405.2,114 "/>
<polygon fill="#846660" points="403.3,115.4 405.2,114 407.3,114 407.1,116.2 "/>
<polygon fill="#846660" points="403.3,115.4 401.9,117.6 407.1,116.2 "/>
<polygon fill="#D3C7C5" points="407,111.7 407.3,114 409.5,113.1 "/>
<polygon fill="#C1ADA8" points="407.3,114 409.5,113.1 407.1,116.2 "/>
<polygon fill="#986F69" points="409.5,113.1 412.4,114.7 407.1,116.2 "/>
<polygon fill="#846660" points="399.4,113.2 399.4,114.9 401.9,117.6 "/>
<polygon fill="#D3C7C5" points="397.6,111.4 399.4,111 399.4,113.2 "/>
<polygon fill="#FEDFC8" points="402,131.3 396.8,146.6 385,138.4 "/>
<polygon fill="#FABAA9" points="396.8,146.6 414.8,132.1 402,131.3 "/>
<polygon fill="#F5B4A4" points="414.8,132.1 411.9,137.3 409.5,136.3 "/>
<polygon fill="#9A7C7F" points="409.5,136.3 411.9,137.3 396.8,146.6 "/>
<polygon fill="#C59582" points="396.8,146.6 405.9,150.2 411.9,137.3 "/>
<polygon fill="#CD8E81" points="405.9,150.2 412.1,139 411.9,137.3 "/>
<polygon fill="#8B6E74" points="438.3,137 436.8,139.8 443.8,152.4 "/>
<polygon fill="#B09290" points="443.8,152.4 454.3,156 438.3,137 "/>
<polygon fill="#A57A7A" points="429.3,126.1 438.9,131.7 438.3,137 431.9,129.5 "/>
<polygon fill="#E7ADA3" points="429.3,126.1 441.9,125.6 428.4,118.9 "/>
<polygon fill="#CA9A92" points="441.9,125.6 438.9,131.7 429.3,126.1 "/>
<polygon fill="#ECB0A5" points="441.9,125.6 438.9,131.7 465.6,130.1 "/>
<polygon fill="#D69E94" points="438.9,131.7 438.3,137 465.6,130.1 "/>
<polygon fill="#D09A96" points="438.3,137 465.6,130.1 454.3,156 "/>
<polygon fill="#AE8D88" points="465.6,130.1 472.2,125 460.8,113.3 "/>
<polygon fill="#A99595" points="472.2,125 468.9,146.5 465.6,130.1 "/>
<polygon fill="#A6837B" points="465.6,130.1 468.9,146.5 454.3,156 "/>
<polygon fill="#A48D91" points="468.9,146.5 467.2,154.7 454.3,156 ">
<animateTransform  type="translate" fill="freeze" attributeName="transform" id="1" accumulate="none" dur="6s" additive="replace" restart="always" values="0,0;0,6;100,-80" calcMode="linear" attributeType="XML">
	</animateTransform>
</polygon>
<polygon fill="#9C7A79" points="467.2,154.7 462.4,165.1 454.3,156 "/>
<polygon fill="#967B7A" points="454.3,156 452.6,176.4 462.4,165.1 "/>
<polygon fill="#9A7C7F" points="454.3,156 443.8,152.4 452.6,176.4 "/>
<polygon fill="#806161" points="443.8,152.4 441,155.3 444.5,154.4 "/>
<polygon fill="#9B777B" points="444.5,154.4 446.3,153.3 443.8,152.4 "/>
<polygon fill="none" stroke="#FCFAFA" stroke-width="0.5" stroke-miterlimit="10" points="452.6,176.4 436.7,179 435.9,160.6 "/>
<polygon fill="none" stroke="#FCFAFA" stroke-width="0.5" stroke-miterlimit="10" points="452.6,176.4 438.3,184.5 436.7,179 "/>
<polygon fill="#B09290" points="445.3,169.5 436.7,179 452.6,176.4 "/>
<polygon fill="#D2A59E" points="445.3,169.5 435.9,160.6 436.7,179 "/>
<polygon fill="#FED5BC" points="385,138.4 387.9,154.2 396.8,146.6 "/>
<polygon fill="#DBAD98" points="396.8,146.6 397.2,170.1 387.9,154.2 "/>
<polygon fill="#E2B7A3" points="396.8,146.6 405.9,150.2 397.2,170.1 "/>
<polygon fill="#DAAC98" points="397.2,170.1 413.2,158.9 405.9,150.2 "/>
<polygon fill="#DCB7A5" points="413.2,158.9 411.9,179 397.2,170.1 "/>
<polygon fill="#AB9282" points="397.2,170.1 409,181.6 411.9,179 "/>
<polygon fill="#9D8274" points="411.9,179 419.9,185 409,181.6 "/>
<polygon fill="#816C6B" points="419.9,185 438.3,184.5 436.7,179 "/>
<polygon fill="#AA877A" points="436.7,179 411.9,179 419.9,185 "/>
<polygon fill="#DCA7A1" points="429.5,163.6 435.9,160.6 436.7,179 "/>
<polygon fill="#E2ACA3" points="429.5,163.6 422.6,179 436.7,179 "/>
<polygon fill="none" stroke="#FCFAFA" stroke-width="0.5" stroke-miterlimit="10" points="429.5,163.6 420.5,162.9 422.6,179 "/>
<polygon fill="#DCA7A1" points="420.5,162.9 411.9,179 413.2,158.9 "/>
<polygon fill="#EBB2A9" points="420.5,162.9 422.6,179 411.9,179 "/>
<polygon fill="#96757B" points="436.8,139.8 427.3,150.2 443.8,152.4 "/>
<polygon fill="#A5706B" points="421.2,142.7 423.1,144.2 426.6,142.3 "/>
<polygon fill="#9E6E6C" points="423.1,144.2 427.3,150.2 436.8,139.8 433.7,139.4 426.6,142.3 "/>
<polygon fill="none" stroke="#FCFAFA" stroke-width="0.5" stroke-miterlimit="10" points="423.1,144.2 419.3,151.3 423.9,153.1 "/>
<polygon fill="#E0AAA3" points="423.9,153.1 427.3,150.2 423.1,144.2 "/>
<polygon fill="none" stroke="#FCFAFA" stroke-width="0.5" stroke-miterlimit="10" points="419.3,151.3 417.2,140.5 421.2,142.7 
	423.1,144.2 "/>
<polygon fill="none" stroke="#FCFAFA" stroke-width="0.5" stroke-miterlimit="10" points="417.2,140.5 414.1,140.9 405.9,150.2 
	411.6,152.4 419.3,151.3 "/>
<polygon fill="#AA8885" points="396.9,151.9 405.9,150.2 396.8,146.6 "/>
<polygon fill="#C2948A" points="441.5,116.5 447,116.5 451.4,115.9 441.9,125.6 "/>
<polygon fill="#D0A397" points="405.9,150.2 411.2,154.2 411.6,152.4 "/>
<polygon fill="#D18D8A" points="413.2,158.9 411.2,154.2 405.9,150.2 "/>
<polygon fill="#C68582" points="411.2,154.2 417.2,156 411.6,152.4 "/>
<polygon fill="#DD9B95" points="411.6,152.4 419.3,151.3 417.2,156 "/>
<polygon fill="#D18D8A" points="417.2,156 423.1,156.6 419.3,151.3 "/>
<polygon fill="#CF7D83" points="423.1,156.6 423.9,153.1 419.3,151.3 "/>
<polygon fill="#AE6E71" points="423.1,156.6 427.7,156.6 423.9,153.1 "/>
<polygon fill="#DD9B95" points="427.7,156.6 427.3,150.2 423.9,153.1 "/>
<polygon fill="#A46C70" points="427.7,156.6 443.8,152.4 427.3,150.2 "/>
<polygon fill="#E5A49F" points="411.2,154.2 417.2,156 413.2,158.9 "/>
<polygon fill="#E8939A" points="417.2,156 423.1,156.6 420.5,162.9 "/>
<polygon fill="#FDC1C6" points="417.2,156 420.5,162.9 413.2,158.9 "/>
<polygon fill="#CF7D83" points="423.1,156.6 429.5,163.6 420.5,162.9 "/>
<polygon fill="#E28E95" points="423.1,156.6 427.7,156.6 429.5,163.6 "/>
<polygon fill="#CF7D83" points="429.5,163.6 435.9,160.6 427.7,156.6 "/>
<polygon fill="#C87F89" points="435.9,160.6 443.8,152.4 427.7,156.6 "/>
<polygon fill="#FEDECA" points="422.5,129.4 429.9,134.7 431.9,129.5 430.8,129.6 "/>
<polygon fill="#FED4C2" points="422.5,129.4 430.8,129.6 431.9,129.5 429.3,126.1 "/>
<polygon fill="none" stroke="#FCFAFA" stroke-width="0.5" stroke-miterlimit="10" points="423.1,197.2 452.6,176.4 461.6,183.6 "/>
<polygon fill="#927D82" points="461.6,183.6 459.5,193.6 423.1,197.2 "/>
<polygon fill="#8F7779" points="459.5,193.6 455.2,203.5 423.1,197.2 "/>
<polygon fill="#897377" points="455.2,203.5 449,211.5 423.1,197.2 "/>
<polygon fill="#786365" points="423.1,197.2 449,211.5 443.8,215.5 "/>
<polygon fill="#8B6F6E" points="423.1,197.2 443.8,215.5 433.5,219.2 "/>
<polygon fill="#96868D" points="452.6,176.4 463.2,164.1 461.6,183.6 "/>
<polygon fill="#A68780" points="423.1,197.2 422.6,224.5 433.5,219.2 "/>
<polygon fill="#B38F80" points="423.1,197.2 422.6,224.5 411.3,207.6 "/>
<polygon fill="#BF9C8F" points="423.1,197.2 401.3,194.8 411.3,207.6 "/>
<polygon fill="#CDA898" points="401.3,194.8 423.1,197.2 396.9,183 "/>
<polygon fill="#D7B19E" points="396.9,183 397.2,170.1 409,181.6 423.1,197.2 "/>
<polygon fill="#906E67" points="419.9,185 438.3,184.5 452.6,176.4 423.1,197.2 419.9,185 409,181.6 "/>
<path fill="#FFFFFF" stroke="#000000" stroke-miterlimit="10" d="M462.2,169.5"/>
<polygon fill="none" stroke="#FCFAFA" stroke-width="0.5" stroke-miterlimit="10" points="459,205.4 490.9,217.4 477.5,285.8 
	485.7,339.6 470,339.6 461.4,312.3 457.3,251 "/>
<polygon fill="none" stroke="#000000" stroke-width="0.5" stroke-miterlimit="10" points="473,178.2 531.3,200.5 530,247.3 
	520.4,288.2 507.2,328 513.6,339.6 485.7,339.6 477.5,285.8 490.9,217.4 459,205.4 487.9,215.1 489.6,208.8 475.9,180.5 "/>
<polygon fill="none" stroke="#111111" stroke-width="0.25" stroke-miterlimit="10" points="531.3,200.5 536.9,204.4 542.5,225.2 
	536.2,284.5 520,289.4 530,247.3 "/>
<polygon fill="none" stroke="#050505" stroke-width="0.25" stroke-miterlimit="10" points="392.9,163.9 347.4,165.1 338.5,174.4 
	332.6,189.5 329.7,211.5 330.9,226.3 337.1,240.4 338.5,252.4 345.9,277.3 350.6,260.6 355.5,216.6 364.1,190.1 390.3,190.5 
	376,188.9 372.7,179 "/>
<polygon fill="none" stroke="#FCFAFA" stroke-width="0.5" stroke-miterlimit="10" points="392.9,163.9 372.7,179 376,188.9 
	390.3,190.5 397.2,170.1 "/>
<polygon fill="none" stroke="#000000" stroke-width="0.25" stroke-miterlimit="10" points="390.3,190.5 364.1,190.1 355.5,216.6 
	350.6,260.6 345.9,277.3 340.4,295.9 338.9,313.8 343,326.9 351.3,335.1 346.6,306.9 347.5,289.7 357.7,268.4 370.2,244 
	382.1,217.8 "/>
<polygon fill="none" stroke="#020202" stroke-width="0.25" stroke-miterlimit="10" points="397.2,170.1 392.6,183.6 394.9,195.9 
	403.6,207.6 405.9,213 412.6,226.4 415.5,229.2 422.6,224.5 411.3,207.6 401.3,194.8 396.9,183 "/>
<polygon fill="none" stroke="#483B63" stroke-width="0.25" stroke-miterlimit="10" points="415.5,229.2 429.6,227.7 433.5,219.2 
	422.6,224.5 "/>
<polygon fill="none" stroke="#000000" stroke-width="0.25" stroke-miterlimit="10" points="429.6,227.7 427.5,229.2 424.8,235.2 
	424.4,251.5 421.4,270.5 420.7,276.4 420.3,284.9 420.9,303.7 419.6,309.5 416.8,311.7 414.3,322.7 411.2,339.6 398.9,339.9 
	403.3,311 404.9,309.2 407.2,306.3 408.3,297.1 407.6,279.6 410.1,262.1 413.5,237.8 414.3,232.2 415.5,229.2 "/>
<polygon fill="none" stroke="#020202" stroke-width="0.25" stroke-miterlimit="10" points="392.6,183.6 394.9,195.9 403.6,207.6 
	412.6,226.4 415.5,229.2 414.3,232.2 407.6,279.6 408.3,297.1 407.2,306.3 403.3,311 398.9,339.9 359.3,339.6 359.8,335.1 
	362.8,330.7 362.6,326.9 363.7,323.9 362.3,311.3 364.6,309.5 366.8,308.8 365.8,304.8 368.2,302 365.5,298.1 367.7,293.6 
	365.6,290.6 364.6,283.8 366.2,275.1 371.9,266.1 372,259.8 375.1,256.5 374.6,253.6 377.4,252.7 379.6,250.5 377.3,247.1 
	379.8,242.8 384.7,234.5 384.6,231.1 386.4,227.3 384.9,220.5 387.4,216.5 389.3,204.4 391.7,200.1 391.3,192.7 "/>
<polygon fill="#070707" points="359.3,339.6 359.8,335.1 362.8,330.7 362.6,326.9 363.7,323.9 362.3,311.3 364.6,309.5 366.8,308.8 
	365.8,304.8 368.2,302 365.5,298.1 367.7,293.6 365.6,290.6 364.6,283.8 366.2,275.1 371.9,266.1 372,259.8 375.1,256.5 
	374.6,253.6 377.4,252.7 379.6,250.5 377.3,247.1 384.7,234.5 384.6,231.1 386.4,227.3 384.9,220.5 387.4,216.5 389.3,204.4 
	391.7,200.1 391.3,192.7 392.6,183.6 382.1,217.8 370.2,244 357.8,268.2 347.5,289.7 346.6,306.9 351.3,335.1 "/>
<polygon fill="none" stroke="#020202" stroke-width="0.25" stroke-miterlimit="10" points="411.2,339.6 470,339.6 461.4,312.3 
	457.3,251 459,205.4 454,214.2 429.6,227.7 427.5,229.2 424.8,235.2 424.4,251.5 421.4,270.5 420.7,276.4 420.3,284.9 420.9,303.7 
	419.6,309.5 416.8,311.7 414.3,322.7 "/>
<polygon fill="#99757F" points="468.9,146.5 471.6,146.5 472.2,125 "/>
<polygon fill="#9D7C84" points="471.6,146.5 474,142.4 472.2,125 "/>
<polygon fill="#99757F" points="474,142.4 477.2,131.6 473,132.1 "/>
<polygon fill="#8E6A6E" points="477.2,131.6 477.2,117.6 473,132.1 "/>
<polygon fill="#93767A" points="477.2,131.6 481,121.7 477.2,117.6 "/>
<polygon fill="#8E6365" points="481,121.7 482.3,116.7 477.2,117.6 "/>
<polygon fill="#6B5E5E" points="482.3,116.7 482.3,113.9 477.2,117.6 "/>
<polygon fill="#625D5E" points="477.2,117.6 473,132.1 472.2,125 "/>
<polygon fill="#5A595A" points="477.2,117.6 472.2,125 472.2,108.5 "/>
<polygon fill="#575757" points="477.2,117.6 482.3,113.9 472.2,108.5 "/>
<polygon fill="#7D7370" points="482.3,113.9 488.7,109 482.3,116.7 "/>
<polygon fill="#75706C" points="482.3,113.9 488.7,109 472.2,108.5 "/>
<polygon fill="#575757" points="472.2,108.5 495.3,84.9 488.7,109 "/>
<polygon fill="#686462" points="472.2,108.5 495.3,84.9 500.4,60 ">
<animateTransform  type="rotate" fill="freeze" attributeName="transform" from="-22" accumulate="none" dur="5s" additive="sum" to="0" restart="always" calcMode="linear" attributeType="XML">
	</animateTransform>
</polygon>
<polygon fill="#353535" points="472.2,108.5 467.8,93.2 500.4,60 "/>
<polygon fill="#595859" points="465.2,72.2 500.4,60 467.8,93.2 "/>
<polygon fill="#686461" points="461.3,58.4 500.4,60 465.2,72.2 "/>
<polygon fill="#474647" points="461.3,58.4 488.7,52.6 484.8,59.3 "/>
<polygon fill="#686461" points="461.3,58.4 473.2,33.9 488.7,52.6 "/>
<polygon fill="#767067" points="473.2,33.9 480.9,31.8 488.7,52.6 "/>
<polygon fill="#6F6862" points="473.2,33.9 468.3,22.2 480.9,31.8 "/>
<polygon fill="#5A5859" points="473.2,33.9 461.3,58.4 450,49.3 "/>
<polygon fill="#846E68" points="432.5,49.3 450,49.3 461.3,58.4 "/>
<polygon fill="#5E5B5A" points="432.5,49.3 468.3,22.2 450,49.3 "/>
<polygon fill="#474647" points="450,49.3 468.3,22.2 473.2,33.9 ">
<animateTransform  type="translate" fill="freeze" attributeName="transform" id="5" accumulate="none" dur="5s" additive="replace" restart="always" values="0,0;20,-12;90,-20" calcMode="linear" attributeType="XML">
	</animateTransform>
</polygon>
<polygon fill="#514C4A" points="432.5,49.3 427.5,35.8 468.3,22.2 "/>
<polygon fill="#686461" points="427.5,35.8 440,14.3 468.3,22.2 "/>
<polygon fill="#5E5B5A" points="440,14.3 450,10.7 468.3,22.2 "/>
<polygon fill="none" stroke="#FCFAFA" stroke-width="0.5" stroke-miterlimit="10" points="422.9,56 420.8,53.1 417.4,22.8 
	427.5,35.8 "/>
<polygon fill="#6E6461" points="427.5,35.8 424.6,48.2 422.9,56 432.5,49.3 "/>
<polygon fill="none" stroke="#FCFAFA" stroke-width="0.5" stroke-miterlimit="10" points="417.4,22.8 436.1,7.1 427.5,35.8 "/>
<polygon fill="#353535" points="436.1,7.1 440,14.3 427.5,35.8 "/>
<polygon fill="#736C67" points="436.1,7.1 450,10.7 440,14.3 "/>
<polygon fill="#68625D" points="420.8,53.1 405.4,41.3 417.4,22.8 "/>
<polygon fill="#67615E" points="413.1,52.6 405.4,41.3 420.8,53.1 "/>
<polygon fill="none" stroke="#FCFAFA" stroke-width="0.5" stroke-miterlimit="10" points="413.1,52.6 392,32.3 397.7,53.6 "/>
<polygon fill="#514C4A" points="413.1,52.6 405.4,41.3 392,32.3 "/>
<polygon fill="#676260" points="405.4,41.3 402,16.2 392,32.3 "/>
<polygon fill="#514C4A" points="405.4,41.3 413.5,10.7 402,16.2 ">
<animateTransform  type="rotate" fill="freeze" attributeName="transform" from="0" accumulate="none" dur="19s" additive="replace" to="2" restart="always" calcMode="linear" attributeType="XML">
	</animateTransform>
<animateTransform  type="scale" fill="freeze" attributeName="transform" from="1" accumulate="none" dur="7s" additive="replace" to="0" restart="always" calcMode="linear" attributeType="XML">
	</animateTransform>
</polygon>
<polygon fill="#736D66" points="413.5,10.7 417.4,22.8 405.4,41.3 "/>
<polygon fill="#6C655F" points="413.5,10.7 436.1,7.1 417.4,22.8 "/>
<polygon fill="#6A6462" points="413.5,10.7 417.4,3.2 436.1,7.1 "/>
<polygon fill="#353535" points="402,16.2 417.4,3.2 413.5,10.7 "/>
<polygon fill="#686461" points="487.4,54.9 493.8,59.7 484.8,59.3 "/>
<polygon fill="#514C4A" points="387.6,62.2 381.2,20 397.7,53.6 "/>
<polygon fill="#676260" points="397.7,53.6 392,32.3 381.2,20 "/>
<polygon fill="#6E6965" points="392,32.3 390.3,11.8 402,16.2 "/>
<polygon fill="#645F5C" points="375.2,29.6 387.6,62.2 384.9,71.5 "/>
<polygon fill="#645F5C" points="375.2,29.6 381.2,20 387.6,62.2 "/>
<polygon fill="#514C4A" points="359.4,52.6 384.9,71.5 384.1,99.3 ">
<animate  fill="freeze" attributeName="opacity" from="1" accumulate="none" dur="5s" additive="replace" to="0" restart="always" calcMode="linear" attributeType="CSS">
	</animate>
</polygon>
<polygon fill="#5A5859" points="359.4,52.6 382.2,118.9 382.7,110.2 384.1,99.3 "/>
<polygon fill="#353535" points="371.8,114.7 383.6,128.9 382.2,118.9 "/>
<polygon fill="#706560" points="369.8,82.7 371.8,114.7 382.2,118.9 "/>
<polygon fill="#8B7A70" points="361.7,59.3 370.6,95.7 369.8,82.7 "/>
<polygon fill="#736A65" points="384.9,71.5 368.9,50.5 375.2,29.6 "/>
<polygon fill="#6B6562" points="384.9,71.5 368.9,50.5 359.4,52.6 "/>
<polygon fill="#C1ADA8" points="397.6,111.4 394.6,114.4 397,116.7 399.4,113.2 "/>
<polygon fill="#76625E" points="399.4,113.2 401.5,111.9 401.8,114.6 403.3,115.4 401.9,117.6 "/>
<polygon fill="#BB907C" points="409.7,105.7 404.2,110.2 411,110.3 "/>
<polygon fill="#F7C6AD" points="418.4,100.5 424.1,101 428.5,105.9 423.6,114.6 416,105.1 "/>
<polygon fill="#CFAA95" points="422.8,56.2 424.6,48.3 432.5,49.4 "/>
<polygon fill="#C0A08E" points="420.8,53.1 424.6,48.2 422.8,56.1 421.2,53.8 420.7,53.1 "/>
<polygon fill="#CFAA95" points="397.7,53.6 410.2,49.8 413.1,52.6 "/>
<polygon fill="#AA9078" points="410.2,49.8 410.7,49.1 413.1,52.6 "/>
<polygon fill="#FEE9C8" points="397.7,97 387.6,62.2 393.4,98.3 "/>
<polygon fill="#B5A09D" points="441.9,113.7 447,116.5 444.6,116.5 "/>
<polygon fill="#8F625F" points="404.4,111.1 405.3,110.9 404.2,110.2 "/>
<polygon fill="#957C6A" points="415.3,48.9 420.8,53.1 413.1,52.6 "/>
<polygon fill="#D2A39C" points="396.7,109.9 402.2,107.6 404.2,110.2 "/>
<polygon fill="#BB8C8B" points="431.9,129.5 435.6,135.5 429.9,134.7 "/>
<polygon fill="#C49A93" points="451.4,115.9 441.9,125.6 465.6,130.1 "/>
<polygon fill="#8B6E74" points="426.6,142.3 436.8,139.8 433.7,139.4 "/>
<polygon fill="#846268" points="430.3,141.3 435.6,141 435.6,140.1 "/>
<polygon fill="#8B6E74" points="435.6,140.1 436.8,139.8 435.6,141 "/>
<polygon fill="#6D585C" points="427.7,156.6 441,155.3 443.8,152.4 "/>
<polygon fill="#D0A295" points="423.1,144.1 419.3,151.3 423.9,153.1 423.1,144.2 "/>
<polygon fill="#85585A" points="421.2,142.6 418.1,145.1 417.1,140.4 "/>
<polygon fill="#976964" points="418,145.1 423.1,144.1 421.2,142.6 "/>
<polygon fill="#BD9487" points="418.1,145 423.1,144 419.3,151.3 "/>
<polygon fill="#E9B0A5" points="414.1,140.9 411.3,144.1 419.3,151.2 "/>
<polygon fill="#F0B7AB" points="411.3,144.1 405.9,150.2 419.3,151.2 "/>
<polygon fill="#DAADA0" points="405.9,150.2 419.3,151.2 411.6,152.4 "/>
<polygon fill="#976A66" points="429.5,163.6 420.8,166 420.5,162.9 "/>
<polygon fill="#9B777B" points="420.8,166 428.3,166 429.5,163.6 "/>
<polygon fill="#E2ACA3" points="420.8,166 428.3,166 422.6,179 "/>
<polygon fill="#806161" points="413.2,158.9 420.5,162.9 420.8,166 "/>
<polygon fill="#A17B7C" points="428.3,166 435.9,160.6 429.5,163.6 "/>
<polygon fill="#9B777B" points="435.9,160.6 444.5,154.4 441,155.3 "/>
<polygon fill="#E2ACA3" points="420.8,166 428.6,165.8 422.7,179 "/>
<polygon fill="#817375" points="436.7,179 452.6,176.4 438.3,184.5 "/>
<polygon fill="#967B7A" points="438.3,184.5 440,185.3 452.6,176.4 "/>
<polygon fill="#846A67" points="438.3,184.5 423.1,197.2 440,185.3 "/>
<polygon fill="#625E5C" points="397.7,53.6 410.2,49.8 392,32.3 "/>
<polygon fill="#B08173" points="409.7,105.7 416.2,108.9 412.4,114.8 "/>
<polygon fill="#CC9B8B" points="409.6,105.7 409.7,105.6 409.8,105.8 "/>
<polygon fill="#CC9B8B" points="412.5,114.7 412.3,114.8 412.6,114.9 "/>
<polygon fill="#514C4A" points="420.8,53.1 424.6,48.2 417.4,22.8 "/>
<polygon fill="#605C5B" points="424.6,48.2 427.5,35.8 417.4,22.8 "/>
<polygon fill="#635E5B" points="417.4,22.8 436.1,7.1 427.5,35.8 "/>
<polygon fill="#706560" points="378.6,123.1 384.5,134.9 383.6,128.9 "/>
<polygon fill="#B18C7F" points="402.2,107.6 407.8,107.3 404.2,110.2 "/>
<polygon fill="#7D6560" points="399.1,103.4 407.8,100.8 406.3,97 "/>
<polygon fill="#8C7577" points="407.8,100.8 413.5,103.5 411.9,100 "/>
<polygon fill="#946E69" points="397.7,97 403.4,99.2 406.3,97 "/>
<polygon fill="#946E69" points="406.3,97 411.9,100 407.8,100.8 "/>
<polygon fill="#353535" points="427.5,35.8 457.2,30.7 468.3,22.2 "/>
<polygon fill="#93726A" points="419.9,185 409,181.6 423.1,197.2 "/>
<polygon fill="#8E7474" points="423.1,197.2 461.6,183.6 452.6,176.4 "/>
<polyline fill="#967B7A" points="463.5,162.7 463.2,164.1 462.4,165.1 "/>
<polygon fill="#C59582" points="387.9,154.2 392.9,163.9 397.2,170.1 "/>
<polygon fill="#756E70" points="381.6,172.3 397.2,170.1 392.6,183.6 "/>
<polygon fill="#6F6969" points="381.6,172.3 372.7,179 392.6,183.6 "/>
<polygon fill="#686365" points="372.7,179 392.6,183.6 375.9,189 "/>
<polygon fill="#6E6668" points="375.9,189 392.6,183.6 390.7,189.6 390.3,190.5 "/>
<path fill="#FED4C2" d="M429.9,134.7"/>
<polygon fill="#525354" points="530,247.3 507.2,328 477.5,285.8 "/>
<polygon fill="#F7C6AD" points="429.2,129.6 429.9,134.7 431.9,129.5 "/>
<path fill="#FED4C2" d="M429.3,126.1"/>
<polygon fill="#F9C6B5" points="429.2,129.6 429.3,126.1 431.9,129.5 "/>
<polygon fill="#7D6560" points="445.5,96.9 430.9,101.5 467.5,101.5 ">
<animate  fill="freeze" attributeName="opacity" from="0" accumulate="none" dur="2s" additive="replace" to="1" restart="always" calcMode="linear" attributeType="CSS">
	</animate>
</polygon>
<polygon fill="#A07C7A" points="430.9,101.5 423.6,114.6 423.6,114.6 428.4,118.9 "/>
<polygon fill="#E9B0A5" points="412.1,139 414.1,140.9 405.9,150.2 "/>
<polygon fill="#DCA198" points="414,140.9 417.1,140.4 419.3,151.2 "/>
<polygon fill="#B99592" points="444.5,154.4 435.9,160.6 452.6,176.4 "/>
<polygon fill="#686264" points="392.9,163.9 381.6,172.3 397.2,170.1 "/>
<polygon fill="#897C7B" points="347.4,165.1 392.9,163.9 372.7,179 ">
<animate  fill="freeze" attributeName="opacity" from="0" accumulate="none" dur="3s" additive="replace" to="1" restart="always" calcMode="linear" attributeType="CSS">
	</animate>
</polygon>
<polygon fill="#908381" points="347.4,165.1 338.5,174.4 372.7,179 "/>
<polygon fill="#827778" points="338.5,174.4 332.6,189.5 372.7,179 "/>
<polygon fill="#7C7372" points="390.3,190.5 364.1,190.1 332.6,189.5 372.7,179 375.9,189 "/>
<polygon fill="#7C7372" points="332.6,189.5 364.1,190.1 355.5,216.6 ">
<animateTransform  type="translate" fill="freeze" attributeName="transform" id="2" accumulate="none" dur="6s" additive="replace" restart="always" values="0,0;0,-200;0,-150" calcMode="linear" attributeType="XML">
	</animateTransform>
</polygon>
<polygon fill="#6A6565" points="355.5,216.6 329.7,211.5 332.6,189.5 "/>
<polygon fill="#716B6C" points="329.7,211.5 355.5,216.6 330.9,226.3 "/>
<polygon fill="#615F5F" points="355.5,216.6 330.9,226.3 337.1,240.4 "/>
<polygon fill="#5A595A" points="355.5,216.6 350.6,260.6 337.1,240.4 "/>
<polygon fill="#686365" points="375.9,189 390.5,190.5 390.7,189.7 "/>
<polygon fill="#302E2E" points="372.7,179 374.6,183.9 375.9,189 "/>
<polygon fill="#302E2E" points="372.7,179 381.5,172.2 392.9,163.9 381.7,172.3 "/>
<polygon fill="#877D7B" points="343,165.1 338.5,174.4 347.4,165.1 "/>
<polygon fill="#8B827D" points="343,165.1 338.9,168.9 338.5,174.4 "/>
<polygon fill="#7E7574" points="338.9,168.9 333.4,176.4 338.5,174.4 "/>
<polygon fill="#8B827D" points="338.5,174.4 332.6,189.5 333.4,176.4 "/>
<polygon fill="#DCB7A5" points="396.7,169.2 397.2,170.1 397.5,169.4 "/>
<polygon fill="#BDB0B4" points="397.2,170.1 396.9,183 392.6,183.6 "/>
<polygon fill="#615E5E" points="337.1,240.4 350.6,260.6 345.9,277.3 338.6,252.6 "/>
<polygon fill="#535354" points="343,326.9 350.2,328.2 351.3,335.1 "/>
<polygon fill="#636161" points="343,326.9 348.3,316.9 350.2,328.2 "/>
<polygon fill="#535353" points="338.9,313.8 348.3,316.9 343,326.9 "/>
<polygon fill="#626060" points="339.5,306.4 348.3,316.9 338.9,313.8 "/>
<polygon fill="#595959" points="339.5,306.4 346.6,306.9 348.3,316.9 "/>
<polygon fill="#555555" points="340.4,295.9 346.6,306.9 339.5,306.4 "/>
<polygon fill="#515151" points="340.4,295.9 346.6,306.9 347.5,289.7 "/>
<polygon fill="#555556" points="345.9,277.3 340.4,295.9 347.5,289.7 "/>
<polygon fill="#545556" points="347.5,289.7 346.6,283 350.6,260.6 350.6,260.6 350.4,262.6 "/>
<polygon fill="#545556" points="346.6,283 350.6,260.6 345.9,277.3 "/>
<polygon fill="#615D5C" points="347.5,289.7 355.5,261.5 351.9,248.4 "/>
<polygon fill="#545556" points="347.5,289.7 367.6,249 355.5,261.5 "/>
<polygon fill="#615D5C" points="355.5,261.5 367.6,249 353.9,230.7 "/>
<polygon fill="#615E5E" points="355.5,261.5 351.9,248.4 353.9,230.7 "/>
<polygon fill="#646061" points="363.1,242.9 382.1,217.8 370.5,243.5 367.6,249 "/>
<polygon fill="#646061" points="355.5,216.6 363.1,242.9 353.9,230.7 "/>
<polygon fill="#6D6668" points="359.2,205.1 363.1,242.9 355.5,216.6 "/>
<polygon fill="#686465" points="359.2,205.1 364.1,190.1 363.1,242.9 "/>
<polygon fill="#706A6B" points="363.1,242.9 382.1,217.8 363.8,205.4 "/>
<polygon fill="#787070" points="364.1,190.1 382.1,217.8 363.8,205.4 "/>
<polygon fill="#6E6668" points="364.1,190.1 382.1,217.8 390.5,190.5 "/>
<polygon fill="#686465" points="333.4,176.4 331.3,199.4 332.6,189.5 "/>
<polygon fill="#E8D6D9" points="392.6,183.6 401.3,194.8 396.9,183 "/>
<polygon fill="#ACA0A8" points="392.6,183.6 394.9,195.9 401.3,194.8 "/>
<polygon fill="#958B90" points="401.3,194.8 403.6,207.6 394.9,195.9 "/>
<polygon fill="#837981" points="401.3,194.8 403.6,207.6 411.3,207.6 "/>
<polygon fill="#828181" points="411.3,207.6 407.5,216.1 405.9,212.9 403.6,207.6 "/>
<polygon fill="#A099A1" points="411.3,207.6 419.8,220.3 407.5,216.1 "/>
<polygon fill="#D8CAC2" stroke="#F7F2F3" stroke-width="0.25" stroke-miterlimit="10" points="407.1,207.6 410,209.6 410.4,212.3 
	409,212.8 409,210.9 406.6,208.7 "/>
<polygon fill="#BDAEA3" stroke="#F7F2F3" stroke-width="0.25" stroke-miterlimit="10" points="406.6,208.7 406,209.4 406.3,211.3 
	407.3,212.2 408.5,213 409,212.8 409,210.9 "/>
<polygon fill="#BDAEA3" stroke="#F7F2F3" stroke-width="0.25" stroke-miterlimit="10" points="409,212.8 408.5,213 409.5,213.3 
	410.6,212.6 410.8,212.3 410.6,210.9 410.1,209.9 410.3,211.6 410.2,212.3 409.6,212.6 "/>
<polygon fill="#89828A" points="407.5,216.1 412.6,226.4 419.8,220.3 "/>
<polygon fill="#8E838D" points="419.8,220.3 412.6,226.4 422.6,224.5 "/>
<polygon fill="#93818A" points="422.6,224.5 412.6,226.4 415.5,229.2 "/>
<polygon fill="#978F9B" points="422.6,224.5 429.6,227.7 415.5,229.2 "/>
<polygon fill="#A0959F" points="422.6,224.5 433.5,219.2 429.6,227.7 "/>
<polygon fill="#78727B" points="433.5,219.2 431.4,224.5 429.6,227.7 "/>
<polygon fill="#78727B" points="415.5,229.2 428.7,227.9 429.6,227.7 "/>
<polygon fill="#716F82" points="433.5,219.2 432.3,222.1 429.6,227.7 443.8,215.5 "/>
<polygon fill="#827B88" points="443.8,215.5 454,214.2 429.6,227.7 "/>
<polyline fill="#716F82" points="449,211.5 459,205.4 454,214.2 443.8,215.5 "/>
<polygon fill="#6F6E85" points="455.2,203.5 459,205.4 449,211.5 "/>
<polygon fill="#787585" points="455.2,203.5 459.5,193.6 459,205.4 ">
<animateTransform  type="rotate" fill="freeze" attributeName="transform" from="-40" accumulate="none" dur="5s" additive="sum" to="0" restart="always" calcMode="linear" attributeType="XML">
	</animateTransform>
</polygon>
<polygon fill="#928D9A" points="459.5,193.6 461.3,194.2 459,205.4 "/>
<polygon fill="#787585" points="461.3,194.2 459.5,193.6 460.8,187.7 "/>
<polygon fill="#302E2E" points="390.5,190.5 365.6,189.7 364.1,190.1 "/>
<polygon fill="#302E2E" points="364.1,190.1 359.2,205.1 363.9,190.6 "/>
<polygon fill="#302E2E" points="359.2,205.1 355.5,216.6 358.4,207.3 "/>
<polygon fill="#302E2E" points="355.5,216.6 351.9,248.4 355.2,216.9 "/>
<polygon fill="#302E2E" points="350.6,260.6 347.5,289.7 348.8,276.2 "/>
<polygon fill="#302E2E" points="345.9,277.3 350.6,260.5 350.6,260.6 "/>
<polygon fill="#302E2E" points="375.9,189 390.5,190.5 376,189.1 "/>
<polygon fill="#5A5A5C" points="462.8,169.1 473,178.2 475.9,180.5 462.2,176.6 "/>
<polygon fill="#626164" points="462.2,176.6 475.9,180.5 461.6,183.6 "/>
<polygon fill="#5A5A5C" points="461.6,183.6 482.4,194 475.9,180.5 "/>
<polygon fill="#615C60" points="461.6,183.6 489.4,208.5 482.2,193.6 "/>
<polygon fill="#555557" points="461.6,183.6 460.8,187.7 461.3,194.2 489.4,208.5 "/>
<polygon fill="#626164" points="459,205.4 489.6,208.8 489.4,208.5 461.3,194.2 "/>
<polygon fill="#555557" points="489.6,208.8 487.9,215.1 459,205.4 "/>
<polygon fill="#0A0A0A" points="459,205.4 490.9,217.4 487.4,215.8 "/>
<polygon fill="#0A0A0A" points="459,205.4 487.1,215.1 487.9,215.1 "/>
<polygon fill="#0A0A0A" points="487.9,215.1 489.6,208.8 489.6,208.8 "/>
<polygon fill="#0A0A0A" points="489.6,208.8 489.6,208.8 482.2,193.6 "/>
<polygon fill="#1A191E" points="482.2,193.6 475.9,180.5 482.2,193.6 "/>
<polygon fill="#5A5A5D" points="457.4,244.9 490.9,217.4 489,226.9 "/>
<polygon fill="#6B6B6E" points="489,226.9 484.9,248 457.3,251 ">
<animateTransform  type="translate" fill="freeze" attributeName="transform" id="23" accumulate="none" dur="1s" additive="replace" restart="always" values="0,0;0,0;0,0" calcMode="linear" attributeType="XML">
	</animateTransform>
</polygon>
<polygon fill="#575659" points="457.3,251 477.5,285.8 480.9,268.5 "/>
<polygon fill="#5E5E61" points="457.3,251 485.7,339.6 477.5,285.8 "/>
<polygon fill="#525354" points="457.3,251 461.4,312.3 485.7,339.6 "/>
<polygon fill="#5A5A5D" points="461.4,312.3 470,339.6 485.7,339.6 "/>
<polygon fill="#535355" points="457.3,251 484.9,248 480.9,268.5 "/>
<polygon fill="#545456" points="489,226.9 457.3,251 457.4,244.9 "/>
<polygon fill="#555557" points="457.4,244.9 490.9,217.4 474.5,211.3 "/>
<polygon fill="#615C60" points="459,205.4 474.5,211.3 457.5,244.8 "/>
<polygon fill="#050303" points="490.9,217.4 477.9,284.4 477.5,285.8 "/>
<polygon fill="#050303" points="477.5,285.8 484.8,332.7 485.7,339.6 "/>
<polygon fill="#5E5D60" points="473,178.2 531.3,200.4 531,211.1 "/>
<polygon fill="#706F72" points="473,178.2 475.9,180.6 507.9,219.6 531,211.1 ">
<animateTransform  type="translate" fill="freeze" attributeName="transform" id="67" accumulate="none" dur="7s" additive="replace" restart="always" values="0,0;0,0;30,-90" calcMode="linear" attributeType="XML">
	</animateTransform>
</polygon>
<polygon fill="#545456" points="475.9,180.5 489.6,208.8 507.9,219.6 "/>
<polygon fill="#4C4C51" points="489.6,208.8 487.9,215.1 459,205.4 490.9,217.4 507.9,219.6 "/>
<polygon fill="#070707" points="490.9,217.4 465.6,207.8 459,205.4 "/>
<polygon fill="#070707" points="487.9,215.1 487.7,215.2 459,205.4 "/>
<polygon fill="#5A5A5D" points="507.9,219.6 531,211.1 530,247.3 ">
<animateTransform  type="rotate" fill="freeze" attributeName="transform" from="-40" accumulate="none" dur="5s" additive="sum" to="0" restart="always" calcMode="linear" attributeType="XML">
	</animateTransform>
</polygon>
<polygon fill="#545456" points="507.9,219.6 490.9,217.4 530,247.3 "/>
<polygon fill="#4C4F51" points="490.9,217.4 480.9,269.2 530,247.3 "/>
<polygon fill="#545557" points="530,247.3 477.5,285.8 477.9,284.4 480.9,269.2 "/>
<polygon fill="#545557" points="530,247.3 507.2,328 520.4,288.2 "/>
<polygon fill="#4C4F51" points="478.2,290.3 484,298.5 489.3,288.4 "/>
<polygon fill="#5A5A5D" points="477.5,285.8 485.7,339.6 507.2,328 "/>
<polygon fill="#4C4F51" stroke="#0A0A0A" stroke-width="0.25" stroke-miterlimit="10" points="478.2,290.3 500.3,286.4 508.3,282.3 
	513.2,277.8 516.2,271.2 512.2,291.1 484,298.5 "/>
<path fill="#4C4F51" d="M484,298.5"/>
<polygon fill="#525354" points="485.7,339.6 507.2,328 513.6,339.6 "/>
<polygon fill="#4C4F51" points="531.3,200.4 536.9,204.4 542.5,225.2 "/>
<polygon fill="#5A5A5C" points="531.3,200.4 542.5,252.1 542.5,225.2 "/>
<polygon fill="#6A696D" points="531.3,200.4 530,247.3 542.5,252.1 "/>
<polygon fill="#545557" points="542.9,255 534.9,226.2 536.1,284.5 "/>
<polygon fill="#4C4F51" points="534.9,226.2 520.4,288.2 536.2,284.5 "/>
<polygon fill="#5C5C5C" points="520.4,288.2 520,289.4 536.2,284.5 "/>
<polygon fill="none" stroke="#101111" stroke-width="0.25" stroke-miterlimit="10" points="530,247.3 530.1,242.5 531.3,200.4 "/>
<polygon fill="none" stroke="#101111" stroke-width="0.25" stroke-miterlimit="10" points="530,247.3 520.4,288.2 520,289.4 "/>
<polygon fill="#605D63" points="459,205.4 454,214.2 429.6,227.7 427.5,229.2 424.8,235.2 458.2,225.3 "/>
<polygon fill="#716F82" points="424.8,235.2 448.1,228.4 458.2,225.3 457.9,233 457.3,251 "/>
<polygon fill="#948B95" points="424.8,235.2 457.3,251 435.6,278 ">
<animateTransform  type="rotate" fill="freeze" attributeName="transform" from="-20" accumulate="none" dur="5s" additive="sum" to="0" restart="always" calcMode="linear" attributeType="XML">
	</animateTransform>
</polygon>
<polygon fill="#A79FAD" points="424.8,235.2 424.4,251.5 435.6,278 "/>
<polygon fill="#A298A1" points="424.4,251.5 421.4,270.5 435.6,278 "/>
<polygon fill="#877D83" points="421.4,270.5 420.7,276.4 435.6,278 "/>
<polygon fill="#9F969E" points="435.6,278 457.3,251 458.7,272 "/>
<polygon fill="#9C919A" points="435.6,278 420.7,276.4 420.3,284.9 420.9,303.7 "/>
<polygon fill="#91888D" points="420.9,303.6 458.7,272 435.6,278 "/>
<polygon fill="#9D96A1" points="458.7,272 461.4,312.3 420.9,303.6 "/>
<polygon fill="#625D5E" points="420.9,303.6 419.6,309.5 461.4,312.3 "/>
<polygon fill="#847D81" points="419.6,309.5 416.8,311.7 461.4,312.3 "/>
<polygon fill="#6F6868" points="416.8,311.7 461.4,312.3 463.3,318.4 "/>
<polygon fill="#867F86" points="416.8,311.7 415.5,317.5 411.2,339.6 463.3,318.4 "/>
<polygon fill="#545454" points="463.3,318.4 411.2,339.6 466.3,327.9 "/>
<polygon fill="#8D888C" points="466.3,327.9 411.2,339.6 460.8,339.6 "/>
<polygon fill="#6D6C6E" points="466.3,327.9 460.8,339.6 468,333.3 "/>
<polygon fill="#545454" points="468,333.3 460.8,339.6 470,339.6 "/>
<polygon fill="#8B8289" points="392.6,183.6 391.3,192.7 394.9,195.9 "/>
<polygon fill="#DACACC" points="391.3,192.7 391.7,200.1 394.9,195.9 "/>
<polygon fill="#B8ACB1" points="391.7,200.1 403.6,207.6 394.9,195.9 "/>
<polygon fill="#CFBDC2" points="391.7,200.1 395.8,222.6 403.6,207.6 "/>
<polygon fill="#A39CA1" points="391.7,200.1 389.3,204.4 395.8,222.6 "/>
<polygon fill="#686267" points="389.3,204.4 387.4,216.5 388.1,216.6 "/>
<polygon fill="#686267" points="388.1,216.6 387.4,216.5 384.9,220.5 "/>
<polygon fill="#686267" points="389.3,204.4 388.1,216.6 395.8,222.6 "/>
<polygon fill="#A1959C" points="403.6,207.6 395.8,222.6 412.6,226.4 "/>
<polygon fill="#E8D3D7" points="412.6,226.4 415.5,229.2 395.8,222.6 "/>
<polygon fill="#CEBCC2" points="388.1,216.6 384.9,220.5 395.8,222.6 "/>
<polygon fill="#B9ACB4" points="384.9,220.5 386.4,227.3 415.5,229.2 395.8,222.6 "/>
<polygon fill="#C2B3BB" points="386.4,227.3 384.6,231.1 415.5,229.2 "/>
<polygon fill="#A499A2" points="414.3,232.2 415.5,229.2 384.6,231.1 "/>
<polygon fill="#99929A" points="384.6,231.1 384.7,234.5 414.3,232.2 "/>
<polygon fill="#605C60" points="384.7,234.5 382.7,240.4 377.3,247.1 380,242.5 "/>
<polygon fill="#998E94" points="384.7,234.5 414.3,232.2 382.7,240.4 "/>
<polygon fill="#D0BCC3" points="405.5,234.5 405.1,244.9 382.7,240.4 ">
<animateTransform  type="rotate" fill="freeze" attributeName="transform" from="-38" accumulate="none" dur="5s" additive="sum" to="0" restart="always" calcMode="linear" attributeType="XML">
	</animateTransform>
</polygon>
<polygon fill="#BCAAB3" points="405.5,234.5 414.3,232.2 407.6,279.6 405.1,244.9 "/>
<polygon fill="#E0CBD2" points="405.1,244.9 388.6,241.6 381.7,249.9 "/>
<polygon fill="#EBDBDD" points="405.1,244.9 407.6,279.6 381.7,249.9 "/>
<polygon fill="#EBDBDD" points="382.7,240.4 388.6,241.6 381.7,249.9 "/>
<polygon fill="#9B96A0" points="382.7,240.4 377.3,247.1 381.7,249.9 "/>
<polygon fill="#605C60" points="377.3,247.1 379.6,250.5 381.7,249.9 "/>
<polygon fill="#797379" points="381.7,249.9 379.6,250.5 385,253.6 "/>
<polygon fill="#9F98A2" points="379.6,250.5 377.4,252.7 407.6,279.6 385,253.6 "/>
<polygon fill="#C8BABB" points="377.4,252.7 374.6,253.6 375.1,256.5 372,259.8 371.9,266.1 407.6,279.6 "/>
<polygon fill="#9D96A1" points="371.9,266.1 376.7,282.5 407.6,279.6 "/>
<polygon fill="#8A8385" points="371.9,266.1 366.2,275.1 376.7,282.5 "/>
<polygon fill="#988F92" points="366.2,275.1 367.7,293.6 376.7,282.5 "/>
<polygon fill="#5C5959" points="366.2,275.1 364.6,283.8 365.6,290.6 367.7,293.6 "/>
<polygon fill="#B0A4A9" points="376.7,282.5 407.2,306.3 408.3,297.1 407.6,279.6 "/>
<polygon fill="#686163" points="367.7,293.6 407.2,306.3 403.3,311 "/>
<polygon fill="#898589" points="376.7,282.5 367.7,293.6 407.2,306.3 "/>
<polygon fill="#8C888D" points="367.7,293.6 398.9,339.9 403.3,311 "/>
<polygon fill="#625D5E" points="368.2,302 365.5,298.1 367.7,293.6 "/>
<polygon fill="#9D9392" points="367.7,293.6 368.2,302 398.9,339.9 "/>
<polygon fill="#8C888D" points="368.2,302 365.8,304.8 366.8,308.8 398.9,339.9 "/>
<polygon fill="#817F82" points="366.8,308.8 364.6,309.5 362.3,311.3 363.7,323.9 "/>
<polygon fill="#8D898B" points="366.8,308.8 363.7,323.9 377.5,339.7 "/>
<polygon fill="#898489" points="377.5,339.7 378.7,320.3 366.8,308.8 "/>
<polygon fill="#85828F" points="378.7,320.3 385.4,339.8 398.9,339.9 "/>
<polygon fill="#9D9392" points="378.7,320.3 377.5,339.7 385.4,339.8 "/>
<polygon fill="#858180" points="362.8,330.7 362.6,326.9 363.7,323.9 377.5,339.7 "/>
<polygon fill="#646160" points="362.8,330.7 359.8,335.1 359.3,339.6 377.5,339.7 "/>
<polygon fill="#ACA3AB" points="415.5,229.2 417.7,228.9 414.3,232.2 "/>
<polygon fill="#64626F" points="417.7,228.9 429.6,227.7 427.5,229.2 "/>
<polygon fill="#716B79" points="417.7,228.9 414.3,232.2 424.8,235.2 427.5,229.2 "/>
<polygon fill="#868297" points="414.3,232.2 413.8,235.5 424.8,235.2 "/>
<polygon fill="#D8CAC2" stroke="#F9F7F7" stroke-width="0.25" stroke-miterlimit="10" points="420.1,230.6 418.1,231.7 417.5,232.6 
	417.5,234.4 418.8,235.4 420.1,235.4 421.1,234.6 422.1,232.5 421.8,231.5 421,230.8 "/>
<polygon fill="#BDAEA3" stroke="#F9F7F7" stroke-width="0.25" stroke-miterlimit="10" points="420.1,230.6 418.8,230.2 418,231 
	417.4,231.3 416.9,232.5 416.9,233.7 417.5,234.4 417.5,232.6 418.1,231.7 "/>
<polygon fill="#9D97A8" points="413.8,235.5 424.4,251.5 424.8,235.2 "/>
<polygon fill="#B0A5B3" points="413.8,235.5 424.4,251.5 421.4,270.5 "/>
<polygon fill="#8F8894" points="413.8,235.5 407.6,279.6 421.4,270.5 "/>
<polygon fill="#99919A" points="421.4,270.5 407.6,279.6 420.7,276.4 "/>
<polygon fill="#ACA0B1" points="420.7,276.4 407.6,279.6 420.3,284.9 "/>
<polygon fill="#D3C9C3" stroke="#FCFAFA" stroke-width="0.25" stroke-miterlimit="10" points="413.8,276.2 411.9,276.8 410.9,278 
	410.7,279.5 411.2,280.6 412.3,281.3 413.5,281.8 415,281.3 415.9,279.8 416.2,278.3 415.6,277.3 "/>
<polygon fill="#FBF6EF" stroke="#FCFAFA" stroke-width="0.25" stroke-miterlimit="10" points="414,276.8 412.8,277.2 411.9,278 
	411.6,279.2 412.3,280.7 413.7,281.3 414.7,280.7 415.4,279.1 415.2,277.8 "/>
<polygon fill="#CCBFCB" points="407.6,279.6 420.3,284.9 420.9,303.6 "/>
<polygon fill="#9F96A8" points="407.6,279.6 408.3,297.1 420.9,303.6 "/>
<polygon fill="#B0A7B5" points="408.3,297.1 419.6,309.5 420.9,303.6 "/>
<polygon fill="#BDB4BF" points="408.3,297.1 407.2,306.3 419.6,309.5 "/>
<polygon fill="#6F6769" points="407.2,306.3 403.3,311 419.6,309.5 "/>
<polygon fill="#625D5E" points="419.6,309.5 403.3,311 416.8,311.7 "/>
<polygon fill="#444142" points="416.8,311.7 415.5,317.5 403.3,311 "/>
<polygon fill="#8D8A95" points="415.5,317.5 403.3,311 402.4,317.1 "/>
<polygon fill="#A59E97" stroke="#F9F7F7" stroke-width="0.25" stroke-miterlimit="10" points="408.8,312 406.7,312.7 406.2,314.1 
	406.8,316.2 408.3,316.9 410.4,316.4 411.5,314.9 411.4,312.9 410.1,311.6 "/>
<polygon fill="#C6BFBA" stroke="#F9F7F7" stroke-width="0.25" stroke-miterlimit="10" points="409.5,312.9 408.2,313.1 407.3,313.9 
	407.6,314.8 408.6,315.7 409.7,315.6 410.4,314.3 410.2,313.5 "/>
<polygon fill="#817F89" points="402.4,317.1 415.5,317.5 413.6,327.7 412.1,335 "/>
<polygon fill="#867F86" points="402.4,317.1 401.2,324.8 412.1,335 "/>
<polygon fill="#9D9392" points="401.2,324.8 411.2,339.6 412.1,335 "/>
<polygon fill="#C8BABB" points="401.2,324.8 398.9,339.9 411.2,339.6 "/>
<polygon fill="#232222" points="351.3,335.1 359.8,335.1 359.3,339.6 "/>
<polygon fill="#282626" points="351.3,335.1 362.8,330.7 359.8,335.1 "/>
<polygon fill="#161616" points="350.2,328.2 362.8,330.7 351.3,335.1 "/>
<polygon fill="#161616" points="350.2,328.2 362.6,326.9 362.8,330.7 "/>
<polygon fill="#282626" points="350.2,328.2 363.7,323.9 362.6,326.9 "/>
<polygon fill="#141414" points="350.2,328.2 363.7,323.9 348.3,316.9 "/>
<polygon fill="#302C2C" points="348.3,316.9 362.3,311.3 363.7,323.9 "/>
<polygon fill="#111111" points="348.3,316.9 364.6,309.5 362.3,311.3 "/>
<polygon fill="#232323" points="348.3,316.9 365.8,304.8 364.6,309.5 "/>
<polygon fill="#2B2B2B" points="365.8,304.8 366.8,308.8 364.6,309.5 "/>
<polygon fill="#020202" points="346.6,306.9 365.8,304.8 348.3,316.9 "/>
<polygon fill="#191717" points="346.6,306.9 368.2,302 365.8,304.8 "/>
<polygon fill="#262525" points="346.6,306.9 365.5,298.1 368.2,302 "/>
<polygon fill="#161616" points="346.6,306.9 367.7,293.6 365.5,298.1 "/>
<polygon fill="#141313" points="365.6,290.6 367.7,293.6 346.6,306.9 "/>
<polygon fill="#212121" points="347.5,289.7 365.6,290.6 346.6,306.9 "/>
<polygon fill="#1E1D1D" points="347.5,289.7 364.6,283.8 365.6,290.6 "/>
<polygon fill="#191717" points="366.2,275.1 347.5,289.7 364.6,283.8 "/>
<polygon points="347.5,289.7 366.2,275.1 356.3,272 "/>
<polygon fill="#1C1C1C" points="356.3,272 371.9,266.1 366.2,275.1 "/>
<polygon fill="#161515" points="356.3,272 372,259.8 371.9,266.1 "/>
<polygon fill="#161515" points="356.3,272 374.6,253.6 375.1,256.5 "/>
<polygon fill="#2B2A2A" points="356.3,272 367.6,249 374.6,253.6 "/>
<polygon fill="#1E1E1E" points="367.6,249 377.4,252.7 374.6,253.6 "/>
<polygon fill="#232323" points="367.6,249 379.6,250.5 377.4,252.7 "/>
<polygon fill="#141313" points="377.3,247.1 367.6,249 379.6,250.5 "/>
<polygon fill="#2D2D2D" points="367.6,249 384.7,234.5 377.3,247.1 "/>
<polygon fill="#191919" points="367.6,249 384.6,231.1 384.7,234.5 "/>
<polygon fill="#1C1B1B" points="384.6,231.1 382.1,217.8 367.6,249 "/>
<polygon fill="#020202" points="382.1,217.8 386.4,227.3 384.6,231.1 "/>
<polygon fill="#282626" points="382.1,217.8 384.9,220.5 386.4,227.3 "/>
<polygon fill="#0C0C0C" points="382.1,217.8 387.4,216.5 384.9,220.5 "/>
<polygon fill="#262626" points="382.1,217.8 389.3,204.4 387.4,216.5 "/>
<polygon fill="#191919" points="389.3,204.4 382.1,217.8 391.3,192.7 391.7,200.1 "/>
<polygon fill="#0F0E0E" points="392.6,183.6 391.3,192.7 382.1,217.8 "/>
<polygon fill="#545557" points="542.5,252.1 542.9,255 542.1,251.9 "/>
<polygon fill="#6A696D" points="542.9,255 542.5,252.1 542.5,225.2 "/>
<polygon fill="#6A696D" points="542.9,255 542.9,273.8 536.2,284.3 537.6,277.9 539.2,271.4 "/>
<polygon fill="#6A696D" points="536.2,284.5 516.9,298.9 520,289.4 "/>
<polygon fill="#6A696D" points="542.5,225.2 545.1,242.2 542.9,255 "/>
<polygon fill="#5A5A5C" points="542.9,255 544.3,256.8 542.9,273.8 "/>
<polygon fill="#545456" points="545.1,242.2 544.3,256.8 542.9,255 "/>
<polygon fill="#545456" points="545.1,242.2 545.1,263.3 543,273.6 "/>
<polygon fill="#545456" points="536.2,284.5 514.1,307.2 516.9,298.9 "/>
</svg>
