<?xml version="1.0" encoding="utf-8"?>
<!-- Generator: Adobe Illustrator 17.1.0, SVG Export Plug-In . SVG Version: 6.00 Build 0)  -->
<!DOCTYPE svg PUBLIC "-//W3C//DTD SVG 1.1//EN" "http://www.w3.org/Graphics/SVG/1.1/DTD/svg11.dtd">
<svg version="1.1" id="Layer_1" xmlns="http://www.w3.org/2000/svg" xmlns:xlink="http://www.w3.org/1999/xlink" x="0px" y="0px"
	 viewBox="0 0 600 600" enable-background="new 0 0 560 820" xml:space="preserve">
<polygon fill="none" stroke="#DBBABA" stroke-width="0.5" stroke-miterlimit="10" points="256.5,176.8 290,179.5 277.1,202.6 "/>
<polygon fill="#E2AF9A" points="256.5,176.8 277.1,202.6 270.5,205.9 "/>
<polygon fill="#F9C6B5" points="270.5,205.9 277.1,202.6 285.6,210.1 "/>
<polygon fill="#FEDFCD" points="270.5,205.9 285.6,210.1 269.6,220.2 "/>
<polygon fill="#FECDBB" points="269.6,220.2 285.6,210.1 287.1,223 ">
<animateTransform  type="translate" fill="remove" attributeName="transform" id="ass" repeatCount="indefinite" dur="10s" accumulate="none" restart="always" calcMode="linear" values="0,0;0,-6;0,0" additive="replace" attributeType="XML">
	</animateTransform>
</polygon>
<polygon fill="#FEFADD" points="287.1,223 275.2,228.8 269.6,220.2 "/>
<polygon fill="none" stroke="#FCFAFA" stroke-width="0.5" stroke-miterlimit="10" points="291.8,228.9 298.4,239.6 288.2,238.1 "/>
<polygon fill="#B18387" points="288.2,238.1 295,246.5 298.4,239.6 "/>
<polygon fill="#AD8282" points="298.4,239.6 303.1,242.3 295,246.5 "/>
<polygon fill="#9D7173" points="295,246.5 303.1,242.3 300.4,247.1 "/>
<polygon fill="#FDE5D3" points="275.2,228.8 275.2,243.6 288.2,238.1 "/>
<polygon fill="#D99890" points="275.2,243.6 288.2,238.1 282.4,251.5 "/>
<polygon fill="#C59493" points="288.2,238.1 295,246.5 282.4,251.5 "/>
<polygon fill="#D29388" points="282.4,251.5 272.9,252.3 275.2,243.6 "/>
<polygon fill="#D99890" points="272.9,252.3 265.8,248.4 275.2,243.6 "/>
<polygon fill="#FED4C2" points="265.8,248.4 266.3,235.7 275.2,243.6 "/>
<polygon fill="#FEF4D7" points="266.3,235.7 275.2,228.8 275.2,243.6 "/>
<polygon fill="#FED4C2" points="266.3,235.7 256.5,242.6 265.8,248.4 "/>
<polygon fill="#FEC2B6" points="256.5,242.6 256.7,245.7 265.8,248.4 "/>
<polygon fill="#D4978D" points="256.7,245.7 260.3,249.1 265.8,248.4 "/>
<polygon fill="#FEEFD2" points="256.5,242.6 261.4,233.6 266.3,235.7 "/>
<polygon fill="#FEF4D7" points="261.4,233.6 269.6,220.2 266.3,235.7 "/>
<polygon fill="#FEEFD2" points="269.6,220.2 275.2,228.8 266.3,235.7 "/>
<polygon fill="#FED5BC" points="256.5,176.8 290,179.5 275.8,99.2 "/>
<polygon fill="#F7C6AD" points="290,179.5 314.6,158.7 275.8,99.2 "/>
<polygon fill="#FCCCB3" points="314.6,158.7 328.2,102.3 275.8,99.2 "/>
<polygon fill="#C4A096" points="328.2,102.3 350.6,127.6 314.6,158.7 "/>
<polygon fill="#AC908B" points="314.6,158.7 355.2,164.7 350.6,127.6 "/>
<polygon fill="#A18785" points="314.6,158.7 354.8,179.5 355.2,164.7 "/>
<polygon fill="#AC908B" points="314.6,158.7 315.9,171.4 354.8,179.5 "/>
<polygon fill="#CDA296" points="314.6,158.7 315.9,171.4 290,179.5 "/>
<polygon fill="#837575" points="354.8,179.5 363.1,191.9 355.2,164.7 "/>
<polygon fill="#927F82" points="363.1,191.9 348.1,194.8 354.8,179.5 "/>
<polygon fill="#AA8D81" points="328.2,102.3 343.8,103.2 350.6,127.6 "/>
<polygon fill="#E4B6A3" points="275.8,99.2 292.8,87.1 328.2,102.3 "/>
<polygon fill="#AD9081" points="292.8,87.1 343.8,103.2 328.2,102.3 "/>
<polygon fill="#AD8282" points="291.8,228.9 303.1,242.3 298.4,239.6 "/>
<polygon fill="#FDD9BD" points="275.8,99 258.5,92.9 256.5,176.8 "/>
<polygon fill="#FEE7CD" points="256.5,176.8 246.4,171.4 258.5,92.9 "/>
<polygon fill="#FDEDD1" points="246.4,171.4 231.4,171.4 258.5,92.9 "/>
<polygon fill="none" stroke="#FCFAFA" stroke-width="0.5" stroke-miterlimit="10" points="231.4,171.4 223.7,173.7 213.4,110 "/>
<polygon fill="#FEEFCA" points="213.4,110 248.4,122.3 231.4,171.4 "/>
<polygon fill="#FEFFDE" points="213.4,110 258.5,92.9 248.3,122.3 "/>
<polygon fill="#FDD9BD" points="213.4,110 231.4,94.7 258.5,92.9 "/>
<polygon fill="#C0A08E" points="258.5,92.9 272.1,93.9 275.8,99 "/>
<polygon fill="#FEE6C1" points="213.4,110 208.6,126.3 223.7,173.7 "/>
<polygon fill="#FEE1BD" points="208.6,126.3 207.3,175.5 223.7,173.7 "/>
<polygon fill="#F8CDAF" points="207.3,175.5 204.8,194.8 223.7,173.7 "/>
<polygon fill="#FEDBB8" points="212,186.7 216.6,210.1 204.8,194.8 "/>
<polygon fill="#E9BA9F" points="216.6,210.1 222,203.1 212,186.7 "/>
<polygon fill="#E9BA9F" points="216.1,193.6 223.7,173.7 212,186.7 "/>
<polygon fill="#C39B86" points="216.1,193.6 233.7,182.7 223.7,173.7 "/>
<polygon fill="#997568" points="233.7,182.7 246.4,171.4 231.4,171.4 "/>
<polygon fill="#A98271" points="233.7,182.7 231.4,171.4 223.7,173.7 "/>
<polygon fill="#A0786D" points="233.7,182.7 252.5,186.9 246.4,171.4 "/>
<polygon fill="#CC9B8B" points="252.5,186.9 256.5,176.8 246.4,171.4 "/>
<polygon fill="#B48775" points="252.5,186.9 264.1,192.5 256.5,176.8 "/>
<polygon fill="#8C7577" points="348.1,194.8 324.6,179.5 354.8,179.5 "/>
<polygon fill="none" stroke="#FCFAFA" stroke-width="0.5" stroke-miterlimit="10" points="285.6,210.1 324.6,179.5 290,179.5 "/>
<polygon fill="#B18C7F" points="312.7,188.8 348.1,194.8 324.6,179.5 "/>
<polygon fill="#8B7473" points="335.4,192.7 363.1,220.9 348.1,194.8 "/>
<polygon fill="#A28E8F" points="348.1,194.8 363.1,191.9 363.1,220.9 "/>
<polygon fill="#AF8178" points="296.4,201.7 308.7,205.9 285.6,210.1 "/>
<polygon fill="#D2A197" points="285.5,210.1 308.6,205.8 309.4,221.9 "/>
<polygon fill="none" stroke="#FCFAFA" stroke-width="0.5" stroke-miterlimit="10" points="326.3,205 351.4,229.9 309.4,222 "/>
<polygon fill="#CBA29B" points="326.3,205 342.9,200.3 351.4,229.9 "/>
<polygon fill="#756362" points="336,192.8 335.4,202.4 342.9,200.3 "/>
<polygon fill="#795F5D" points="335.6,198.4 325.3,190.9 336,192.7 "/>
<polygon fill="#9D756A" points="325.3,190.9 307.8,192.7 312.7,188.8 "/>
<polygon fill="#765A58" points="296.4,201.7 311.9,192.2 307.8,192.7 "/>
<polygon fill="#795F5D" points="311.9,192.2 312.7,194.8 309.4,200.9 314.3,205.9 308.7,205.9 296.4,201.7 "/>
<polygon fill="#7D6763" points="312.7,194.8 335.6,198.4 325.3,190.9 311.9,192.2 "/>
<polygon fill="#6B5E5F" points="335.6,198.4 326.3,205 335.4,202.4 "/>
<polygon fill="#777073" points="325.8,196.8 326.3,205 335.6,198.4 "/>
<polygon fill="#625B5B" points="325.8,196.8 318.4,205.9 326.3,205 "/>
<polygon fill="none" stroke="#FCFAFA" stroke-width="0.5" stroke-miterlimit="10" points="318.4,205.9 312.7,194.8 309.4,200.9
	314.3,205.9 "/>
<polygon fill="#585657" points="312.7,194.8 325.8,196.8 318.4,205.9 "/>
<polygon fill="#786360" points="318.4,205.9 309.4,200.9 312.7,194.8 "/>
<polygon fill="#B5A09D" points="312.7,194.8 312.7,202.7 309.4,200.9 "/>
<polygon fill="#625B5B" points="321.2,196.2 323.2,200 325.8,196.8 "/>
<polygon fill="#786360" points="316.8,202.7 320.6,203.2 318.4,205.9 "/>
<polygon fill="#80757A" points="326,200.7 323.1,205.3 326.3,205 "/>
<polygon fill="#CCAEA9" points="309.4,200.9 308.7,205.9 314.3,205.9 "/>
<polygon fill="#946E6B" points="303.7,204.1 309.4,200.9 308.7,205.9 "/>
<polygon fill="#795F5D" points="309.4,200.9 304.2,197 311.9,192.2 "/>
<polygon fill="#795F5D" points="309.4,200.9 312.7,194.8 311.9,192.2 "/>
<polygon fill="#735758" points="304.2,197 303.7,204.1 309.4,200.9 "/>
<polygon fill="#7D6560" points="290,179.5 298.5,188.6 324.6,179.5 "/>
<polygon fill="#946E69" points="298.5,188.6 285.6,210.1 290,179.5 "/>
<polygon fill="#9D756A" points="285.6,210.1 298.5,188.6 324.6,179.5 "/>
<polygon fill="#E8B2A1" points="256.5,176.8 261.1,157.9 267.9,177.7 "/>
<polygon fill="#D3A094" points="278,178.5 287.8,166.8 290,179.5 "/>
<polygon fill="#DBA998" points="267.9,177.7 263.6,185.8 256.5,176.8 "/>
<polygon fill="#D3A094" points="278,178.5 285.7,187.2 290,179.5 "/>
<polygon fill="#FED4B2" points="204.8,194.8 203.9,210.1 216.6,210.1 "/>
<polygon fill="#FEEDC7" points="203.9,210.1 206.3,227.9 216.6,210.1 "/>
<polygon fill="#FEE8CD" points="206.3,227.9 208.8,244.7 216.6,210.1 "/>
<polygon fill="#FEDFC8" points="216.6,210.1 238.9,232 208.8,244.7 "/>
<polygon fill="#F6BFA6" points="222,203.1 238.9,232 216.6,210.1 "/>
<polygon fill="#FABAA9" points="222,203.1 230,206.3 238.9,232 "/>
<polygon fill="#F6BFA6" points="230,206.3 238.7,207.9 238.9,232 "/>
<polygon fill="#EBB4A7" points="238.7,207.9 248,205.5 238.9,232 "/>
<polygon fill="#FED1C1" points="248,205.5 261.5,233.5 238.9,232 "/>
<polygon fill="#FEC3B1" points="269.6,220.2 261.5,233.5 248,205.5 "/>
<polygon fill="#F0BAAE" points="270.5,205.9 269.6,220.2 248,205.5 "/>
<polygon fill="#F7BDAA" points="257.3,202.8 248,205.5 270.5,205.9 "/>
<polygon fill="#C59582" points="257.3,202.8 264.1,192.5 270.5,205.9 "/>
<polygon fill="#B08173" points="257.3,202.8 252.5,186.9 264.1,192.5 "/>
<polygon fill="none" stroke="#FCFAFA" stroke-width="0.5" stroke-miterlimit="10" points="252.5,186.9 242.9,194.8 244.8,196
	248.3,197.9 257.3,202.8 "/>
<polygon fill="#A97C74" points="242.9,194.8 233.7,182.7 252.5,186.9 "/>
<polygon fill="#F6BFA6" points="233.7,182.7 216.1,193.6 242.9,194.8 "/>
<polygon fill="#DBAC95" points="216.1,193.6 229.5,194.2 222,203.1 "/>
<polygon fill="#A77969" points="229.5,194.2 220.1,200 222,203.1 "/>
<polygon fill="#96685D" points="226.8,197.4 242.9,194.8 229.5,194.2 "/>
<polygon fill="#665B59" points="242.9,194.8 234.2,200.1 231,196.8 "/>
<polygon fill="#9F7A71" points="231,196.8 225.9,202.2 230,206.3 222,203.1 226.8,197.4 "/>
<polygon fill="#BFA7A0" points="230,206.3 238.7,207.9 234.2,200.1 "/>
<polygon fill="#5C5858" points="242.9,194.8 240.9,196 238,197.8 238.5,202.6 241.2,204 244.5,201.4 243.1,196.7 "/>
<polygon fill="#77625E" points="242.9,194.8 241.1,195.9 243.1,196.5 "/>
<polygon fill="#8F625F" points="242.9,194.9 243.1,196.5 244.8,196 242.9,194.8 254.9,194.9 257.3,202.8 "/>
<polygon fill="#5C5858" points="243.1,196.5 244.8,196 244.5,201.4 "/>
<polygon fill="#846660" points="244.8,196 247.8,197.5 248.2,201.4 244.5,201.4 "/>
<polygon fill="#846660" points="241.2,204 244.5,201.4 248.2,201.4 248,205.5 "/>
<polygon fill="#846660" points="241.2,204 238.7,207.8 248,205.5 "/>
<polygon fill="#D3C7C5" points="247.8,197.5 248.2,201.4 252.1,200 "/>
<polygon fill="#C1ADA8" points="248.2,201.4 252.1,200 248,205.5 "/>
<polygon fill="#986F69" points="252.1,200 257.3,202.8 248,205.5 "/>
<polygon fill="#846660" points="234.2,200.1 234.2,203.1 238.7,207.8 "/>
<polygon fill="#D3C7C5" points="231.1,196.8 234.3,196.2 234.2,200.1 "/>
<polygon fill="#FEDFC8" points="238.9,232 229.7,259.1 208.8,244.7 "/>
<polygon fill="#FABAA9" points="229.7,259.1 261.5,233.5 238.9,232 "/>
<polygon fill="#F5B4A4" points="261.5,233.5 256.5,242.6 252.1,241 "/>
<polygon fill="#9A7C7F" points="252.1,241 256.5,242.6 229.7,259.1 "/>
<polygon fill="#C59582" points="229.7,259.1 245.9,265.5 256.5,242.6 "/>
<polygon fill="#CD8E81" points="245.9,265.5 256.7,245.7 256.5,242.6 "/>
<polygon fill="#8B6E74" points="303.1,242.3 300.4,247.1 312.8,269.5 "/>
<polygon fill="#B09290" points="312.8,269.5 331.5,275.8 303.1,242.3 "/>
<polygon fill="#A57A7A" points="287.1,223 304.2,232.9 303.1,242.3 291.8,228.9 "/>
<polygon fill="#E7ADA3" points="287,223 309.4,222 285.5,210.1 "/>
<polygon fill="#CA9A92" points="309.4,222 304.2,232.9 287.1,223 "/>
<polygon fill="#ECB0A5" points="309.4,222 304.2,232.9 351.4,229.9 "/>
<polygon fill="#D69E94" points="304.2,232.9 303.1,242.3 351.4,229.9 "/>
<polygon fill="#D09A96" points="303.1,242.3 351.4,229.9 331.5,275.8 "/>
<polygon fill="#AE8D88" points="351.4,229.9 363.1,220.9 342.9,200.3 "/>
<polygon fill="#A99595" points="363.1,220.9 357.2,259 351.4,229.9 "/>
<polygon fill="#A6837B" points="351.4,229.9 357.2,259 331.5,275.8 "/>
<polygon fill="#A48D91" points="357.2,259 354.2,273.5 331.5,275.8 "/>
<polygon fill="#9C7A79" points="354.2,273.5 345.7,291.8 331.5,275.8 "/>
<polygon fill="#967B7A" points="331.5,275.8 328.4,311.9 345.7,291.8 "/>
<polygon fill="#9A7C7F" points="331.5,275.8 312.8,269.5 328.4,311.9 "/>
<polygon fill="#806161" points="312.8,269.5 307.8,274.6 314,272.9 "/>
<polygon fill="#9B777B" points="314,272.9 317.3,271 312.8,269.5 "/>
<polygon fill="none" stroke="#FCFAFA" stroke-width="0.5" stroke-miterlimit="10" points="328.4,311.9 300.3,316.4 298.8,283.9 "/>
<polygon fill="none" stroke="#FCFAFA" stroke-width="0.5" stroke-miterlimit="10" points="328.4,311.9 303,326.2 300.3,316.4 "/>
<polygon fill="#B09290" points="315.4,299.6 300.3,316.4 328.4,311.9 "/>
<polygon fill="#D2A59E" points="315.4,299.6 298.8,283.9 300.3,316.4 "/>
<polygon fill="#FED5BC" points="208.8,244.7 214,272.6 229.7,259.1 "/>
<polygon fill="#DBAD98" points="229.7,259.1 230.4,300.8 214,272.6 "/>
<polygon fill="#E2B7A3" points="229.7,259.1 245.9,265.5 230.4,300.8 "/>
<polygon fill="#DAAC98" points="230.4,300.8 258.7,281 245.9,265.5 "/>
<polygon fill="#DCB7A5" points="258.7,281 256.5,316.4 230.4,300.8 "/>
<polygon fill="#AB9282" points="230.4,300.8 251.3,321.1 256.5,316.4 "/>
<polygon fill="#9D8274" points="256.5,316.4 270.5,327 251.3,321.1 "/>
<polygon fill="#816C6B" points="270.5,327 303,326.2 300.3,316.4 "/>
<polygon fill="#AA877A" points="300.3,316.4 256.5,316.4 270.5,327 "/>
<polygon fill="#DCA7A1" points="287.5,289.2 298.8,283.9 300.3,316.4 "/>
<polygon fill="#E2ACA3" points="287.5,289.2 275.3,316.4 300.3,316.4 "/>
<polygon fill="none" stroke="#FCFAFA" stroke-width="0.5" stroke-miterlimit="10" points="287.5,289.2 271.5,288.1 275.3,316.4 "/>
<polygon fill="#DCA7A1" points="271.5,288.1 256.5,316.4 258.7,281 "/>
<polygon fill="#EBB2A9" points="271.5,288.1 275.3,316.4 256.5,316.4 "/>
<polygon fill="#96757B" points="300.4,247.1 283.6,265.5 312.8,269.5 "/>
<polygon fill="#A5706B" points="272.9,252.3 276.2,254.9 282.4,251.5 "/>
<polygon fill="#9E6E6C" points="276.2,254.9 283.6,265.5 300.4,247.1 295,246.5 282.4,251.5 "/>
<polygon fill="none" stroke="#FCFAFA" stroke-width="0.5" stroke-miterlimit="10" points="276.2,254.9 269.6,267.4 277.5,270.6 "/>
<polygon fill="#E0AAA3" points="277.5,270.6 283.6,265.5 276.2,254.9 "/>
<polygon fill="none" stroke="#FCFAFA" stroke-width="0.5" stroke-miterlimit="10" points="269.6,267.4 265.8,248.4 272.9,252.3
	276.2,254.9 "/>
<polygon fill="none" stroke="#FCFAFA" stroke-width="0.5" stroke-miterlimit="10" points="265.8,248.4 260.3,249.1 245.9,265.5
	255.8,269.5 269.6,267.4 "/>
<polygon fill="#AA8885" points="229.9,268.6 245.9,265.5 229.7,259.1 "/>
<polygon fill="#C2948A" points="308.7,205.9 318.4,205.9 326.3,205 309.4,222 "/>
<polygon fill="#D0A397" points="245.9,265.5 255.2,272.6 255.8,269.5 "/>
<polygon fill="#D18D8A" points="258.7,281 255.2,272.6 245.9,265.5 "/>
<polygon fill="#C68582" points="255.2,272.6 265.8,275.8 255.8,269.5 "/>
<polygon fill="#DD9B95" points="255.8,269.5 269.6,267.4 265.8,275.8 "/>
<polygon fill="#D18D8A" points="265.8,275.8 276.2,276.8 269.6,267.4 "/>
<polygon fill="#CF7D83" points="276.2,276.8 277.5,270.6 269.6,267.4 "/>
<polygon fill="#AE6E71" points="276.2,276.8 284.3,276.8 277.5,270.6 "/>
<polygon fill="#DD9B95" points="284.3,276.8 283.6,265.5 277.5,270.6 "/>
<polygon fill="#A46C70" points="284.3,276.8 312.8,269.5 283.6,265.5 "/>
<polygon fill="#E5A49F" points="255.2,272.6 265.8,275.8 258.7,281 "/>
<polygon fill="#E8939A" points="265.8,275.8 276.2,276.8 271.5,288.1 "/>
<polygon fill="#FDC1C6" points="265.8,275.8 271.5,288.1 258.7,281 "/>
<polygon fill="#CF7D83" points="276.2,276.8 287.5,289.2 271.5,288.1 "/>
<polygon fill="#E28E95" points="276.2,276.8 284.3,276.8 287.5,289.2 "/>
<polygon fill="#CF7D83" points="287.5,289.2 298.8,283.9 284.3,276.8 "/>
<polygon fill="#C87F89" points="298.8,283.9 312.8,269.5 284.3,276.8 "/>
<polygon fill="#FEDECA" points="275.2,228.8 288.2,238.1 291.8,228.9 289.8,229 "/>
<polygon fill="#FED4C2" points="275.2,228.8 289.8,229 291.8,228.9 287.1,223 "/>
<polygon fill="none" stroke="#FCFAFA" stroke-width="0.5" stroke-miterlimit="10" points="276.2,348.7 328.4,311.9 344.3,324.7 "/>
<polygon fill="#927D82" points="344.3,324.7 340.6,342.4 276.2,348.7 "/>
<polygon fill="#8F7779" points="340.6,342.4 332.9,359.9 276.2,348.7 "/>
<polygon fill="#897377" points="332.9,359.9 322.1,374 276.2,348.7 "/>
<polygon fill="#786365" points="276.2,348.7 322.1,374 312.8,381.1 "/>
<polygon fill="#8B6F6E" points="276.2,348.7 312.8,381.1 294.5,387.5 "/>
<polygon fill="#96868D" points="328.4,311.9 347.1,290.1 344.3,324.7 "/>
<polygon fill="#A68780" points="276.2,348.7 275.3,397 294.5,387.5 "/>
<polygon fill="#B38F80" points="276.2,348.7 275.3,397 255.3,367 "/>
<polygon fill="#BF9C8F" points="276.2,348.7 237.7,344.5 255.3,367 "/>
<polygon fill="#CDA898" points="237.7,344.5 276.2,348.7 229.9,323.6 "/>
<polygon fill="#D7B19E" points="229.9,323.6 230.4,300.8 251.3,321.1 276.2,348.7 "/>
<polygon fill="#906E67" points="270.5,327 303,326.2 328.4,311.9 276.2,348.7 270.5,327 251.3,321.1 "/>
<path fill="#FFFFFF" stroke="#000000" stroke-miterlimit="10" d="M345.4,299.6"/>
<polygon fill="none" stroke="#FCFAFA" stroke-width="0.5" stroke-miterlimit="10" points="339.7,363.1 396.1,384.4 372.4,505.3
	386.9,600.4 359.1,600.4 343.9,552.1 336.7,443.8 "/>
<polygon fill="none" stroke="#000000" stroke-width="0.5" stroke-miterlimit="10" points="364.5,315.1 467.6,354.4 465.3,437.3
	448.2,509.6 425,580 436.3,600.4 386.9,600.4 372.4,505.3 396.1,384.4 339.7,363.1 390.8,380.3 393.8,369.2 369.5,319.1 "/>
<polygon fill="none" stroke="#111111" stroke-width="0.25" stroke-miterlimit="10" points="467.6,354.4 477.4,361.4 487.4,398.1
	476.2,503 447.6,511.7 465.3,437.3 "/>
<polygon fill="none" stroke="#050505" stroke-width="0.25" stroke-miterlimit="10" points="222.9,289.8 142.3,291.8 126.7,308.3
	116.2,335 111.1,374 113.2,400.2 124.2,425 126.7,446.3 139.6,490.4 148,460.8 156.6,383 172,336.1 218.3,336.7 193,334 187,316.4
	"/>
<polygon fill="none" stroke="#FCFAFA" stroke-width="0.5" stroke-miterlimit="10" points="222.9,289.8 187,316.4 193,334
	218.3,336.7 230.4,300.8 "/>
<polygon fill="none" stroke="#000000" stroke-width="0.25" stroke-miterlimit="10" points="218.3,336.7 172,336.1 156.6,383
	148,460.8 139.6,490.4 129.9,523.2 127.2,554.8 134.5,578 149.3,592.5 140.9,542.6 142.5,512.3 160.6,474.5 182.7,431.4
	203.7,385.1 "/>
<polygon fill="none" stroke="#020202" stroke-width="0.25" stroke-miterlimit="10" points="230.4,300.8 222.2,324.7 226.3,346.4
	241.7,367 245.9,376.5 257.7,400.3 262.7,405.2 275.3,397 255.3,367 237.7,344.5 229.9,323.6 "/>
<polygon fill="none" stroke="#483B63" stroke-width="0.25" stroke-miterlimit="10" points="262.7,405.2 287.8,402.6 294.5,387.5
	275.3,397 "/>
<polygon fill="none" stroke="#000000" stroke-width="0.25" stroke-miterlimit="10" points="287.8,402.6 283.9,405.2 279.3,415.9
	278.6,444.7 273.1,478.2 271.9,488.8 271.3,503.7 272.3,536.9 270,547.3 265,551.1 260.7,570.7 255.2,600.4 233.5,601.1
	241.2,549.9 244,546.7 248.1,541.7 250,525.3 248.8,494.4 253.2,463.4 259.2,420.5 260.6,410.5 262.7,405.2 "/>
<polygon fill="none" stroke="#020202" stroke-width="0.25" stroke-miterlimit="10" points="222.2,324.7 226.3,346.4 241.7,367
	257.7,400.3 262.7,405.2 260.6,410.5 248.8,494.4 250,525.3 248.1,541.7 241.2,549.9 233.5,601.1 163.3,600.4 164.2,592.5
	169.6,584.8 169.2,578 171.1,572.7 168.7,550.5 172.8,547.2 176.6,546.1 175,539 179.2,533.9 174.3,527 178.2,519.1 174.4,513.8
	172.8,501.8 175.5,486.4 185.6,470.5 185.8,459.3 191.3,453.5 190.4,448.3 195.4,446.9 199.3,443 195.2,437 199.7,429.2
	208.3,414.6 208.2,408.7 211.3,401.9 208.6,389.8 213,382.8 216.5,361.4 220.8,353.9 220,340.8 "/>
<polygon fill="#070707" points="163.3,600.4 164.2,592.5 169.6,584.8 169.2,578 171.1,572.7 168.7,550.5 172.8,547.2 176.6,546.1
	175,539 179.2,533.9 174.3,527 178.2,519.1 174.4,513.8 172.8,501.8 175.5,486.4 185.6,470.5 185.8,459.3 191.3,453.5 190.4,448.3
	195.4,446.9 199.3,443 195.2,437 208.3,414.6 208.2,408.7 211.3,401.9 208.6,389.8 213,382.8 216.5,361.4 220.8,353.9 220,340.8
	222.2,324.7 203.7,385.1 182.7,431.4 160.8,474.3 142.5,512.3 140.9,542.6 149.3,592.5 "/>
<polygon fill="none" stroke="#020202" stroke-width="0.25" stroke-miterlimit="10" points="255.2,600.4 359.1,600.4 343.9,552.1
	336.7,443.8 339.7,363.1 330.9,378.7 287.8,402.6 283.9,405.2 279.3,415.9 278.6,444.7 273.1,478.2 271.9,488.8 271.3,503.7
	272.3,536.9 270,547.3 265,551.1 260.7,570.7 "/>
<polygon fill="#99757F" points="357.2,259 361.9,259 363.1,220.9 "/>
<polygon fill="#9D7C84" points="361.9,259 366.3,251.7 363.1,220.9 "/>
<polygon fill="#99757F" points="366.3,251.7 371.9,232.6 364.4,233.5 "/>
<polygon fill="#8E6A6E" points="371.9,232.6 371.9,207.8 364.4,233.5 "/>
<polygon fill="#93767A" points="371.9,232.6 378.7,215.1 371.9,207.8 "/>
<polygon fill="#8E6365" points="378.7,215.1 380.9,206.3 371.9,207.8 "/>
<polygon fill="#6B5E5E" points="380.9,206.3 380.9,201.4 371.9,207.8 "/>
<polygon fill="#625D5E" points="371.9,207.8 364.4,233.5 363.1,220.9 "/>
<polygon fill="#5A595A" points="371.9,207.8 363.1,220.9 363.1,191.9 "/>
<polygon fill="#575757" points="371.9,207.8 380.9,201.4 363.1,191.9 "/>
<polygon fill="#7D7370" points="380.9,201.4 392.3,192.7 380.9,206.3 "/>
<polygon fill="#75706C" points="380.9,201.4 392.3,192.7 363.1,191.9 "/>
<polygon fill="#575757" points="363.1,191.9 403.8,150 392.3,192.7 "/>
<polygon fill="#686462" points="363.1,191.9 403.8,150 413,106 "/>
<polygon fill="#353535" points="363.1,191.9 355.2,164.7 413,106 "/>
<polygon fill="#595859" points="350.6,127.6 413,106 355.2,164.7 "/>
<polygon fill="#686461" points="343.8,103.2 413,106 350.6,127.6 "/>
<polygon fill="#474647" points="343.8,103.2 392.3,92.9 385.3,104.9 "/>
<polygon fill="#686461" points="343.8,103.2 364.8,59.9 392.3,92.9 "/>
<polygon fill="#767067" points="364.8,59.9 378.4,56.1 392.3,92.9 "/>
<polygon fill="#6F6862" points="364.8,59.9 356.2,39.1 378.4,56.1 "/>
<polygon fill="#5A5859" points="364.8,59.9 343.8,103.2 323.9,87.1 "/>
<polygon fill="#846E68" points="292.8,87.1 323.9,87.1 343.8,103.2 "/>
<polygon fill="#5E5B5A" points="292.8,87.1 356.2,39.1 323.9,87.1 "/>
<polygon fill="#474647" points="323.9,87.1 356.3,39.1 364.8,59.9 "/>
<polygon fill="#514C4A" points="292.8,87.1 284,63.1 356.2,39.1 "/>
<polygon fill="#686461" points="284,63.1 306.1,25.2 356.2,39.1 "/>
<polygon fill="#5E5B5A" points="306.1,25.2 323.9,18.9 356.2,39.1 "/>
<polygon fill="none" stroke="#FCFAFA" stroke-width="0.5" stroke-miterlimit="10" points="275.8,99 272.1,93.9 266.1,40.3 284,63.1
	"/>
<polygon fill="#6E6461" points="284,63.1 278.9,85.2 275.8,99 292.8,87.1 "/>
<polygon fill="none" stroke="#FCFAFA" stroke-width="0.5" stroke-miterlimit="10" points="266.1,40.3 299.3,12.5 284,63.1 "/>
<polygon fill="#353535" points="299.3,12.5 306.1,25.2 284,63.1 "/>
<polygon fill="#736C67" points="299.3,12.5 323.9,18.9 306.1,25.2 "/>
<polygon fill="#68625D" points="272.1,93.9 244.9,73 266.1,40.3 "/>
<polygon fill="#67615E" points="258.5,92.9 244.9,73 272.1,93.9 "/>
<polygon fill="none" stroke="#FCFAFA" stroke-width="0.5" stroke-miterlimit="10" points="258.5,92.9 221.1,57.1 231.4,94.7 "/>
<polygon fill="#514C4A" points="258.5,92.9 244.9,73 221.1,57.1 "/>
<polygon fill="#676260" points="244.9,73 239,28.6 221.1,57.1 "/>
<polygon fill="#514C4A" points="244.9,73 259.2,18.9 239,28.6 "/>
<polygon fill="#736D66" points="259.2,18.9 266.1,40.3 244.9,73 "/>
<polygon fill="#6C655F" points="259.2,18.9 299.3,12.5 266.1,40.3 "/>
<polygon fill="#6A6462" points="259.2,18.9 266.1,5.6 299.3,12.5 "/>
<polygon fill="#353535" points="239,28.6 266.1,5.6 259.2,18.9 "/>
<polygon fill="#686461" points="389.9,97 401.2,105.5 385.3,104.9 "/>
<polygon fill="#514C4A" points="213.4,110 202.1,35.2 231.4,94.7 "/>
<polygon fill="#676260" points="231.4,94.7 221.1,57.1 202.1,35.2 "/>
<polygon fill="#6E6965" points="221.1,57.1 218.2,20.7 239,28.6 "/>
<polygon fill="#645F5C" points="191.4,52.2 213.4,110 208.6,126.3 "/>
<polygon fill="#645F5C" points="191.4,52.2 202.1,35.2 213.4,110 "/>
<polygon fill="#514C4A" points="163.6,92.9 208.6,126.3 207.3,175.5 "/>
<polygon fill="#5A5859" points="163.6,92.9 203.9,210.1 204.8,194.8 207.3,175.5 "/>
<polygon fill="#353535" points="185.5,202.7 206.3,227.9 203.9,210.1 "/>
<polygon fill="#706560" points="181.9,146.1 185.5,202.7 203.9,210.1 "/>
<polygon fill="#8B7A70" points="167.7,104.9 183.4,169.1 181.9,146.1 "/>
<polygon fill="#736A65" points="208.6,126.3 180.4,89.3 191.4,52.2 "/>
<polygon fill="#6B6562" points="208.6,126.3 180.4,89.3 163.6,92.9 "/>
<polygon fill="#C1ADA8" points="231.1,196.8 225.9,202.2 230,206.3 234.2,200.1 "/>
<polygon fill="#76625E" points="234.2,200.1 238,197.8 238.5,202.6 241.2,204 238.7,207.8 "/>
<polygon fill="#BB907C" points="252.5,186.9 242.9,194.8 254.9,194.9 "/>
<polygon fill="#F7C6AD" points="267.9,177.7 278,178.5 285.7,187.2 277.1,202.5 263.6,185.8 "/>
<polygon fill="#CFAA95" points="275.7,99.2 278.9,85.4 292.8,87.3 "/>
<polygon fill="#C0A08E" points="272.1,93.9 278.9,85.2 275.7,99.1 272.8,95 272,93.9 "/>
<polygon fill="#CFAA95" points="231.4,94.7 253.5,88 258.5,92.9 "/>
<polygon fill="#AA9078" points="253.5,88 254.3,86.8 258.5,92.9 "/>
<polygon fill="#FEE9C8" points="231.4,171.4 213.4,110 223.7,173.7 "/>
<polygon fill="#B5A09D" points="309.4,200.9 318.4,205.9 314.3,205.9 "/>
<polygon fill="#8F625F" points="243.1,196.5 244.8,196 242.9,194.8 "/>
<polygon fill="#957C6A" points="262.5,86.4 272.1,93.9 258.5,92.9 "/>
<polygon fill="#D2A39C" points="229.5,194.2 239.3,190.2 242.9,194.8 "/>
<polygon fill="#BB8C8B" points="291.8,228.9 298.4,239.6 288.2,238.1 "/>
<polygon fill="#C49A93" points="326.3,205 309.4,222 351.4,229.9 "/>
<polygon fill="#8B6E74" points="282.4,251.5 300.4,247.1 295,246.5 "/>
<polygon fill="#846268" points="288.9,249.7 298.4,249.3 298.3,247.6 "/>
<polygon fill="#8B6E74" points="298.3,247.6 300.4,247.1 298.4,249.3 "/>
<polygon fill="#6D585C" points="284.3,276.8 307.8,274.6 312.8,269.5 "/>
<polygon fill="#D0A295" points="276.2,254.7 269.5,267.4 277.5,270.6 276.3,254.9 "/>
<polygon fill="#85585A" points="272.9,252.1 267.4,256.5 265.6,248.1 "/>
<polygon fill="#976964" points="267.2,256.5 276.2,254.7 272.9,252.1 "/>
<polygon fill="#BD9487" points="267.3,256.3 276.2,254.6 269.4,267.4 "/>
<polygon fill="#E9B0A5" points="260.3,249.1 255.3,254.8 269.5,267.4 "/>
<polygon fill="#F0B7AB" points="255.3,254.8 245.9,265.5 269.5,267.4 "/>
<polygon fill="#DAADA0" points="245.9,265.5 269.5,267.4 255.8,269.5 "/>
<polygon fill="#976A66" points="287.5,289.2 272.2,293.4 271.5,288.1 "/>
<polygon fill="#9B777B" points="272.2,293.4 285.4,293.6 287.5,289.2 "/>
<polygon fill="#E2ACA3" points="272.2,293.4 285.4,293.6 275.3,316.4 "/>
<polygon fill="#806161" points="258.7,281 271.5,288.1 272.2,293.4 "/>
<polygon fill="#A17B7C" points="285.4,293.6 298.8,283.9 287.5,289.2 "/>
<polygon fill="#9B777B" points="298.8,283.9 314,272.9 307.8,274.6 "/>
<polygon fill="#E2ACA3" points="272.2,293.4 285.9,293.2 275.4,316.5 "/>
<polygon fill="#817375" points="300.3,316.4 328.4,311.9 303,326.2 "/>
<polygon fill="#967B7A" points="303,326.2 306.1,327.7 328.4,311.9 "/>
<polygon fill="#846A67" points="303,326.2 276.2,348.7 306.1,327.7 "/>
<polygon fill="#625E5C" points="231.4,94.7 253.5,88 221.1,57.1 "/>
<polygon fill="#B08173" points="252.4,186.9 264.1,192.5 257.3,203 "/>
<polygon fill="#CC9B8B" points="252.3,186.8 252.6,186.6 252.7,187 "/>
<polygon fill="#CC9B8B" points="257.4,202.7 257.1,202.9 257.6,203.2 "/>
<polygon fill="#514C4A" points="272.1,93.9 278.9,85.2 266.1,40.3 "/>
<polygon fill="#605C5B" points="278.9,85.2 284,63.1 266.1,40.3 "/>
<polygon fill="#635E5B" points="266.1,40.3 299.3,12.5 284,63.1 "/>
<polygon fill="#706560" points="197.6,217.5 207.9,238.5 206.3,227.9 "/>
<polygon fill="#B18C7F" points="239.3,190.2 249.1,189.7 242.9,194.8 "/>
<polygon fill="#7D6560" points="233.7,182.7 249.1,178.1 246.4,171.4 "/>
<polygon fill="#8C7577" points="249.1,178.1 259.2,182.9 256.5,176.8 "/>
<polygon fill="#946E69" points="231.4,171.4 241.3,175.4 246.4,171.4 "/>
<polygon fill="#946E69" points="246.4,171.4 256.5,176.8 249.1,178.1 "/>
<polygon fill="#353535" points="284,63.1 336.5,54.1 356.2,39.1 "/>
<polygon fill="#93726A" points="270.5,327 251.3,321.1 276.2,348.7 "/>
<polygon fill="#8E7474" points="276.2,348.7 344.3,324.7 328.4,311.9 "/>
<polyline fill="#967B7A" points="347.6,287.7 347.1,290.1 345.7,291.8 "/>
<polygon fill="#C59582" points="214,272.6 222.9,289.8 230.4,300.8 "/>
<polygon fill="#756E70" points="202.8,304.7 230.4,300.8 222.2,324.7 "/>
<polygon fill="#6F6969" points="202.8,304.7 187,316.4 222.2,324.7 "/>
<polygon fill="#686365" points="187,316.4 222.2,324.7 192.7,334.2 "/>
<polygon fill="#6E6668" points="192.7,334.2 222.2,324.7 218.9,335.3 218.3,336.7 "/>
<path fill="#FED4C2" d="M288.2,238.1"/>
<polygon fill="#525354" points="465.3,437.3 425,580 372.4,505.3 "/>
<polygon fill="#F7C6AD" points="287,229 288.2,238.1 291.8,228.9 "/>
<path fill="#FED4C2" d="M287.1,223"/>
<polygon fill="#F9C6B5" points="287,229 287.1,223 291.8,228.9 "/>
<polygon fill="#7D6560" points="315.9,171.3 290,179.5 354.8,179.5 "/>
<polygon fill="#A07C7A" points="290,179.5 277.1,202.5 277.1,202.5 285.5,210.2 "/>
<polygon fill="#E9B0A5" points="256.7,245.7 260.3,249.1 245.9,265.5 "/>
<polygon fill="#DCA198" points="260.1,249 265.6,248.1 269.5,267.4 "/>
<polygon fill="#B99592" points="314,272.9 298.8,283.9 328.4,311.9 "/>
<polygon fill="#686264" points="222.9,289.7 202.8,304.7 230.4,300.8 "/>
<polygon fill="#897C7B" points="142.3,291.8 222.9,289.7 187,316.4 "/>
<polygon fill="#908381" points="142.3,291.8 126.7,308.3 187,316.4 "/>
<polygon fill="#827778" points="126.7,308.3 116.2,335 187,316.4 "/>
<polygon fill="#7C7372" points="218.3,336.7 172,336.1 116.2,335 187,316.4 192.7,334.2 "/>
<polygon fill="#7C7372" points="116.1,335 171.8,336.1 156.5,383 ">
<animateTransform  type="translate" fill="remove" attributeName="transform" id="ass" repeatCount="indefinite" dur="60s" accumulate="none" restart="always" calcMode="linear" values="10,0;60,50;10,20" additive="replace" attributeType="XML">
	</animateTransform>
</polygon>
<polygon fill="#6A6565" points="156.6,383 111.1,374 116.2,335 "/>
<polygon fill="#716B6C" points="111.1,374 156.6,383 113.2,400.2 "/>
<polygon fill="#615F5F" points="156.6,383 113.2,400.2 124.2,425 "/>
<polygon fill="#5A595A" points="156.6,383 148,460.8 124.2,425 "/>
<polygon fill="#686365" points="192.7,334.2 218.5,336.8 218.9,335.3 "/>
<polygon fill="#302E2E" points="187,316.4 190.5,325.2 192.7,334.2 "/>
<polygon fill="#302E2E" points="187,316.4 202.6,304.4 222.9,289.7 202.9,304.7 "/>
<polygon fill="#877D7B" points="134.6,291.8 126.7,308.3 142.3,291.8 "/>
<polygon fill="#8B827D" points="134.6,291.8 127.2,298.7 126.7,308.3 "/>
<polygon fill="#7E7574" points="127.2,298.7 117.5,311.9 126.7,308.3 "/>
<polygon fill="#8B827D" points="126.7,308.3 116.2,335 117.5,311.9 "/>
<polygon fill="#DCB7A5" points="229.5,299.2 230.4,300.8 231,299.5 "/>
<polygon fill="#BDB0B4" points="230.4,300.8 229.9,323.6 222.2,324.7 "/>
<polygon fill="#615E5E" points="124.2,425 148,460.8 139.6,490.4 126.7,446.7 "/>
<polygon fill="#535354" points="134.5,578 147.3,580.4 149.3,592.5 "/>
<polygon fill="#636161" points="134.5,578 143.9,560.3 147.3,580.4 "/>
<polygon fill="#535353" points="127.2,554.8 143.9,560.3 134.5,578 "/>
<polygon fill="#626060" points="128.3,541.8 143.9,560.3 127.2,554.8 "/>
<polygon fill="#595959" points="128.3,541.8 140.9,542.6 143.9,560.3 "/>
<polygon fill="#555555" points="129.9,523.2 140.9,542.6 128.3,541.8 "/>
<polygon fill="#515151" points="129.9,523.2 140.9,542.6 142.5,512.3 "/>
<polygon fill="#555556" points="139.6,490.4 129.9,523.2 142.5,512.3 "/>
<polygon fill="#545556" points="142.5,512.3 141,500.4 148,460.8 148,460.8 147.7,464.3 "/>
<polygon fill="#545556" points="141,500.4 148,460.8 139.6,490.4 "/>
<polygon fill="#615D5C" points="142.5,512.3 156.6,462.4 150.4,439.2 "/>
<polygon fill="#545556" points="142.5,512.3 178.1,440.3 156.6,462.4 "/>
<polygon fill="#615D5C" points="156.6,462.4 178.1,440.3 153.8,407.9 "/>
<polygon fill="#615E5E" points="156.6,462.4 150.4,439.2 153.8,407.9 "/>
<polygon fill="#646061" points="170,429.5 203.7,385.1 183.1,430.5 178.1,440.3 "/>
<polygon fill="#646061" points="156.6,383 170,429.5 153.8,407.9 "/>
<polygon fill="#6D6668" points="163.2,362.6 170,429.5 156.6,383 "/>
<polygon fill="#686465" points="163.2,362.6 172,336.1 170,429.5 "/>
<polygon fill="#706A6B" points="170,429.5 203.7,385.1 171.4,363.1 "/>
<polygon fill="#787070" points="172,336.1 203.7,385.1 171.4,363.1 "/>
<polygon fill="#6E6668" points="172,336.1 203.7,385.1 218.5,336.8 "/>
<polygon fill="#686465" points="117.5,311.9 113.9,352.5 116.2,335 "/>
<polygon fill="#E8D6D9" points="222.2,324.7 237.7,344.5 229.9,323.6 "/>
<polygon fill="#ACA0A8" points="222.2,324.7 226.3,346.4 237.7,344.5 "/>
<polygon fill="#958B90" points="237.7,344.5 241.7,367 226.3,346.4 "/>
<polygon fill="#837981" points="237.7,344.5 241.7,367 255.3,367 "/>
<polygon fill="#828181" points="255.3,367 248.6,382 245.9,376.5 241.7,367 "/>
<polygon fill="#A099A1" points="255.4,367 270.3,389.5 248.6,382 "/>
<polygon fill="#D8CAC2" stroke="#F7F2F3" stroke-width="0.25" stroke-miterlimit="10" points="247.9,367 253.1,370.6 253.8,375.3
	251.3,376.3 251.3,372.9 247,368.9 "/>
<polygon fill="#BDAEA3" stroke="#F7F2F3" stroke-width="0.25" stroke-miterlimit="10" points="247,368.9 246,370.3 246.5,373.5
	248.3,375.2 250.4,376.7 251.3,376.3 251.3,372.9 "/>
<polygon fill="#BDAEA3" stroke="#F7F2F3" stroke-width="0.25" stroke-miterlimit="10" points="251.3,376.3 250.4,376.7 252.1,377.2
	254,376 254.4,375.4 254.1,373 253.2,371.2 253.5,374 253.3,375.4 252.4,376 "/>
<polygon fill="#89828A" points="248.6,382 257.7,400.3 270.3,389.5 "/>
<polygon fill="#8E838D" points="270.3,389.5 257.7,400.3 275.3,397 "/>
<polygon fill="#93818A" points="275.3,397 257.7,400.3 262.7,405.2 "/>
<polygon fill="#978F9B" points="275.3,397 287.8,402.6 262.7,405.2 "/>
<polygon fill="#A0959F" points="275.3,397 294.5,387.5 287.8,402.6 "/>
<polygon fill="#78727B" points="294.5,387.5 290.9,396.9 287.8,402.6 "/>
<polygon fill="#78727B" points="262.7,405.2 286,403 287.8,402.6 "/>
<polygon fill="#716F82" points="294.5,387.5 292.5,392.7 287.8,402.6 312.8,381.1 "/>
<polygon fill="#827B88" points="312.8,381.1 330.9,378.7 287.8,402.6 "/>
<polyline fill="#716F82" points="322.1,374 339.7,363.1 330.9,378.7 312.8,381.1 "/>
<polygon fill="#6F6E85" points="332.9,359.9 339.7,363.1 322.1,374 "/>
<polygon fill="#787585" points="332.9,359.9 340.6,342.4 339.7,363.1 "/>
<polygon fill="#928D9A" points="340.6,342.4 343.8,343.4 339.7,363.1 "/>
<polygon fill="#787585" points="343.8,343.4 340.6,342.4 342.9,331.8 "/>
<polygon fill="#302E2E" points="218.6,336.8 174.6,335.4 172,336.1 "/>
<polygon fill="#302E2E" points="172,336.1 163.2,362.6 171.5,337 "/>
<polygon fill="#302E2E" points="163.2,362.6 156.6,383 161.9,366.6 "/>
<polygon fill="#302E2E" points="156.6,383 150.4,439.2 156.1,383.6 "/>
<polygon fill="#302E2E" points="148,460.8 142.5,512.3 144.9,488.3 "/>
<polygon fill="#302E2E" points="139.6,490.4 148,460.7 148,460.8 "/>
<polygon fill="#302E2E" points="192.7,334.2 218.5,336.8 193,334.4 "/>
<polygon fill="#5A5A5C" points="346.5,298.9 364.5,315.1 369.5,319.1 345.4,312.3 "/>
<polygon fill="#626164" points="345.4,312.3 369.5,319.1 344.3,324.7 "/>
<polygon fill="#5A5A5C" points="344.3,324.7 381.1,343 369.5,319.1 "/>
<polygon fill="#615C60" points="344.3,324.7 393.5,368.6 380.8,342.4 "/>
<polygon fill="#555557" points="344.3,324.7 342.9,331.8 343.8,343.4 393.4,368.6 "/>
<polygon fill="#626164" points="339.7,363.1 393.8,369.2 393.5,368.6 343.8,343.4 "/>
<polygon fill="#555557" points="393.8,369.2 390.8,380.3 339.7,363.1 "/>
<polygon fill="#0A0A0A" points="339.7,363.1 396.1,384.4 389.9,381.6 "/>
<polygon fill="#0A0A0A" points="339.7,363.1 389.4,380.3 390.8,380.3 "/>
<polygon fill="#0A0A0A" points="390.8,380.3 393.9,369.1 393.8,369.2 "/>
<polygon fill="#0A0A0A" points="393.9,369.1 393.8,369.2 380.8,342.4 "/>
<polygon fill="#1A191E" points="380.8,342.4 369.6,319.1 380.7,342.4 "/>
<polygon fill="#5A5A5D" points="337,433.1 396.1,384.4 392.8,401.2 "/>
<polygon fill="#6B6B6E" points="392.8,401.2 385.5,438.5 336.7,443.8 "/>
<polygon fill="#575659" points="336.7,443.8 372.4,505.3 378.4,474.8 "/>
<polygon fill="#5E5E61" points="336.7,443.8 386.9,600.4 372.4,505.3 "/>
<polygon fill="#525354" points="336.7,443.8 343.9,552.1 386.9,600.4 "/>
<polygon fill="#5A5A5D" points="343.9,552.1 359.1,600.4 386.9,600.4 "/>
<polygon fill="#535355" points="336.7,443.8 385.5,438.5 378.4,474.8 "/>
<polygon fill="#545456" points="392.8,401.2 336.7,443.8 337,433.1 "/>
<polygon fill="#555557" points="337,433.1 396.1,384.4 367.2,373.5 "/>
<polygon fill="#615C60" points="339.7,363.1 367.2,373.5 337.1,432.9 "/>
<polygon fill="#050303" points="396.1,384.4 373.2,502.8 372.4,505.3 "/>
<polygon fill="#050303" points="372.4,505.3 385.4,588.3 386.9,600.4 "/>
<polygon fill="#5E5D60" points="364.5,315.1 467.6,354.3 467,373.3 "/>
<polygon fill="#706F72" points="364.5,315.1 369.6,319.2 426.1,388.2 467,373.3 "/>
<polygon fill="#545456" points="369.6,319.1 393.9,369.1 426.2,388.2 "/>
<polygon fill="#4C4C51" points="393.9,369.1 390.8,380.3 339.7,363.1 396.1,384.4 426.2,388.2 "/>
<polygon fill="#070707" points="396.1,384.4 351.3,367.5 339.7,363.1 "/>
<polygon fill="#070707" points="390.8,380.3 390.4,380.4 339.7,363.1 "/>
<polygon fill="#5A5A5D" points="426.2,388.2 467,373.3 465.3,437.3 "/>
<polygon fill="#545456" points="426.2,388.2 396.1,384.4 465.3,437.3 "/>
<polygon fill="#4C4F51" points="396.1,384.4 378.4,475.9 465.3,437.3 "/>
<polygon fill="#545557" points="465.3,437.3 372.4,505.3 373.2,502.8 378.4,475.9 "/>
<polygon fill="#545557" points="465.3,437.3 425,580 448.2,509.6 "/>
<polygon fill="#4C4F51" points="373.7,513.3 383.9,527.8 393.2,509.9 "/>
<polygon fill="#5A5A5D" points="372.4,505.3 386.9,600.4 425,580 "/>
<polygon fill="#4C4F51" stroke="#0A0A0A" stroke-width="0.25" stroke-miterlimit="10" points="373.6,513.3 412.8,506.5 427,499.2
	435.5,491.2 440.9,479.6 433.8,514.8 383.9,527.8 "/>
<path fill="#4C4F51" d="M383.9,527.8"/>
<polygon fill="#525354" points="386.9,600.4 425,580 436.3,600.4 "/>
<polygon fill="#4C4F51" points="467.6,354.3 477.4,361.4 487.4,398.1 "/>
<polygon fill="#5A5A5C" points="467.6,354.3 487.4,445.7 487.4,398.1 "/>
<polygon fill="#6A696D" points="467.6,354.3 465.3,437.3 487.4,445.7 "/>
<polygon fill="#545557" points="488.1,450.9 473.9,400 476.1,503 "/>
<polygon fill="#4C4F51" points="473.9,400 448.2,509.6 476.2,503 "/>
<polygon fill="#5C5C5C" points="448.2,509.6 447.7,511.8 476.2,503 "/>
<polygon fill="none" stroke="#101111" stroke-width="0.25" stroke-miterlimit="10" points="465.3,437.3 465.5,428.9 467.6,354.3 "/>
<polygon fill="none" stroke="#101111" stroke-width="0.25" stroke-miterlimit="10" points="465.3,437.3 448.2,509.6 447.7,511.8 "/>
<polygon fill="#605D63" points="339.7,363.1 330.9,378.7 287.8,402.6 283.9,405.2 279.3,415.9 338.3,398.4 "/>
<polygon fill="#716F82" points="279.3,415.9 320.3,403.9 338.3,398.4 337.8,412 336.7,443.8 "/>
<polygon fill="#948B95" points="279.3,415.9 336.7,443.8 298.4,491.6 "/>
<polygon fill="#A79FAD" points="279.3,415.9 278.6,444.7 298.4,491.6 "/>
<polygon fill="#A298A1" points="278.6,444.7 273.1,478.2 298.4,491.6 "/>
<polygon fill="#877D83" points="273.1,478.2 271.9,488.8 298.4,491.6 "/>
<polygon fill="#9F969E" points="298.4,491.6 336.7,443.8 339.1,480.9 "/>
<polygon fill="#9C919A" points="298.4,491.6 271.9,488.8 271.3,503.7 272.3,536.9 "/>
<polygon fill="#91888D" points="272.3,536.8 339.1,480.9 298.4,491.6 "/>
<polygon fill="#9D96A1" points="339.1,480.9 343.9,552.1 272.3,536.8 "/>
<polygon fill="#625D5E" points="272.3,536.8 270,547.3 343.9,552.1 "/>
<polygon fill="#847D81" points="270,547.3 265,551.1 343.9,552.1 "/>
<polygon fill="#6F6868" points="265,551.1 343.9,552.1 347.3,563 "/>
<polygon fill="#867F86" points="265,551.1 262.8,561.4 255.2,600.4 347.3,563 "/>
<polygon fill="#545454" points="347.3,563 255.2,600.4 352.7,579.9 "/>
<polygon fill="#8D888C" points="352.7,579.9 255.2,600.4 342.9,600.4 "/>
<polygon fill="#6D6C6E" points="352.7,579.9 342.9,600.4 355.7,589.4 "/>
<polygon fill="#545454" points="355.7,589.4 342.9,600.4 359.1,600.4 "/>
<polygon fill="#8B8289" points="222.2,324.7 220,340.8 226.3,346.4 "/>
<polygon fill="#DACACC" points="220,340.8 220.8,353.9 226.3,346.4 "/>
<polygon fill="#B8ACB1" points="220.8,353.9 241.7,367 226.3,346.4 "/>
<polygon fill="#CFBDC2" points="220.8,353.9 227.9,393.5 241.8,367 "/>
<polygon fill="#A39CA1" points="220.8,353.9 216.5,361.4 227.9,393.5 "/>
<polygon fill="#686267" points="216.5,361.4 213,382.8 214.3,382.9 "/>
<polygon fill="#686267" points="214.3,382.9 213,382.8 208.6,389.8 "/>
<polygon fill="#686267" points="216.5,361.4 214.3,382.9 227.9,393.5 "/>
<polygon fill="#A1959C" points="241.7,367 227.9,393.5 257.7,400.3 "/>
<polygon fill="#E8D3D7" points="257.7,400.3 262.7,405.2 227.9,393.5 "/>
<polygon fill="#CEBCC2" points="214.3,382.9 208.6,389.8 227.9,393.5 "/>
<polygon fill="#B9ACB4" points="208.6,389.8 211.3,401.9 262.7,405.2 227.9,393.5 "/>
<polygon fill="#C2B3BB" points="211.3,401.9 208.2,408.7 262.7,405.2 "/>
<polygon fill="#A499A2" points="260.6,410.5 262.7,405.2 208.2,408.7 "/>
<polygon fill="#99929A" points="208.2,408.7 208.3,414.6 260.6,410.5 "/>
<polygon fill="#605C60" points="208.3,414.6 204.8,425 195.3,437 200,428.8 "/>
<polygon fill="#998E94" points="208.3,414.6 260.6,410.5 204.8,425 "/>
<polygon fill="#D0BCC3" points="245,414.6 244.3,433 204.8,425 "/>
<polygon fill="#BCAAB3" points="245,414.6 260.6,410.5 248.8,494.4 244.3,433 "/>
<polygon fill="#E0CBD2" points="244.3,433 215.2,427.1 203,441.9 "/>
<polygon fill="#EBDBDD" points="244.3,433 248.8,494.4 203,441.9 "/>
<polygon fill="#EBDBDD" points="204.8,425 215.2,427.1 203,441.9 "/>
<polygon fill="#9B96A0" points="204.8,425 195.3,437 203,441.9 "/>
<polygon fill="#605C60" points="195.3,437 199.3,443 203,441.9 "/>
<polygon fill="#797379" points="203,441.9 199.3,443 208.8,448.5 "/>
<polygon fill="#9F98A2" points="199.3,443 195.4,446.9 248.8,494.4 208.8,448.5 "/>
<polygon fill="#C8BABB" points="195.4,446.9 190.4,448.3 191.3,453.5 185.8,459.3 185.7,470.5 248.8,494.4 "/>
<polygon fill="#9D96A1" points="185.7,470.5 194.1,499.5 248.8,494.4 "/>
<polygon fill="#8A8385" points="185.7,470.5 175.5,486.4 194.1,499.5 "/>
<polygon fill="#988F92" points="175.5,486.4 178.3,519.1 194.1,499.5 "/>
<polygon fill="#5C5959" points="175.5,486.4 172.8,501.8 174.4,513.8 178.3,519.1 "/>
<polygon fill="#B0A4A9" points="194.1,499.5 248.1,541.7 250,525.3 248.8,494.4 "/>
<polygon fill="#686163" points="178.3,519.1 248.1,541.7 241.2,549.9 "/>
<polygon fill="#898589" points="194.1,499.5 178.3,519.1 248.1,541.7 "/>
<polygon fill="#8C888D" points="178.3,519.1 233.5,601.1 241.2,549.9 "/>
<polygon fill="#625D5E" points="179.2,533.9 174.3,527 178.3,519.1 "/>
<polygon fill="#9D9392" points="178.3,519.1 179.2,533.9 233.5,601.1 "/>
<polygon fill="#8C888D" points="179.2,533.9 175,539 176.6,546.1 233.5,601.1 "/>
<polygon fill="#817F82" points="176.6,546.1 172.8,547.2 168.7,550.5 171.1,572.7 "/>
<polygon fill="#8D898B" points="176.6,546.1 171.1,572.7 195.5,600.7 "/>
<polygon fill="#898489" points="195.5,600.7 197.7,566.4 176.6,546.1 "/>
<polygon fill="#85828F" points="197.7,566.4 209.6,600.9 233.5,601.1 "/>
<polygon fill="#9D9392" points="197.7,566.4 195.5,600.7 209.6,600.9 "/>
<polygon fill="#858180" points="169.6,584.8 169.2,578 171.1,572.7 195.5,600.7 "/>
<polygon fill="#646160" points="169.6,584.8 164.2,592.5 163.3,600.4 195.5,600.7 "/>
<polygon fill="#ACA3AB" points="262.7,405.2 266.7,404.8 260.6,410.5 "/>
<polygon fill="#64626F" points="266.7,404.8 287.8,402.6 283.9,405.2 "/>
<polygon fill="#716B79" points="266.7,404.8 260.6,410.5 279.3,415.9 283.9,405.2 "/>
<polygon fill="#868297" points="260.6,410.5 259.8,416.4 279.3,415.9 "/>
<polygon fill="#D8CAC2" stroke="#F9F7F7" stroke-width="0.25" stroke-miterlimit="10" points="271,407.7 267.4,409.6 266.3,411.2
	266.3,414.5 268.6,416.2 271,416.2 272.6,414.8 274.4,411.1 273.9,409.4 272.5,408.1 "/>
<polygon fill="#BDAEA3" stroke="#F9F7F7" stroke-width="0.25" stroke-miterlimit="10" points="271,407.7 268.7,407 267.1,408.4
	266,409 265.2,411.1 265.2,413.3 266.3,414.5 266.3,411.2 267.4,409.6 "/>
<polygon fill="#9D97A8" points="259.8,416.4 278.6,444.7 279.3,415.9 "/>
<polygon fill="#B0A5B3" points="259.8,416.4 278.6,444.7 273.1,478.2 "/>
<polygon fill="#8F8894" points="259.8,416.4 248.8,494.4 273.1,478.2 "/>
<polygon fill="#99919A" points="273.1,478.2 248.8,494.4 271.9,488.8 "/>
<polygon fill="#ACA0B1" points="271.9,488.8 248.8,494.4 271.3,503.7 "/>
<polygon fill="#D3C9C3" stroke="#FCFAFA" stroke-width="0.25" stroke-miterlimit="10" points="259.8,488.4 256.5,489.4 254.7,491.6
	254.3,494.3 255.2,496.1 257,497.4 259.2,498.3 261.9,497.4 263.6,494.8 264.1,492.1 263,490.2 "/>
<polygon fill="#FBF6EF" stroke="#FCFAFA" stroke-width="0.25" stroke-miterlimit="10" points="260,489.5 257.9,490.1 256.5,491.5
	255.9,493.8 257.1,496.3 259.6,497.4 261.3,496.3 262.5,493.5 262.2,491.2 "/>
<polygon fill="#CCBFCB" points="248.8,494.4 271.3,503.7 272.3,536.8 "/>
<polygon fill="#9F96A8" points="248.8,494.4 250,525.3 272.3,536.8 "/>
<polygon fill="#B0A7B5" points="250,525.3 270,547.3 272.3,536.8 "/>
<polygon fill="#BDB4BF" points="250,525.3 248.1,541.7 270,547.3 "/>
<polygon fill="#6F6769" points="248.1,541.7 241.2,549.9 270,547.3 "/>
<polygon fill="#625D5E" points="270,547.3 241.2,549.9 265,551.1 "/>
<polygon fill="#444142" points="265,551.1 262.8,561.4 241.2,549.9 "/>
<polygon fill="#8D8A95" points="262.8,561.4 241.2,549.9 239.6,560.6 "/>
<polygon fill="#A59E97" stroke="#F9F7F7" stroke-width="0.25" stroke-miterlimit="10" points="251,551.6 247.2,553 246.4,555.4
	247.5,559.2 250,560.3 253.8,559.4 255.7,556.8 255.6,553.2 253.2,551 "/>
<polygon fill="#C6BFBA" stroke="#F9F7F7" stroke-width="0.25" stroke-miterlimit="10" points="252.1,553.2 249.8,553.5 248.2,555
	248.8,556.7 250.5,558.3 252.4,558 253.8,555.8 253.4,554.4 "/>
<polygon fill="#817F89" points="239.6,560.6 262.8,561.4 259.4,579.5 256.8,592.3 "/>
<polygon fill="#867F86" points="239.6,560.6 237.5,574.3 256.8,592.3 "/>
<polygon fill="#9D9392" points="237.5,574.3 255.2,600.4 256.8,592.3 "/>
<polygon fill="#C8BABB" points="237.5,574.3 233.5,601.1 255.2,600.4 "/>
<polygon fill="#232222" points="149.3,592.5 164.2,592.5 163.3,600.4 "/>
<polygon fill="#282626" points="149.3,592.5 169.6,584.8 164.2,592.5 "/>
<polygon fill="#161616" points="147.3,580.4 169.6,584.8 149.3,592.5 "/>
<polygon fill="#161616" points="147.3,580.4 169.2,578 169.6,584.8 "/>
<polygon fill="#282626" points="147.3,580.4 171.1,572.7 169.2,578 "/>
<polygon fill="#141414" points="147.3,580.4 171.1,572.7 143.9,560.3 "/>
<polygon fill="#302C2C" points="143.9,560.3 168.7,550.5 171.1,572.7 "/>
<polygon fill="#111111" points="143.9,560.3 172.8,547.2 168.7,550.5 "/>
<polygon fill="#232323" points="143.9,560.3 175,539 172.8,547.2 "/>
<polygon fill="#2B2B2B" points="175,539 176.6,546.1 172.8,547.2 "/>
<polygon fill="#020202" points="140.9,542.6 175,539 143.9,560.3 "/>
<polygon fill="#191717" points="140.9,542.6 179.2,533.9 175,539 "/>
<polygon fill="#262525" points="140.9,542.6 174.3,527 179.2,533.9 "/>
<polygon fill="#161616" points="140.9,542.6 178.3,519.1 174.3,527 "/>
<polygon fill="#141313" points="174.4,513.8 178.3,519.1 140.9,542.6 "/>
<polygon fill="#212121" points="142.5,512.3 174.4,513.8 140.9,542.6 "/>
<polygon fill="#1E1D1D" points="142.5,512.3 172.8,501.8 174.4,513.8 "/>
<polygon fill="#191717" points="175.5,486.4 142.5,512.3 172.8,501.8 "/>
<polygon points="142.5,512.3 175.5,486.4 158,481 "/>
<polygon fill="#1C1C1C" points="158,481 185.7,470.5 175.5,486.4 "/>
<polygon fill="#161515" points="158,481 185.8,459.3 185.7,470.5 "/>
<polygon fill="#161515" points="158,481 190.4,448.3 191.3,453.5 "/>
<polygon fill="#2B2A2A" points="158,481 178.1,440.3 190.4,448.3 "/>
<polygon fill="#1E1E1E" points="178.1,440.3 195.4,446.9 190.4,448.3 "/>
<polygon fill="#232323" points="178.1,440.3 199.3,443 195.4,446.9 "/>
<polygon fill="#141313" points="195.3,437 178.1,440.3 199.3,443 "/>
<polygon fill="#2D2D2D" points="178.1,440.3 208.3,414.6 195.3,437 "/>
<polygon fill="#191919" points="178.1,440.3 208.2,408.7 208.3,414.6 "/>
<polygon fill="#1C1B1B" points="208.2,408.7 203.7,385.1 178.1,440.3 "/>
<polygon fill="#020202" points="203.7,385.1 211.3,401.9 208.2,408.7 "/>
<polygon fill="#282626" points="203.7,385.1 208.6,389.8 211.3,401.9 "/>
<polygon fill="#0C0C0C" points="203.7,385.1 213,382.8 208.6,389.8 "/>
<polygon fill="#262626" points="203.7,385.1 216.5,361.4 213,382.8 "/>
<polygon fill="#191919" points="216.5,361.4 203.7,385.1 220,340.8 220.8,353.9 "/>
<polygon fill="#0F0E0E" points="222.2,324.7 220,340.8 203.7,385.1 "/>
<polygon fill="#545557" points="487.4,445.7 488.1,450.9 486.7,445.4 "/>
<polygon fill="#6A696D" points="488.1,450.9 487.4,445.7 487.4,398.1 "/>
<polygon fill="#6A696D" points="488.1,450.9 488.1,484.2 476.2,502.6 478.8,491.3 481.5,479.9 "/>
<polygon fill="#6A696D" points="476.2,503 442,528.4 447.7,511.8 "/>
<polygon fill="#6A696D" points="487.4,398.1 491.9,428.2 488.1,450.9 "/>
<polygon fill="#5A5A5C" points="488.1,450.9 490.5,454.1 488.1,484.2 "/>
<polygon fill="#545456" points="491.9,428.2 490.5,454.1 488.1,450.9 "/>
<polygon fill="#545456" points="491.9,428.2 491.9,465.6 488.2,483.7 "/>
<polygon fill="#545456" points="476.2,503 437.1,543.2 442,528.4 "/>
</svg>
